SplineFontDB: 3.0
FontName: Nunito-Medium
FullName: Nunito Medium
FamilyName: Nunito
Weight: Medium
Copyright: Digitized data Copyright (c) 2011-2013, vernon adams.
Version: 2.0
ItalicAngle: 0
UnderlinePosition: 0
UnderlineWidth: 0
Ascent: 1638
Descent: 410
UFOAscent: 2030
UFODescent: -675
LayerCount: 2
Layer: 0 0 "Back"  1
Layer: 1 0 "Fore"  0
OS2Version: 0
OS2_WeightWidthSlopeOnly: 0
OS2_UseTypoMetrics: 0
CreationTime: 1392323415
ModificationTime: 1392323553
PfmFamily: 0
TTFWeight: 500
TTFWidth: 5
LineGap: 0
VLineGap: 0
OS2TypoAscent: 1999
OS2TypoAOffset: 0
OS2TypoDescent: 572
OS2TypoDOffset: 0
OS2TypoLinegap: 0
OS2WinAscent: 1999
OS2WinAOffset: 0
OS2WinDescent: -572
OS2WinDOffset: 0
HheadAscent: 0
HheadAOffset: 1
HheadDescent: 0
HheadDOffset: 1
OS2Vendor: 'NeWT'
Lookup: 258 0 0 "kernHorizontalKerninglookup0"  {"kernHorizontalKerninglookup0 subtable"  } ['kern' ('DFLT' <'dflt' > ) ]
Lookup: 258 0 0 "kernHorizontalKerninginLatinloo"  {"kernHorizontalKerninginLatinloo subtable"  } ['kern' ('latn' <'dflt' > ) ]
DEI: 91125
LangName: 1033 "" "" "" "" "" "Version 2.0" "" "Nunito is a trademark of Vernon Adams and may be registered in certain jurisdictions." "newtypography" "Vernon Adams" "" "newtypography.co.uk" "newtypography.co.uk" "Copyright (c) 2013, vernon adams.+AAoACgAA-This Font Software is licensed under the SIL Open Font License, Version 1.1.+AAoA-This license is copied below, and is also available with a FAQ at:+AAoA-http://scripts.sil.org/OFL+AAoA" "http://scripts.sil.org/OFL" "" "" "" "Nunito-Medium" 
PickledData: "(dp1
S'com.typemytype.robofont.foreground.layerStrokeColor'
p2
(F0.5
I0
F0.5
F0.69999999999999996
tp3
sS'com.typemytype.robofont.guides'
p4
((dp5
S'angle'
p6
I0
sS'name'
p7
NsS'magnetic'
p8
I5
sS'isGlobal'
p9
I1
sS'y'
I1013
sS'x'
I587
s(dp10
g6
I0
sg7
Nsg8
I5
sg9
I1
sS'y'
I903
sS'x'
I595
s(dp11
g6
I0
sg7
Nsg8
I5
sg9
I1
sS'y'
I120
sS'x'
I780
s(dp12
g6
I0
sg7
Nsg8
I5
sg9
I1
sS'y'
S'-22'
p13
sS'x'
I907
s(dp14
g6
I0
sg7
Nsg8
I5
sg9
I1
sS'y'
I1296

StartChar: A
Encoding: 33 65 0
Width: 1441
VWidth: 0
GlyphClass: 2
Flags: HW
PickledData: "(dp1
S'segmentType'
p2
S'line'
p3
sS'b'
(dp4
sS'anchors'
p5
(tsS'lib'
p6
(dp7
sS'unicodes'
p8
(tsS'width'
p9
I1445
sS'points'
p10
(dp11
sS'contours'
p12
(dp13
sS'components'
p14
(tsS'y'
I1232
sS'x'
I718
sS'com.typemytype.robofont.layerData'
p15
(dp16
S'b'
(dp17
S'name'
p18
S'A'
sg6
(dp19
sg8
(tsg9
I1414
sg12
((dp20
g10
((dp21
g2
S'line'
p22
sS'x'
I403
sS'smooth'
p23
I0
sS'y'
I502
s(dp24
g2
S'line'
p25
sS'x'
I703
sg23
I0
sS'y'
I1275
s(dp26
g2
S'line'
p27
sS'x'
I705
sg23
I0
sS'y'
I1275
s(dp28
g2
S'line'
p29
sS'x'
I1004
sg23
I0
sS'y'
I502
stp30
s(dp31
g10
((dp32
g2
S'curve'
p33
sS'x'
I150
sg23
I1
sS'y'
I0
s(dp34
S'y'
I0
sS'x'
I181
sg23
I0
s(dp35
S'y'
I15
sS'x'
I214
sg23
I0
s(dp36
g2
S'curve'
p37
sS'x'
I229
sg23
I1
sS'y'
I53
s(dp38
g2
S'line'
p39
sS'x'
I356
sg23
I0
sS'y'
I373
s(dp40
g2
S'line'
p41
sS'x'
I1051
sg23
I0
sS'y'
I373
s(dp42
g2
S'line'
p43
sS'x'
I1179
sg23
I1
sS'y'
I53
s(dp44
S'y'
I17
sS'x'
I1193
sg23
I0
s(dp45
S'y'
I0
sS'x'
I1228
sg23
I0
s(dp46
g2
S'curve'
p47
sS'x'
I1260
sg23
I1
sS'y'
I0
s(dp48
S'y'
I0
sS'x'
I1306
sg23
I0
s(dp49
S'y'
I31
sS'x'
I1354
sg23
I0
s(dp50
g2
S'curve'
p51
sS'x'
I1354
sg23
I1
sS'y'
I80
s(dp52
S'y'
I87
sS'x'
I1354
sg23
I0
s(dp53
S'y'
I97
sS'x'
I1352
sg23
I0
s(dp54
g2
S'curve'
p55
sS'x'
I1349
sg23
I0
sS'y'
I108
s(dp56
g2
S'line'
p57
sS'x'
I871
sg23
I1
sS'y'
I1288
s(dp58
S'y'
I1420
sS'x'
I817
sg23
I0
s(dp59
S'y'
I1430
sS'x'
I777
sg23
I0
s(dp60
g2
S'curve'
p61
sS'x'
I710
sg23
I1
sS'y'
I1430
s(dp62
S'y'
I1430
sS'x'
I644
sg23
I0
s(dp63
S'y'
I1413
sS'x'
I596
sg23
I0
s(dp64
g2
S'curve'
p65
sS'x'
I542
sg23
I1
sS'y'
I1280
s(dp66
g2
S'line'
p67
sS'x'
I66
sg23
I1
sS'y'
I108
s(dp68
S'y'
I97
sS'x'
I62
sg23
I0
s(dp69
S'y'
I87
sS'x'
I60
sg23
I0
s(dp70
g2
S'curve'
p71
sS'x'
I60
sg23
I1
sS'y'
I78
s(dp72
S'y'
I32
sS'x'
I60
sg23
I0
s(dp73
S'y'
I0
sS'x'
I106
sg23
I0
stp74
stp75
sg14
(tsg5
(tsssg18
S'A'
s."
AnchorPoint: "top" 720 1438 basechar 0
AnchorPoint: "ogonek" 1266 19 basechar 0
LayerCount: 2
Fore
SplineSet
995.988 513 m 1
 447.398 513 l 1
 722 1225 l 1
 995.988 513 l 1
1168 66 m 2
 1188.01207001 14.2706869551 1229.83755787 -7.23349808315 1271.40494126 -7.23349808315 c 0
 1327.96530602 -7.23349808315 1384.04779551 32.5810707821 1384.04779551 90.2396048489 c 0
 1384.04779551 102.431186947 1381.54041512 115.420551185 1376 129 c 2
 907 1298 l 2
 856 1425 796 1444 722 1444 c 0
 648 1444 587 1425 536 1298 c 2
 67 129 l 2
 61.6605939276 115.651484819 59.240535793 102.873154782 59.240535793 90.8622902504 c 0
 59.240535793 32.8679199922 115.662595378 -7.23349808315 172.30010334 -7.23349808315 c 0
 213.775043221 -7.23349808315 255.365516217 14.2706869551 275 66 c 2
 384.918 351 l 1
 1058.33 351 l 1
 1168 66 l 2
EndSplineSet
EndChar

StartChar: AE
Encoding: 133 198 1
Width: 1970
VWidth: 0
GlyphClass: 2
Flags: HW
PickledData: "(dp1
S'com.typemytype.robofont.layerData'
p2
(dp3
S'b'
(dp4
S'name'
p5
S'AE'
p6
sS'lib'
p7
(dp8
sS'unicodes'
p9
(tsS'width'
p10
I1976
sS'contours'
p11
(tsS'components'
p12
(tsS'anchors'
p13
(tsss."
AnchorPoint: "top" 1296 1445 basechar 0
LayerCount: 2
Fore
SplineSet
1258 0 m 2
 1848 0 l 1
 1904 2 1929 39 1929 79 c 0
 1929 125 1894 175 1832 175 c 2
 1350 175 l 1
 1274 648 l 1
 1798 648 l 2
 1853 648 1879 686 1879 727 c 0
 1879 773 1845 822 1783 822 c 2
 1250 822 l 1
 1181 1258 l 1
 1831 1258 l 2
 1887 1258 1912 1296 1912 1337 c 0
 1912 1383 1877 1433 1815 1433 c 2
 993 1432 l 2
 906 1432 839 1408 756 1252 c 1
 70 135 l 2
 59 116 54 97 54 81 c 0
 54 31 99 0 148 0 c 0
 189 0 232 21 257 71 c 1
 440 362 l 1
 1097 362 l 1
 1146 71 l 1
 1154 16 1206 0 1258 0 c 2
522 515 m 1
 961 1282 l 1
 964 1282 l 1
 1078 515 l 1
 522 515 l 1
EndSplineSet
EndChar

StartChar: B
Encoding: 34 66 13
Width: 1343
VWidth: 0
GlyphClass: 2
Flags: HW
PickledData: "(dp1
S'segmentType'
p2
S'curve'
p3
sS'b'
(dp4
sS'anchors'
p5
(tsS'lib'
p6
(dp7
sS'unicodes'
p8
(tsS'width'
p9
I1395
sS'points'
p10
(dp11
sS'contours'
p12
(dp13
sS'components'
p14
(tsS'y'
I1260
sS'x'
I676
sS'com.typemytype.robofont.layerData'
p15
(dp16
S'b'
(dp17
S'name'
p18
S'B'
sg6
(dp19
sg8
(tsg9
I1292
sg12
((dp20
g10
((dp21
g2
S'curve'
p22
sS'x'
I266
sS'smooth'
p23
I1
sS'y'
I0
s(dp24
g2
S'line'
p25
sS'x'
I1035
sg23
I1
sS'y'
I0
s(dp26
S'y'
I0
sS'x'
I1084
sg23
I0
s(dp27
S'y'
I36
sS'x'
I1108
sg23
I0
s(dp28
g2
S'curve'
p29
sS'x'
I1108
sg23
I1
sS'y'
I73
s(dp30
S'y'
I109
sS'x'
I1108
sg23
I0
s(dp31
S'y'
I145
sS'x'
I1084
sg23
I0
s(dp32
g2
S'curve'
p33
sS'x'
I1035
sg23
I1
sS'y'
I145
s(dp34
g2
S'line'
p35
sS'x'
I353
sg23
I0
sS'y'
I145
s(dp36
g2
S'line'
p37
sS'x'
I353
sg23
I0
sS'y'
I662
s(dp38
g2
S'line'
p39
sS'x'
I975
sg23
I1
sS'y'
I662
s(dp40
S'y'
I662
sS'x'
I1024
sg23
I0
s(dp41
S'y'
I698
sS'x'
I1049
sg23
I0
s(dp42
g2
S'curve'
p43
sS'x'
I1049
sg23
I1
sS'y'
I734
s(dp44
S'y'
I770
sS'x'
I1049
sg23
I0
s(dp45
S'y'
I806
sS'x'
I1026
sg23
I0
s(dp46
g2
S'curve'
p47
sS'x'
I975
sg23
I1
sS'y'
I806
s(dp48
g2
S'line'
p49
sS'x'
I353
sg23
I0
sS'y'
I806
s(dp50
g2
S'line'
p51
sS'x'
I353
sg23
I0
sS'y'
I1281
s(dp52
g2
S'line'
p53
sS'x'
I1007
sg23
I1
sS'y'
I1281
s(dp54
S'y'
I1281
sS'x'
I1056
sg23
I0
s(dp55
S'y'
I1317
sS'x'
I1080
sg23
I0
s(dp56
g2
S'curve'
p57
sS'x'
I1080
sg23
I1
sS'y'
I1354
s(dp58
S'y'
I1390
sS'x'
I1080
sg23
I0
s(dp59
S'y'
I1426
sS'x'
I1056
sg23
I0
s(dp60
g2
S'curve'
p61
sS'x'
I1007
sg23
I1
sS'y'
I1426
s(dp62
g2
S'line'
p63
sS'x'
I261
sg23
I1
sS'y'
I1426
s(dp64
S'y'
I1426
sS'x'
I213
sg23
I0
s(dp65
S'y'
I1383
sS'x'
I178
sg23
I0
s(dp66
g2
S'curve'
p67
sS'x'
I178
sg23
I1
sS'y'
I1340
s(dp68
g2
S'line'
p69
sS'x'
I178
sg23
I1
sS'y'
I86
s(dp70
S'y'
I41
sS'x'
I178
sg23
I0
s(dp71
S'y'
I0
sS'x'
I222
sg23
I0
stp72
stp73
sg14
(tsg5
(tsssg18
S'B'
s."
AnchorPoint: "top" 659 1438 basechar 0
LayerCount: 2
Fore
SplineSet
286 0 m 2
 750 0 l 2
 1090 0 1253 190 1253 384 c 0
 1253 601 1119 719 912 744 c 1
 912 748 l 1
 1101 777 1192 908 1192 1078 c 0
 1192 1291 1045 1433 701 1433 c 2
 286 1433 l 2
 225 1433 175 1385 175 1324 c 2
 175 109 l 2
 175 48 225 0 286 0 c 2
401 176 m 1
 401 649 l 1
 636 649 l 2
 883 649 1017 611 1017 411 c 0
 1017 216 911 176 708 176 c 2
 401 176 l 1
401 823 m 1
 401 1259 l 1
 687 1259 l 2
 849 1259 972 1234 972 1060 c 0
 972 888 881 823 664 823 c 2
 401 823 l 1
EndSplineSet
EndChar

StartChar: C
Encoding: 35 67 14
Width: 1354
VWidth: 0
GlyphClass: 2
Flags: HW
PickledData: "(dp1
S'b'
(dp2
sS'anchors'
p3
(tsS'lib'
p4
(dp5
sS'unicodes'
p6
(tsS'width'
p7
I1354
sS'contours'
p8
(tsS'components'
p9
(tsS'com.typemytype.robofont.layerData'
p10
(dp11
S'b'
(dp12
S'name'
p13
S'C'
sg4
(dp14
sg6
(tsg7
F1353.8900000000001
sg8
(tsg9
(tsg3
(tsssg13
S'C'
s."
AnchorPoint: "top" 784 1438 basechar 0
AnchorPoint: "bot" 774 4 basechar 0
LayerCount: 2
Fore
SplineSet
785 -22 m 0
 977 -22 1097 28 1190 87 c 0
 1226.10545004 110.186986264 1240.7054468 141.273934957 1240.7054468 170.629551459 c 0
 1240.7054468 216.873583203 1204.47432928 258.821168782 1159.00725081 258.821168782 c 0
 1146.20300871 258.821168782 1132.66628666 255.494415267 1119 248 c 0
 1037 203 951 159 823 159 c 0
 503 159 358 395 358 718 c 0
 358 1040 504 1281 814 1281 c 0
 974 1281 1054 1228 1101 1207 c 0
 1112.07229584 1202.23772222 1123.05954434 1200.08356275 1133.63604269 1200.08356275 c 0
 1182.0262243 1200.08356275 1221.81818856 1245.17650177 1221.81818856 1291.88508489 c 0
 1221.81818856 1320.71606187 1206.65743775 1350.16259975 1169 1370 c 0
 1078 1419 961 1462 806 1462 c 0
 388 1462 118 1148 118 715 c 0
 118 292 374 -22 785 -22 c 0
EndSplineSet
EndChar

StartChar: D
Encoding: 36 68 20
Width: 1519
VWidth: 0
GlyphClass: 2
Flags: HW
PickledData: "(dp1
S'b'
(dp2
sS'anchors'
p3
(tsS'lib'
p4
(dp5
sS'unicodes'
p6
(tsS'width'
p7
I1535
sS'contours'
p8
(tsS'components'
p9
(tsS'com.typemytype.robofont.layerData'
p10
(dp11
S'b'
(dp12
S'name'
p13
S'D'
sg4
(dp14
sg6
(tsg7
I1499
sg8
((dp15
S'points'
p16
((dp17
S'segmentType'
p18
S'curve'
p19
sS'x'
I266
sS'smooth'
p20
I1
sS'y'
I0
s(dp21
g18
S'line'
p22
sS'x'
I1035
sg20
I1
sS'y'
I0
s(dp23
S'y'
I0
sS'x'
I1084
sg20
I0
s(dp24
S'y'
I34
sS'x'
I1108
sg20
I0
s(dp25
g18
S'curve'
p26
sS'x'
I1108
sg20
I1
sS'y'
I71
s(dp27
S'y'
I107
sS'x'
I1108
sg20
I0
s(dp28
S'y'
I141
sS'x'
I1084
sg20
I0
s(dp29
g18
S'curve'
p30
sS'x'
I1035
sg20
I1
sS'y'
I141
s(dp31
g18
S'line'
p32
sS'x'
I356
sg20
I0
sS'y'
I141
s(dp33
g18
S'line'
p34
sS'x'
I356
sg20
I0
sS'y'
I665
s(dp35
g18
S'line'
p36
sS'x'
I975
sg20
I1
sS'y'
I665
s(dp37
S'y'
I665
sS'x'
I1024
sg20
I0
s(dp38
S'y'
I698
sS'x'
I1049
sg20
I0
s(dp39
g18
S'curve'
p40
sS'x'
I1049
sg20
I1
sS'y'
I734
s(dp41
S'y'
I770
sS'x'
I1049
sg20
I0
s(dp42
S'y'
I803
sS'x'
I1026
sg20
I0
s(dp43
g18
S'curve'
p44
sS'x'
I975
sg20
I1
sS'y'
I803
s(dp45
g18
S'line'
p46
sS'x'
I356
sg20
I0
sS'y'
I803
s(dp47
g18
S'line'
p48
sS'x'
I356
sg20
I0
sS'y'
I1285
s(dp49
g18
S'line'
p50
sS'x'
I1007
sg20
I1
sS'y'
I1285
s(dp51
S'y'
I1285
sS'x'
I1056
sg20
I0
s(dp52
S'y'
I1319
sS'x'
I1080
sg20
I0
s(dp53
g18
S'curve'
p54
sS'x'
I1080
sg20
I1
sS'y'
I1356
s(dp55
S'y'
I1392
sS'x'
I1080
sg20
I0
s(dp56
S'y'
I1426
sS'x'
I1056
sg20
I0
s(dp57
g18
S'curve'
p58
sS'x'
I1007
sg20
I1
sS'y'
I1426
s(dp59
g18
S'line'
p60
sS'x'
I261
sg20
I1
sS'y'
I1426
s(dp61
S'y'
I1426
sS'x'
I213
sg20
I0
s(dp62
S'y'
I1383
sS'x'
I178
sg20
I0
s(dp63
g18
S'curve'
p64
sS'x'
I178
sg20
I1
sS'y'
I1340
s(dp65
g18
S'line'
p66
sS'x'
I178
sg20
I1
sS'y'
I86
s(dp67
S'y'
I41
sS'x'
I178
sg20
I0
s(dp68
S'y'
I0
sS'x'
I222
sg20
I0
stp69
stp70
sg9
(tsg3
(tsssg13
S'D'
s."
AnchorPoint: "top" 759 1438 basechar 0
AnchorPoint: "mid" 302 739 basechar 0
LayerCount: 2
Fore
SplineSet
289 2 m 2
 645 2 l 2
 1124 2 1403 250 1403 713 c 0
 1403 1179 1139 1434 632 1434 c 2
 289 1434 l 2
 226 1434 175 1384 175 1323 c 2
 175 112 l 2
 175 51 226 2 289 2 c 2
402 182 m 1
 402 1254 l 1
 626 1254 l 2
 993 1254 1168 1111 1168 717 c 0
 1168 361 1042 182 658 182 c 2
 402 182 l 1
EndSplineSet
EndChar

StartChar: Dcroat
Encoding: 207 272 22
Width: 1511
VWidth: 0
GlyphClass: 2
Flags: HW
LayerCount: 2
Fore
SplineSet
78 653 m 2
 548 653 l 2
 604 653 638 682 638 726 c 0
 638 773 604 802 548 802 c 2
 84 802 l 2
 28 802 -7 773 -7 726 c 0
 -7 682 26 653 78 653 c 2
EndSplineSet
Refer: 20 68 N 1 0 0 1 0 0 2
EndChar

StartChar: uni0394
Encoding: 413 916 23
Width: 1255
VWidth: 0
GlyphClass: 2
Flags: HW
LayerCount: 2
Fore
SplineSet
12 0 m 1
 1243 0 l 1
 732 1380 l 1
 712.165711721 1425.61886304 668.727483948 1447.87966096 625.947113752 1447.87966096 c 0
 582.451899781 1447.87966096 539.636712169 1424.86870858 523 1380 c 2
 12 0 l 1
234 117 m 1
 624 1227 l 1
 1022 117 l 1
 234 117 l 1
EndSplineSet
EndChar

StartChar: E
Encoding: 37 69 24
Width: 1247
VWidth: 0
GlyphClass: 2
Flags: HW
PickledData: "(dp1
S'b'
(dp2
sS'anchors'
p3
(tsS'lib'
p4
(dp5
sS'unicodes'
p6
(tsS'width'
p7
I1258
sS'contours'
p8
(tsS'components'
p9
(tsS'com.typemytype.robofont.layerData'
p10
(dp11
S'b'
(dp12
S'name'
p13
S'E'
sg4
(dp14
sg6
(tsg7
I1234
sg8
(tsg9
(tsg3
(tsssg13
S'E'
s."
AnchorPoint: "top" 657 1438 basechar 0
AnchorPoint: "ogonek" 826 9 basechar 0
AnchorPoint: "bot" 669 1 basechar 0
LayerCount: 2
Fore
SplineSet
287 0 m 2
 1043 0 l 2
 1102 0 1131 46 1131 89 c 0
 1131 133 1102 180 1043 180 c 2
 402 180 l 1
 402 647 l 1
 983 647 l 2
 1042 647 1072 692 1072 735 c 0
 1072 779 1044 823 983 823 c 2
 402 823 l 1
 402 1252 l 1
 1019 1252 l 2
 1078 1252 1106 1299 1106 1343 c 0
 1106 1386 1078 1433 1019 1433 c 2
 283 1433 l 2
 221 1433 175 1380 175 1323 c 2
 175 110 l 2
 175 52 230 0 287 0 c 2
EndSplineSet
EndChar

StartChar: Eng
Encoding: 265 330 33
Width: 1530
VWidth: 0
GlyphClass: 2
Flags: HW
PickledData: "(dp1
S'com.typemytype.robofont.layerData'
p2
(dp3
S'b'
(dp4
S'name'
p5
S'Eng'
p6
sS'lib'
p7
(dp8
sS'unicodes'
p9
(tsS'width'
p10
I1495
sS'contours'
p11
(tsS'components'
p12
(tsS'anchors'
p13
(tsss."
LayerCount: 2
Fore
SplineSet
635 -420 m 0
 750.755321062 -446.967173698 854.472150397 -462.60780948 944.783808146 -462.60780948 c 0
 1209.46062003 -462.60780948 1359 -328.269906687 1359 49 c 2
 1359 350 l 1
 1154 353 l 1
 1154 -7 l 2
 1154 -215.816175514 1093.37250659 -303.37736421 928.138246437 -303.37736421 c 0
 859.941803124 -303.37736421 773.926372075 -288.461964413 667 -261 c 0
 656.799097623 -258.406550243 647.0914339 -257.210610005 637.957119698 -257.210610005 c 0
 585.912249203 -257.210610005 552.480680812 -296.035787503 552.480680812 -336.401472486 c 0
 552.480680812 -370.902174492 576.903059563 -406.528245696 635 -420 c 0
EndSplineSet
Refer: 69 78 N 1 0 0 1 1 0 2
EndChar

StartChar: Euro
Encoding: 461 8364 36
Width: 1411
VWidth: 0
GlyphClass: 2
Flags: HW
LayerCount: 2
Fore
SplineSet
64 502 m 2
 961 502 l 2
 997.240260278 502 1014.77310561 530.780638386 1014.77310561 560.152244183 c 0
 1014.77310561 590.755340894 995.739206216 622 959 622 c 2
 64 622 l 2
 30.6334690353 622 13.3687515424 591.329879101 13.3687515424 561.000411203 c 0
 13.3687515424 531.337281027 29.8831914631 502 64 502 c 2
64 764 m 2
 961 764 l 2
 997.240260278 764 1014.77310561 792.780638386 1014.77310561 822.152244183 c 0
 1014.77310561 852.755340894 995.739206216 884 959 884 c 2
 64 884 l 2
 30.6334690353 884 13.3687515424 853.329879101 13.3687515424 823.000411203 c 0
 13.3687515424 793.337281027 29.8831914631 764 64 764 c 2
EndSplineSet
Refer: 14 67 N 1 0 0 1 60 0 2
EndChar

StartChar: F
Encoding: 38 70 37
Width: 1160
VWidth: 0
GlyphClass: 2
Flags: HW
PickledData: "(dp1
S'b'
(dp2
sS'anchors'
p3
(tsS'lib'
p4
(dp5
sS'unicodes'
p6
(tsS'width'
p7
I1175
sS'contours'
p8
(tsS'components'
p9
(tsS'com.typemytype.robofont.layerData'
p10
(dp11
S'b'
(dp12
S'name'
p13
S'F'
sg4
(dp14
sg6
(tsg7
I1142
sg8
((dp15
S'points'
p16
((dp17
S'segmentType'
p18
S'curve'
p19
sS'x'
I266
sS'smooth'
p20
I1
sS'y'
I0
s(dp21
g18
S'line'
p22
sS'x'
I1035
sg20
I1
sS'y'
I0
s(dp23
S'y'
I0
sS'x'
I1084
sg20
I0
s(dp24
S'y'
I34
sS'x'
I1108
sg20
I0
s(dp25
g18
S'curve'
p26
sS'x'
I1108
sg20
I1
sS'y'
I71
s(dp27
S'y'
I107
sS'x'
I1108
sg20
I0
s(dp28
S'y'
I141
sS'x'
I1084
sg20
I0
s(dp29
g18
S'curve'
p30
sS'x'
I1035
sg20
I1
sS'y'
I141
s(dp31
g18
S'line'
p32
sS'x'
I353
sg20
I0
sS'y'
I141
s(dp33
g18
S'line'
p34
sS'x'
I353
sg20
I0
sS'y'
I665
s(dp35
g18
S'line'
p36
sS'x'
I975
sg20
I1
sS'y'
I665
s(dp37
S'y'
I665
sS'x'
I1024
sg20
I0
s(dp38
S'y'
I698
sS'x'
I1049
sg20
I0
s(dp39
g18
S'curve'
p40
sS'x'
I1049
sg20
I1
sS'y'
I734
s(dp41
S'y'
I770
sS'x'
I1049
sg20
I0
s(dp42
S'y'
I803
sS'x'
I1026
sg20
I0
s(dp43
g18
S'curve'
p44
sS'x'
I975
sg20
I1
sS'y'
I803
s(dp45
g18
S'line'
p46
sS'x'
I353
sg20
I0
sS'y'
I803
s(dp47
g18
S'line'
p48
sS'x'
I353
sg20
I0
sS'y'
I1285
s(dp49
g18
S'line'
p50
sS'x'
I1007
sg20
I1
sS'y'
I1285
s(dp51
S'y'
I1285
sS'x'
I1056
sg20
I0
s(dp52
S'y'
I1319
sS'x'
I1080
sg20
I0
s(dp53
g18
S'curve'
p54
sS'x'
I1080
sg20
I1
sS'y'
I1356
s(dp55
S'y'
I1392
sS'x'
I1080
sg20
I0
s(dp56
S'y'
I1426
sS'x'
I1056
sg20
I0
s(dp57
g18
S'curve'
p58
sS'x'
I1007
sg20
I1
sS'y'
I1426
s(dp59
g18
S'line'
p60
sS'x'
I261
sg20
I1
sS'y'
I1426
s(dp61
S'y'
I1426
sS'x'
I213
sg20
I0
s(dp62
S'y'
I1383
sS'x'
I178
sg20
I0
s(dp63
g18
S'curve'
p64
sS'x'
I178
sg20
I1
sS'y'
I1340
s(dp65
g18
S'line'
p66
sS'x'
I178
sg20
I1
sS'y'
I86
s(dp67
S'y'
I41
sS'x'
I178
sg20
I0
s(dp68
S'y'
I0
sS'x'
I222
sg20
I0
stp69
stp70
sg9
(tsg3
(tsssg13
S'F'
s."
LayerCount: 2
Fore
SplineSet
287 0 m 0
 344 0 401 36 401 109 c 2
 401 652 l 1
 953 652 l 2
 1012 652 1041 696 1041 740 c 0
 1041 784 1012 828 953 828 c 2
 401 828 l 1
 401 1252 l 1
 980 1252 l 2
 1040 1252 1068 1299 1068 1343 c 0
 1068 1386 1040 1433 980 1433 c 2
 284 1433 l 2
 225 1433 174 1386 174 1321 c 2
 174 109 l 2
 174 36 229 0 287 0 c 0
EndSplineSet
EndChar

StartChar: G
Encoding: 39 71 38
Width: 1473
VWidth: 0
GlyphClass: 2
Flags: HW
PickledData: "(dp1
S'b'
(dp2
sS'anchors'
p3
(tsS'lib'
p4
(dp5
sS'unicodes'
p6
(tsS'width'
p7
I1538
sS'contours'
p8
(tsS'components'
p9
(tsS'com.typemytype.robofont.layerData'
p10
(dp11
S'b'
(dp12
S'name'
p13
S'G'
sg4
(dp14
sg6
(tsg7
I1448
sg8
((dp15
S'points'
p16
((dp17
S'segmentType'
p18
S'curve'
p19
sS'x'
I783
sS'smooth'
p20
I1
sS'y'
S'-22'
p21
s(dp22
S'y'
S'-22'
p23
sS'x'
I965
sg20
I0
s(dp24
S'y'
I34
sS'x'
I1086
sg20
I0
s(dp25
g18
S'curve'
p26
sS'x'
I1166
sg20
I1
sS'y'
I86
s(dp27
S'y'
I154
sS'x'
I1270
sg20
I0
s(dp28
S'y'
I258
sS'x'
I1186
sg20
I0
s(dp29
g18
S'curve'
p30
sS'x'
I1112
sg20
I1
sS'y'
I214
s(dp31
S'y'
I162
sS'x'
I1024
sg20
I0
s(dp32
S'y'
I120
sS'x'
I939
sg20
I0
s(dp33
g18
S'curve'
p34
sS'x'
I806
sg20
I1
sS'y'
I120
s(dp35
S'y'
I120
sS'x'
I446
sg20
I0
s(dp36
S'y'
I406
sS'x'
I316
sg20
I0
s(dp37
g18
S'curve'
p38
sS'x'
I316
sg20
I1
sS'y'
I706
s(dp39
S'y'
I1005
sS'x'
I316
sg20
I0
s(dp40
S'y'
I1296
sS'x'
I450
sg20
I0
s(dp41
g18
S'curve'
p42
sS'x'
I801
sg20
I1
sS'y'
I1296
s(dp43
S'y'
I1296
sS'x'
I980
sg20
I0
s(dp44
S'y'
I1246
sS'x'
I1053
sg20
I0
s(dp45
g18
S'curve'
p46
sS'x'
I1094
sg20
I1
sS'y'
I1225
s(dp47
S'y'
I1184
sS'x'
I1174
sg20
I0
s(dp48
S'y'
I1300
sS'x'
I1231
sg20
I0
s(dp49
g18
S'curve'
p50
sS'x'
I1156
sg20
I1
sS'y'
I1343
s(dp51
S'y'
I1372
sS'x'
I1106
sg20
I0
s(dp52
S'y'
I1438
sS'x'
I995
sg20
I0
s(dp53
g18
S'curve'
p54
sS'x'
I797
sg20
I1
sS'y'
I1438
s(dp55
S'y'
I1438
sS'x'
I359
sg20
I0
s(dp56
S'y'
I1093
sS'x'
I128
sg20
I0
s(dp57
g18
S'curve'
p58
sS'x'
I128
sg20
I1
sS'y'
I704
s(dp59
S'y'
I307
sS'x'
I128
sg20
I0
s(dp60
S'y'
S'-22'
p61
sS'x'
I350
sg20
I0
stp62
stp63
sg9
(tsg3
(tsssg13
S'G'
s."
AnchorPoint: "top" 834 1433 basechar 0
AnchorPoint: "bot" 828 0 basechar 0
LayerCount: 2
Fore
SplineSet
816 -22 m 0
 980 -22 1145 14 1268 51 c 0
 1321 66 1357 102 1357 173 c 2
 1357 662 l 2
 1357 722 1326 764 1266 764 c 2
 879 764 l 2
 827 764 802 714 802 676 c 0
 802 639 827 590 879 590 c 2
 1131 590 l 1
 1131 198 l 1
 1039 175 930 159 832 159 c 0
 508 159 358 378 358 725 c 0
 358 1051 503 1281 849 1281 c 0
 976 1281 1090 1250 1202 1220 c 0
 1208 1217 1220 1216 1224 1216 c 0
 1275 1216 1305 1267 1305 1311 c 0
 1305 1342 1290 1373 1253 1389 c 0
 1135 1437 994 1462 841 1462 c 0
 354 1462 118 1122 118 722 c 0
 118 236 405 -22 816 -22 c 0
EndSplineSet
EndChar

StartChar: H
Encoding: 40 72 44
Width: 1498
VWidth: 0
GlyphClass: 2
Flags: HW
PickledData: "(dp1
S'b'
(dp2
sS'anchors'
p3
(tsS'lib'
p4
(dp5
sS'unicodes'
p6
(tsS'width'
p7
I1524
sS'contours'
p8
(tsS'components'
p9
(tsS'com.typemytype.robofont.layerData'
p10
(dp11
S'b'
(dp12
S'name'
p13
S'H'
sg4
(dp14
sg6
(tsg7
I1464
sg8
(tsg9
(tsg3
(tsssg13
S'H'
s."
AnchorPoint: "top" 764 1438 basechar 0
LayerCount: 2
Fore
SplineSet
288 1 m 0
 346 1 402 37 402 110 c 2
 402 652 l 1
 1095 652 l 1
 1095 110 l 2
 1095 38 1151 1 1208 1 c 0
 1266 1 1322 37 1322 110 c 2
 1322 1322 l 2
 1322 1395 1267 1432 1209 1432 c 0
 1151 1432 1095 1394 1095 1322 c 2
 1095 833 l 1
 402 833 l 1
 402 1322 l 2
 402 1395 346 1432 289 1432 c 0
 231 1432 175 1394 175 1322 c 2
 175 110 l 2
 175 38 231 1 288 1 c 0
EndSplineSet
EndChar

StartChar: Hbar
Encoding: 229 294 45
Width: 1490
VWidth: 0
GlyphClass: 2
Flags: HW
PickledData: "(dp1
S'com.typemytype.robofont.layerData'
p2
(dp3
S'b'
(dp4
S'name'
p5
S'Hbar'
p6
sS'lib'
p7
(dp8
sS'unicodes'
p9
(tsS'width'
p10
I1464
sS'contours'
p11
(tsS'components'
p12
(tsS'anchors'
p13
(tsss."
LayerCount: 2
Fore
SplineSet
115 1020 m 2
 1377 1020 l 2
 1419 1020 1445 1043 1445 1076 c 0
 1445 1108 1420 1132 1377 1132 c 2
 115 1132 l 2
 74 1132 49 1108 49 1076 c 0
 49 1043 74 1020 115 1020 c 2
EndSplineSet
Refer: 44 72 N 1 0 0 1 0 0 2
EndChar

StartChar: I
Encoding: 41 73 47
Width: 617
VWidth: 0
GlyphClass: 2
Flags: HW
PickledData: "(dp1
S'b'
(dp2
sS'anchors'
p3
(tsS'lib'
p4
(dp5
sS'unicodes'
p6
(tsS'width'
p7
I637
sS'contours'
p8
(tsS'components'
p9
(tsS'com.typemytype.robofont.layerData'
p10
(dp11
S'b'
(dp12
S'name'
p13
S'I'
sg4
(dp14
sg6
(tsg7
I592
sg8
(tsg9
(tsg3
(tsssg13
S'I'
s."
AnchorPoint: "top" 311 1438 basechar 0
AnchorPoint: "ogonek" 314 22 basechar 0
LayerCount: 2
Fore
SplineSet
308 1 m 0
 366 1 423 37 423 110 c 2
 423 1324 l 2
 423 1397 367 1434 310 1434 c 0
 252 1434 196 1397 196 1324 c 2
 196 110 l 2
 196 38 251 1 308 1 c 0
EndSplineSet
EndChar

StartChar: J
Encoding: 42 74 58
Width: 1034
VWidth: 0
GlyphClass: 2
Flags: HW
PickledData: "(dp1
S'b'
(dp2
sS'anchors'
p3
(tsS'lib'
p4
(dp5
sS'unicodes'
p6
(tsS'width'
p7
I1126
sS'contours'
p8
(tsS'components'
p9
(tsS'com.typemytype.robofont.layerData'
p10
(dp11
S'b'
(dp12
S'name'
p13
S'J'
sg4
(dp14
sg6
(tsg7
I1003
sg8
(tsg9
(tsg3
(tsssg13
S'J'
s."
AnchorPoint: "top" 773 1438 basechar 0
LayerCount: 2
Fore
SplineSet
433 -27 m 0
 677 -27 888 102 888 442 c 2
 888 1325 l 2
 888 1397 832 1433 775 1433 c 0
 717 1433 660 1397 660 1325 c 2
 660 459 l 2
 660 242 581 162 425 162 c 0
 340 162 265 195 209 226 c 0
 190 238 173 243 157 243 c 0
 106 243 73 192 73 142 c 0
 73 105.834285138 88.1150844364 77.7095795932 118 60 c 0
 186 20 270 -27 433 -27 c 0
EndSplineSet
EndChar

StartChar: K
Encoding: 43 75 60
Width: 1299
VWidth: 0
GlyphClass: 2
Flags: HW
PickledData: "(dp1
S'b'
(dp2
sS'anchors'
p3
(tsS'lib'
p4
(dp5
sS'unicodes'
p6
(tsS'width'
p7
I1329
sS'contours'
p8
(tsS'components'
p9
(tsS'com.typemytype.robofont.layerData'
p10
(dp11
S'b'
(dp12
S'name'
p13
S'K'
sg4
(dp14
sg6
(tsg7
I1210
sg8
(tsg9
(tsg3
(tsssg13
S'K'
s."
AnchorPoint: "top" 642 1438 basechar 0
AnchorPoint: "bot" 662 0 basechar 0
LayerCount: 2
Fore
SplineSet
288 0 m 0
 344 0 402 36 402 108 c 2
 402 710 l 1
 1008 49 l 2
 1037 17 1065 1 1097 1 c 0
 1156 1 1210 45 1210 104 c 0
 1210 125 1206 148 1186 169 c 2
 635 754 l 1
 1134 1277 l 2
 1151 1295 1156 1317 1156 1337 c 0
 1156 1391 1106 1432 1052 1432 c 0
 1021 1432 994 1416 967 1387 c 2
 402 773 l 1
 402 1325 l 2
 402 1396 345 1433 290 1433 c 0
 233 1433 176 1397 176 1325 c 2
 176 108 l 2
 176 35 232 0 288 0 c 0
EndSplineSet
EndChar

StartChar: L
Encoding: 44 76 62
Width: 1114
VWidth: 0
GlyphClass: 2
Flags: HW
PickledData: "(dp1
S'b'
(dp2
sS'anchors'
p3
(tsS'lib'
p4
(dp5
sS'unicodes'
p6
(tsS'width'
p7
I1169
sS'contours'
p8
(tsS'components'
p9
(tsS'com.typemytype.robofont.layerData'
p10
(dp11
S'b'
(dp12
S'name'
p13
S'L'
sg4
(dp14
sg6
(tsg7
I1095
sg8
((dp15
S'points'
p16
((dp17
S'segmentType'
p18
S'curve'
p19
sS'x'
I266
sS'smooth'
p20
I1
sS'y'
I0
s(dp21
g18
S'line'
p22
sS'x'
I1035
sg20
I1
sS'y'
I0
s(dp23
S'y'
I0
sS'x'
I1084
sg20
I0
s(dp24
S'y'
I34
sS'x'
I1108
sg20
I0
s(dp25
g18
S'curve'
p26
sS'x'
I1108
sg20
I1
sS'y'
I71
s(dp27
S'y'
I107
sS'x'
I1108
sg20
I0
s(dp28
S'y'
I141
sS'x'
I1084
sg20
I0
s(dp29
g18
S'curve'
p30
sS'x'
I1035
sg20
I1
sS'y'
I141
s(dp31
g18
S'line'
p32
sS'x'
I356
sg20
I0
sS'y'
I141
s(dp33
g18
S'line'
p34
sS'x'
I356
sg20
I0
sS'y'
I665
s(dp35
g18
S'line'
p36
sS'x'
I975
sg20
I1
sS'y'
I665
s(dp37
S'y'
I665
sS'x'
I1024
sg20
I0
s(dp38
S'y'
I698
sS'x'
I1049
sg20
I0
s(dp39
g18
S'curve'
p40
sS'x'
I1049
sg20
I1
sS'y'
I734
s(dp41
S'y'
I770
sS'x'
I1049
sg20
I0
s(dp42
S'y'
I803
sS'x'
I1026
sg20
I0
s(dp43
g18
S'curve'
p44
sS'x'
I975
sg20
I1
sS'y'
I803
s(dp45
g18
S'line'
p46
sS'x'
I356
sg20
I0
sS'y'
I803
s(dp47
g18
S'line'
p48
sS'x'
I356
sg20
I0
sS'y'
I1285
s(dp49
g18
S'line'
p50
sS'x'
I1007
sg20
I1
sS'y'
I1285
s(dp51
S'y'
I1285
sS'x'
I1056
sg20
I0
s(dp52
S'y'
I1319
sS'x'
I1080
sg20
I0
s(dp53
g18
S'curve'
p54
sS'x'
I1080
sg20
I1
sS'y'
I1356
s(dp55
S'y'
I1392
sS'x'
I1080
sg20
I0
s(dp56
S'y'
I1426
sS'x'
I1056
sg20
I0
s(dp57
g18
S'curve'
p58
sS'x'
I1007
sg20
I1
sS'y'
I1426
s(dp59
g18
S'line'
p60
sS'x'
I261
sg20
I1
sS'y'
I1426
s(dp61
S'y'
I1426
sS'x'
I213
sg20
I0
s(dp62
S'y'
I1383
sS'x'
I178
sg20
I0
s(dp63
g18
S'curve'
p64
sS'x'
I178
sg20
I1
sS'y'
I1340
s(dp65
g18
S'line'
p66
sS'x'
I178
sg20
I1
sS'y'
I86
s(dp67
S'y'
I41
sS'x'
I178
sg20
I0
s(dp68
S'y'
I0
sS'x'
I222
sg20
I0
stp69
stp70
sg9
(tsg3
(tsssg13
S'L'
s."
AnchorPoint: "top" 489 1445 basechar 0
AnchorPoint: "caron.alt" 373 1018 basechar 0
AnchorPoint: "bot" 667 0 basechar 0
AnchorPoint: "mid" 287 724 basechar 0
LayerCount: 2
Fore
SplineSet
290 0 m 2
 1013 0 l 2
 1072 0 1102 45 1102 90 c 0
 1102 134 1072 180 1013 180 c 2
 402 180 l 1
 402 1322 l 2
 402 1395 347 1432 290 1432 c 0
 232 1432 175 1395 175 1322 c 2
 175 113 l 2
 175 50 229 0 290 0 c 2
EndSplineSet
EndChar

StartChar: Lslash
Encoding: 256 321 67
Width: 1163
VWidth: 0
GlyphClass: 2
Flags: HW
LayerCount: 2
Fore
SplineSet
78 615 m 2
 704 822 l 2
 740.928910822 834.182733467 756.551579236 862.453854057 756.551579236 891.086967715 c 0
 756.551579236 930.387327121 727.12016679 970.369642193 682.953552026 970.369642193 c 0
 674.776375462 970.369642193 666.094102086 968.999118773 657 966 c 2
 32 762 l 2
 -7.68843373613 749.032491948 -24.8325013538 718.30743524 -24.8325013538 687.846050718 c 0
 -24.8325013538 648.685840533 3.50128542746 609.961398081 48.6951483836 609.961398081 c 0
 57.8091266491 609.961398081 67.6087771764 611.536259059 78 615 c 2
EndSplineSet
Refer: 62 76 N 1 0 0 1 0 0 2
EndChar

StartChar: M
Encoding: 45 77 68
Width: 1913
VWidth: 0
GlyphClass: 2
Flags: HW
PickledData: "(dp1
S'b'
(dp2
sS'anchors'
p3
(tsS'lib'
p4
(dp5
sS'unicodes'
p6
(tsS'width'
p7
I1984
sS'contours'
p8
(tsS'components'
p9
(tsS'com.typemytype.robofont.layerData'
p10
(dp11
S'b'
(dp12
S'name'
p13
S'M'
sg4
(dp14
sg6
(tsg7
I1899
sg8
(tsg9
(tsg3
(tsssg13
S'M'
s."
AnchorPoint: "top" 977 1438 basechar 0
LayerCount: 2
Fore
SplineSet
952 41 m 0
 1003 41 1057 75 1084 141 c 1
 1518 1140 l 1
 1518 96 l 2
 1518 44 1570.25 18 1622.5 18 c 0
 1674.75 18 1727 44 1727 96 c 2
 1727 1249 l 2
 1727 1337.30271248 1644.64971594 1396.61319012 1556.17297859 1396.61319012 c 0
 1485.33636255 1396.61319012 1410.57269553 1358.59522786 1371 1267 c 2
 952 314 l 1
 533 1267 l 2
 493.42730447 1358.59522786 418.663637445 1396.61319012 347.827021408 1396.61319012 c 0
 259.350284062 1396.61319012 177 1337.30271248 177 1249 c 2
 177 96 l 2
 177 44 229.25 18 281.5 18 c 0
 333.75 18 386 44 386 96 c 2
 386 1140 l 1
 819 141 l 2
 847 75 901 41 952 41 c 0
EndSplineSet
EndChar

StartChar: N
Encoding: 46 78 69
Width: 1531
VWidth: 0
GlyphClass: 2
Flags: HW
PickledData: "(dp1
S'b'
(dp2
sS'anchors'
p3
(tsS'lib'
p4
(dp5
sS'unicodes'
p6
(tsS'width'
p7
I1557
sS'contours'
p8
(tsS'components'
p9
(tsS'com.typemytype.robofont.layerData'
p10
(dp11
S'b'
(dp12
S'name'
p13
S'N'
sg4
(dp14
sg6
(tsg7
I1499
sg8
(tsg9
(tsg3
(tsssg13
S'N'
s."
AnchorPoint: "top" 801 1438 basechar 0
AnchorPoint: "bot" 793 0 basechar 0
LayerCount: 2
Fore
SplineSet
276 0 m 0
 328 0 381 33 381 98 c 2
 381 1089 l 1
 1087 75 l 2
 1122 26 1183 0 1227 0 c 0
 1298 0 1359 52 1359 141 c 2
 1359 1334 l 2
 1359 1400 1306 1433 1255 1433 c 0
 1203 1433 1151 1399 1151 1334 c 2
 1151 333 l 1
 443 1354 l 2
 405 1408 344 1432 298 1432 c 0
 229 1432 172 1381 172 1291 c 2
 172 98 l 2
 172 32 224 0 276 0 c 0
EndSplineSet
EndChar

StartChar: O
Encoding: 47 79 74
Width: 1601
VWidth: 0
GlyphClass: 2
Flags: HW
PickledData: "(dp1
S'b'
(dp2
sS'anchors'
p3
(tsS'com.typemytype.robofont.layerData'
p4
(dp5
S'b'
(dp6
S'name'
p7
S'O'
sS'lib'
p8
(dp9
sS'unicodes'
p10
(tsS'width'
p11
I1597
sS'contours'
p12
(tsS'components'
p13
(tsg3
(tsssg10
(tsS'com.typemytype.robofont.guides'
p14
(tsg11
I1604
sg12
(tsg13
(tsg8
(dp15
sg7
S'O'
s."
AnchorPoint: "top" 802 1438 basechar 0
LayerCount: 2
Fore
SplineSet
801 159 m 0
 510 159 356 380 356 720 c 0
 356 1058 509 1281 801 1281 c 0
 1092 1281 1245 1058 1245 720 c 0
 1245 380 1091 159 801 159 c 0
801 -22 m 0
 1234 -22 1485 272 1485 720 c 0
 1485 1168 1234 1462 801 1462 c 0
 369 1462 115 1168 115 720 c 0
 115 272 369 -22 801 -22 c 0
EndSplineSet
EndChar

StartChar: OE
Encoding: 273 338 75
Width: 1997
VWidth: 0
GlyphClass: 2
Flags: HW
LayerCount: 2
Fore
SplineSet
724 -26 m 0
 847 -26 1063 -1 1082 -1 c 2
 1794 -1 l 2
 1851 -1 1881 42 1881 85 c 0
 1881 129 1851 173 1794 173 c 2
 1274 173 l 1
 1274 649 l 1
 1735 649 l 2
 1793 649 1824 691 1824 734 c 0
 1824 778 1793 821 1735 821 c 2
 1274 821 l 1
 1274 1258 l 1
 1771 1258 l 2
 1829 1258 1858 1302 1858 1346 c 0
 1858 1388 1829 1432 1771 1432 c 2
 1101 1432 l 2
 1080 1432 868 1456 738 1456 c 0
 345 1456 110 1170 110 715 c 0
 110 263 347 -26 724 -26 c 0
735 140 m 0
 458 140 336 407 336 717 c 0
 336 1027 462 1290 735 1290 c 0
 937 1290 1047 1270 1054 1268 c 1
 1054 167 l 1
 1048 163 926 143 735 140 c 0
EndSplineSet
EndChar

StartChar: Omega
Encoding: 464 8486 83
Width: 1504
VWidth: 0
GlyphClass: 2
Flags: HW
LayerCount: 2
Fore
SplineSet
240 0 m 2
 726 0 l 1
 555 270 366 615 366 872 c 0
 366 1093 489 1248 822 1248 c 0
 1156 1248 1279 1093 1279 872 c 0
 1279 615 1090 271 918 0 c 1
 1404 0 l 2
 1447 0 1468 40 1468 80 c 0
 1468 120 1447 159 1404 159 c 2
 1142 159 l 1
 1350 404 1506 699 1506 934 c 0
 1506 1211 1371 1460 822 1460 c 0
 311 1460 138 1208 138 934 c 0
 138 699 289 418 503 159 c 1
 240 159 l 2
 198 159 177 120 177 80 c 0
 177 40 198 0 240 0 c 2
EndSplineSet
EndChar

StartChar: Oslash
Encoding: 151 216 84
Width: 1601
VWidth: 0
GlyphClass: 2
Flags: HW
PickledData: "(dp1
S'com.typemytype.robofont.layerData'
p2
(dp3
S'b'
(dp4
S'name'
p5
S'Oslash'
p6
sS'lib'
p7
(dp8
sS'unicodes'
p9
(tsS'width'
p10
I1597
sS'contours'
p11
(tsS'components'
p12
(tsS'anchors'
p13
(tsss."
LayerCount: 2
Fore
SplineSet
1062.2849261 1198.28126348 m 1
 469.668062027 311.617863797 l 1
 394.60046163 409.384321635 356 549.778346097 356 720 c 0
 356 1058 509 1281 801 1281 c 0
 906.456261509 1281 993.789199171 1251.71375929 1062.2849261 1198.28126348 c 1
1157.62709807 1089.82078108 m 1
 1215.45133425 994.867826435 1245 868.538803942 1245 720 c 0
 1245 380 1091 159 801 159 c 0
 711.045903135 159 634.182916641 180.117776585 570.913189745 219.3404344 c 1
 1157.62709807 1089.82078108 l 1
286 -149 m 0
 313 -149 333 -133 355 -101 c 2
 460.006069979 54.7926595941 l 1
 555.990075734 4.88826715776 670.355392367 -22 801 -22 c 0
 1234 -22 1485 272 1485 720 c 0
 1485 956.279225094 1415.18178051 1149.72177369 1285.66793189 1279.78905664 c 1
 1395 1442 l 2
 1410 1465 1418 1487 1418 1507 c 0
 1418 1545 1386 1571 1351 1571 c 0
 1329 1571 1304 1562 1286 1533 c 2
 1174.87218955 1366.73243627 l 1
 1072.79411298 1428.44475049 947.283205148 1462 801 1462 c 0
 369 1462 115 1168 115 720 c 0
 115 464.730124451 197.466359306 259.459537615 348.339306818 130.087817835 c 1
 238 -35 l 2
 226 -52 220 -70 220 -86 c 0
 220 -123 251 -149 286 -149 c 0
EndSplineSet
EndChar

StartChar: P
Encoding: 48 80 87
Width: 1260
VWidth: 0
GlyphClass: 2
Flags: HW
PickledData: "(dp1
S'b'
(dp2
sS'anchors'
p3
(tsS'lib'
p4
(dp5
sS'unicodes'
p6
(tsS'width'
p7
I1319
sS'contours'
p8
(tsS'components'
p9
(tsS'com.typemytype.robofont.layerData'
p10
(dp11
S'b'
(dp12
S'name'
p13
S'P'
sg4
(dp14
sg6
(tsg7
I1201
sg8
((dp15
S'points'
p16
((dp17
S'segmentType'
p18
S'curve'
p19
sS'x'
I266
sS'smooth'
p20
I1
sS'y'
I0
s(dp21
g18
S'line'
p22
sS'x'
I1035
sg20
I1
sS'y'
I0
s(dp23
S'y'
I0
sS'x'
I1084
sg20
I0
s(dp24
S'y'
I34
sS'x'
I1108
sg20
I0
s(dp25
g18
S'curve'
p26
sS'x'
I1108
sg20
I1
sS'y'
I71
s(dp27
S'y'
I107
sS'x'
I1108
sg20
I0
s(dp28
S'y'
I141
sS'x'
I1084
sg20
I0
s(dp29
g18
S'curve'
p30
sS'x'
I1035
sg20
I1
sS'y'
I141
s(dp31
g18
S'line'
p32
sS'x'
I356
sg20
I0
sS'y'
I141
s(dp33
g18
S'line'
p34
sS'x'
I356
sg20
I0
sS'y'
I665
s(dp35
g18
S'line'
p36
sS'x'
I975
sg20
I1
sS'y'
I665
s(dp37
S'y'
I665
sS'x'
I1024
sg20
I0
s(dp38
S'y'
I698
sS'x'
I1049
sg20
I0
s(dp39
g18
S'curve'
p40
sS'x'
I1049
sg20
I1
sS'y'
I734
s(dp41
S'y'
I770
sS'x'
I1049
sg20
I0
s(dp42
S'y'
I803
sS'x'
I1026
sg20
I0
s(dp43
g18
S'curve'
p44
sS'x'
I975
sg20
I1
sS'y'
I803
s(dp45
g18
S'line'
p46
sS'x'
I356
sg20
I0
sS'y'
I803
s(dp47
g18
S'line'
p48
sS'x'
I356
sg20
I0
sS'y'
I1285
s(dp49
g18
S'line'
p50
sS'x'
I1007
sg20
I1
sS'y'
I1285
s(dp51
S'y'
I1285
sS'x'
I1056
sg20
I0
s(dp52
S'y'
I1319
sS'x'
I1080
sg20
I0
s(dp53
g18
S'curve'
p54
sS'x'
I1080
sg20
I1
sS'y'
I1356
s(dp55
S'y'
I1392
sS'x'
I1080
sg20
I0
s(dp56
S'y'
I1426
sS'x'
I1056
sg20
I0
s(dp57
g18
S'curve'
p58
sS'x'
I1007
sg20
I1
sS'y'
I1426
s(dp59
g18
S'line'
p60
sS'x'
I261
sg20
I1
sS'y'
I1426
s(dp61
S'y'
I1426
sS'x'
I213
sg20
I0
s(dp62
S'y'
I1383
sS'x'
I178
sg20
I0
s(dp63
g18
S'curve'
p64
sS'x'
I178
sg20
I1
sS'y'
I1340
s(dp65
g18
S'line'
p66
sS'x'
I178
sg20
I1
sS'y'
I86
s(dp67
S'y'
I41
sS'x'
I178
sg20
I0
s(dp68
S'y'
I0
sS'x'
I222
sg20
I0
stp69
stp70
sg9
(tsg3
(tsssg13
S'P'
s."
AnchorPoint: "top" 655 1438 basechar 0
LayerCount: 2
Fore
SplineSet
289 -1 m 0
 346 -1 402 35 402 109 c 2
 402 602 l 1
 700 602 l 2
 1016 602 1230 706 1230 1018 c 0
 1230 1323 1035 1433 720 1433 c 2
 290 1433 l 2
 226 1433 175 1382 175 1320 c 2
 175 109 l 2
 175 36 232 -1 289 -1 c 0
402 775 m 1
 402 1253 l 1
 704 1253 l 2
 904 1253 1006 1203 1006 1018 c 0
 1006 830 900 775 695 775 c 2
 402 775 l 1
EndSplineSet
EndChar

StartChar: Q
Encoding: 49 81 88
Width: 1601
VWidth: 0
GlyphClass: 2
Flags: HW
PickledData: "(dp1
S'b'
(dp2
sS'anchors'
p3
(tsS'lib'
p4
(dp5
sS'unicodes'
p6
(tsS'width'
p7
I1604
sS'contours'
p8
(tsS'components'
p9
(tsS'com.typemytype.robofont.layerData'
p10
(dp11
S'b'
(dp12
S'name'
p13
S'Q'
sg4
(dp14
sg6
(tsg7
I1597
sg8
(tsg9
(tsg3
(tsssg13
S'Q'
s."
LayerCount: 2
Fore
SplineSet
1277.640625 -213.3125 m 0
 1321.77194835 -213.3125 1361.63709216 -174.946990767 1361.63709216 -125.899870338 c 0
 1361.63709216 -96.8782211333 1346.07658542 -67.6846006948 1310 -50 c 2
 1014 90 l 1
 721 35 l 1
 1241 -205 l 2
 1253.75 -210.75 1266.0625 -213.3125 1277.640625 -213.3125 c 0
EndSplineSet
Refer: 74 79 N 1 0 0 1 0 0 2
EndChar

StartChar: R
Encoding: 50 82 89
Width: 1382
VWidth: 0
GlyphClass: 2
Flags: HW
PickledData: "(dp1
S'b'
(dp2
sS'anchors'
p3
(tsS'com.typemytype.robofont.layerData'
p4
(dp5
S'b'
(dp6
S'name'
p7
S'R'
sS'lib'
p8
(dp9
sS'unicodes'
p10
(tsS'width'
p11
I1363
sS'contours'
p12
((dp13
S'points'
p14
((dp15
S'segmentType'
p16
S'curve'
p17
sS'x'
I267
sS'smooth'
p18
I1
sS'y'
I0
s(dp19
S'y'
I0
sS'x'
I311
sg18
I0
s(dp20
S'y'
I27
sS'x'
I356
sg18
I0
s(dp21
g16
S'curve'
p22
sS'x'
I356
sg18
I1
sS'y'
I84
s(dp23
g16
S'line'
p24
sS'x'
I356
sg18
I0
sS'y'
I628
s(dp25
g16
S'line'
p26
sS'x'
I669
sg18
I1
sS'y'
I628
s(dp27
S'y'
I628
sS'x'
I962
sg18
I0
s(dp28
S'y'
I722
sS'x'
I1182
sg18
I0
s(dp29
g16
S'curve'
p30
sS'x'
I1182
sg18
I1
sS'y'
I1026
s(dp31
S'y'
I1324
sS'x'
I1182
sg18
I0
s(dp32
S'y'
I1426
sS'x'
I993
sg18
I0
s(dp33
g16
S'curve'
p34
sS'x'
I684
sg18
I1
sS'y'
I1426
s(dp35
g16
S'line'
p36
sS'x'
I268
sg18
I1
sS'y'
I1426
s(dp37
S'y'
I1426
sS'x'
I217
sg18
I0
s(dp38
S'y'
I1387
sS'x'
I178
sg18
I0
s(dp39
g16
S'curve'
p40
sS'x'
I178
sg18
I1
sS'y'
I1339
s(dp41
g16
S'line'
p42
sS'x'
I178
sg18
I1
sS'y'
I84
s(dp43
S'y'
I28
sS'x'
I178
sg18
I0
s(dp44
S'y'
I0
sS'x'
I222
sg18
I0
stp45
s(dp46
g14
((dp47
g16
S'line'
p48
sS'x'
I356
sg18
I0
sS'y'
I764
s(dp49
g16
S'line'
p50
sS'x'
I356
sg18
I0
sS'y'
I1285
s(dp51
g16
S'line'
p52
sS'x'
I684
sg18
I1
sS'y'
I1285
s(dp53
S'y'
I1285
sS'x'
I914
sg18
I0
s(dp54
S'y'
I1210
sS'x'
I1008
sg18
I0
s(dp55
g16
S'curve'
p56
sS'x'
I1008
sg18
I1
sS'y'
I1026
s(dp57
S'y'
I838
sS'x'
I1008
sg18
I0
s(dp58
S'y'
I764
sS'x'
I901
sg18
I0
s(dp59
g16
S'curve'
p60
sS'x'
I670
sg18
I1
sS'y'
I764
stp61
stp62
sS'components'
p63
(tsg3
(tsssg10
(tsS'com.typemytype.robofont.guides'
p64
(tsg11
I1408
sg12
(tsg63
(tsg8
(dp65
sg7
S'R'
s."
AnchorPoint: "top" 680 1438 basechar 0
AnchorPoint: "bot" 733 0 basechar 0
LayerCount: 2
Fore
SplineSet
288 1 m 0
 344 1 402 37 402 109 c 2
 402 643 l 1
 714 643 l 2
 715.6360612 643.008019908 717.261702735 643.012052043 718.876998369 643.012052043 c 0
 918.672450199 643.012052043 960.18445788 581.32383926 983 374 c 2
 1013 101 l 2
 1020 33 1081 1 1135 1 c 0
 1189.25806452 1 1241.76586889 39.505723205 1241.76586889 101.781108388 c 0
 1241.76586889 106.075962539 1241.51612903 110.483870968 1241 115 c 2
 1207 412 l 2
 1188 583 1106 702 931 739 c 1
 931 743 l 1
 1145 781 1242 911 1242 1070 c 0
 1242 1367 987 1433 729 1433 c 2
 289 1433 l 2
 226 1433 175 1383 175 1322 c 2
 175 109 l 2
 175 37 232 1 288 1 c 0
402 818 m 1
 402 1253 l 1
 701 1253 l 2
 840 1253 1015 1250 1015 1045 c 0
 1015 839 836 818 664 818 c 2
 402 818 l 1
EndSplineSet
EndChar

StartChar: S
Encoding: 51 83 93
Width: 1298
VWidth: 0
GlyphClass: 2
Flags: HW
PickledData: "(dp1
S'b'
(dp2
sS'anchors'
p3
(tsS'lib'
p4
(dp5
sS'unicodes'
p6
(tsS'width'
p7
I1317
sS'contours'
p8
(tsS'components'
p9
(tsS'com.typemytype.robofont.layerData'
p10
(dp11
S'b'
(dp12
S'name'
p13
S'S'
sg4
(dp14
sg6
(tsg7
I1274
sg8
(tsg9
(tsg3
(tsssg13
S'S'
s."
AnchorPoint: "top" 657 1438 basechar 0
AnchorPoint: "bot" 647 4 basechar 0
LayerCount: 2
Fore
SplineSet
643 -22 m 0
 974.793297756 -22 1192.08290881 130.603446083 1192.08290881 395.630837206 c 0
 1192.08290881 622.678947747 1051.83276936 718.037302612 826 792 c 2
 523 890 l 2
 408 927 353 980 353 1079 c 0
 353 1222 492 1281 673 1281 c 0
 827 1281 959 1218 1024 1179 c 0
 1040.04896119 1168.99097044 1055.7405597 1164.66996362 1070.37587009 1164.66996362 c 0
 1118.78657059 1164.66996362 1155.63984159 1211.94847683 1155.63984159 1257.02981325 c 0
 1155.63984159 1277.29536523 1148.19253297 1297.11691176 1131 1312 c 0
 1045 1387 858 1462 656 1462 c 0
 362 1462 134 1317 134 1071 c 0
 134 870 244 772 450 703 c 2
 754 602 l 2
 899 553 970 505 970 374 c 0
 970 228 828 159 649 159 c 0
 469 159 333 229 250 289 c 0
 242.131813246 294.546426728 233.598124071 297.014904755 224.808822962 297.014904755 c 0
 178.260014982 297.014904755 124.541695478 227.777989905 124.541695478 179.838945607 c 0
 124.541695478 166.653516766 128.605494234 155.079274959 138 147 c 0
 236 60 396 -22 643 -22 c 0
EndSplineSet
EndChar

StartChar: Sigma
Encoding: 414 931 99
Width: 1392
VWidth: 0
GlyphClass: 2
Flags: HW
LayerCount: 2
Fore
SplineSet
295 -148 m 2
 1162 -148 l 2
 1220 -148 1249 -96.75 1249 -45.5 c 0
 1249 5.75 1220 57 1162 57 c 2
 375 57 l 1
 844 519 l 2
 891.457543214 564.416358559 916.780901589 604.885075802 916.780901589 646.252969877 c 0
 916.780901589 685.951517267 893.460087477 726.478135541 844 773 c 1
 375 1232 l 1
 1162 1232 l 2
 1220 1232 1249 1283.25 1249 1334.5 c 0
 1249 1385.75 1220 1437 1162 1437 c 2
 307 1437 l 2
 212.118105547 1437 141.566395938 1376.58004097 141.566395938 1294.73146504 c 0
 141.566395938 1248.04721726 164.51868569 1194.39168802 219 1141 c 2
 712 648 l 1
 219 139 l 2
 168.873734819 87.7430671835 147.156565245 34.3554521964 147.156565245 -12.2759671886 c 0
 147.156565245 -89.3716748062 206.518268088 -148 295 -148 c 2
EndSplineSet
EndChar

StartChar: T
Encoding: 52 84 100
Width: 1181
VWidth: 0
GlyphClass: 2
Flags: HW
PickledData: "(dp1
S'b'
(dp2
sS'anchors'
p3
(tsS'lib'
p4
(dp5
sS'unicodes'
p6
(tsS'width'
p7
I1199
sS'contours'
p8
(tsS'components'
p9
(tsS'com.typemytype.robofont.layerData'
p10
(dp11
S'b'
(dp12
S'name'
p13
S'T'
sg4
(dp14
sg6
(tsg7
I1158
sg8
((dp15
S'points'
p16
((dp17
S'segmentType'
p18
S'curve'
p19
sS'x'
I581
sS'smooth'
p20
I1
sS'y'
I0
s(dp21
g18
S'line'
p22
sS'x'
I1350
sg20
I1
sS'y'
I0
s(dp23
S'y'
I0
sS'x'
I1399
sg20
I0
s(dp24
S'y'
I34
sS'x'
I1423
sg20
I0
s(dp25
g18
S'curve'
p26
sS'x'
I1423
sg20
I1
sS'y'
I71
s(dp27
S'y'
I107
sS'x'
I1423
sg20
I0
s(dp28
S'y'
I141
sS'x'
I1399
sg20
I0
s(dp29
g18
S'curve'
p30
sS'x'
I1350
sg20
I1
sS'y'
I141
s(dp31
g18
S'line'
p32
sS'x'
I671
sg20
I0
sS'y'
I141
s(dp33
g18
S'line'
p34
sS'x'
I671
sg20
I0
sS'y'
I665
s(dp35
g18
S'line'
p36
sS'x'
I1290
sg20
I1
sS'y'
I665
s(dp37
S'y'
I665
sS'x'
I1339
sg20
I0
s(dp38
S'y'
I698
sS'x'
I1364
sg20
I0
s(dp39
g18
S'curve'
p40
sS'x'
I1364
sg20
I1
sS'y'
I734
s(dp41
S'y'
I770
sS'x'
I1364
sg20
I0
s(dp42
S'y'
I803
sS'x'
I1341
sg20
I0
s(dp43
g18
S'curve'
p44
sS'x'
I1290
sg20
I1
sS'y'
I803
s(dp45
g18
S'line'
p46
sS'x'
I671
sg20
I0
sS'y'
I803
s(dp47
g18
S'line'
p48
sS'x'
I671
sg20
I0
sS'y'
I1285
s(dp49
g18
S'line'
p50
sS'x'
I1322
sg20
I1
sS'y'
I1285
s(dp51
S'y'
I1285
sS'x'
I1371
sg20
I0
s(dp52
S'y'
I1319
sS'x'
I1395
sg20
I0
s(dp53
g18
S'curve'
p54
sS'x'
I1395
sg20
I1
sS'y'
I1356
s(dp55
S'y'
I1392
sS'x'
I1395
sg20
I0
s(dp56
S'y'
I1426
sS'x'
I1371
sg20
I0
s(dp57
g18
S'curve'
p58
sS'x'
I1322
sg20
I1
sS'y'
I1426
s(dp59
g18
S'line'
p60
sS'x'
I576
sg20
I1
sS'y'
I1426
s(dp61
S'y'
I1426
sS'x'
I528
sg20
I0
s(dp62
S'y'
I1383
sS'x'
I493
sg20
I0
s(dp63
g18
S'curve'
p64
sS'x'
I493
sg20
I1
sS'y'
I1340
s(dp65
g18
S'line'
p66
sS'x'
I493
sg20
I1
sS'y'
I86
s(dp67
S'y'
I41
sS'x'
I493
sg20
I0
s(dp68
S'y'
I0
sS'x'
I537
sg20
I0
stp69
stp70
sg9
(tsg3
(tsssg13
S'T'
s."
AnchorPoint: "top" 606 1438 basechar 0
AnchorPoint: "bot" 592 4 basechar 0
AnchorPoint: "mid" 597 717 basechar 0
LayerCount: 2
Fore
SplineSet
592 -1 m 0
 649 -1 706 37 706 110 c 2
 706 1252 l 1
 1065 1252 l 2
 1125 1252 1155 1298 1155 1343 c 0
 1155 1387 1125 1433 1065 1433 c 2
 116 1433 l 2
 56 1433 26 1387 26 1342 c 0
 26 1298 56 1252 116 1252 c 2
 478 1252 l 1
 478 110 l 2
 478 37 535 -1 592 -1 c 0
EndSplineSet
EndChar

StartChar: Thorn
Encoding: 157 222 105
Width: 1308
VWidth: 0
GlyphClass: 2
Flags: HW
LayerCount: 2
Fore
SplineSet
298 -1 m 0
 355 -1 413 35 413 108 c 2
 413 383 l 1
 667 383 l 2
 970 383 1246 484 1246 804 c 0
 1246 1118 976 1223 684 1223 c 2
 413 1223 l 1
 413 1334 l 2
 413 1406 355 1443 298 1443 c 0
 241 1443 184 1407 184 1334 c 2
 184 108 l 2
 184 35 241 -1 298 -1 c 0
413 547 m 1
 413 1059 l 1
 681 1059 l 2
 864 1059 1013 1001 1013 804 c 0
 1013 606 862 547 674 547 c 2
 413 547 l 1
EndSplineSet
EndChar

StartChar: U
Encoding: 53 85 106
Width: 1503
VWidth: 0
GlyphClass: 2
Flags: HW
PickledData: "(dp1
S'b'
(dp2
sS'anchors'
p3
(tsS'lib'
p4
(dp5
sS'unicodes'
p6
(tsS'width'
p7
I1513
sS'contours'
p8
(tsS'components'
p9
(tsS'com.typemytype.robofont.layerData'
p10
(dp11
S'b'
(dp12
S'name'
p13
S'U'
sg4
(dp14
sg6
(tsg7
I1490
sg8
(tsg9
(tsg3
(tsssg13
S'U'
s."
AnchorPoint: "top" 768 1438 basechar 0
AnchorPoint: "ogonek" 881 9 basechar 0
LayerCount: 2
Fore
SplineSet
751 -22 m 0
 1059 -22 1327 147 1327 498 c 2
 1327 1328 l 2
 1327 1401 1271 1437 1214 1437 c 0
 1156 1437 1099 1400 1099 1328 c 2
 1099 504 l 2
 1099 264 925 159 751 159 c 0
 578 159 405 264 405 504 c 2
 405 1328 l 2
 405 1401 348 1437 291 1437 c 0
 233 1437 177 1400 177 1328 c 2
 177 498 l 2
 177 147 444 -22 751 -22 c 0
EndSplineSet
EndChar

StartChar: V
Encoding: 54 86 117
Width: 1332
VWidth: 0
GlyphClass: 2
Flags: HW
PickledData: "(dp1
S'b'
(dp2
sS'anchors'
p3
(tsS'com.typemytype.robofont.layerData'
p4
(dp5
S'b'
(dp6
S'name'
p7
S'V'
sS'lib'
p8
(dp9
sS'unicodes'
p10
(tsS'width'
p11
I1289
sS'contours'
p12
((dp13
S'points'
p14
((dp15
S'segmentType'
p16
S'curve'
p17
sS'x'
I644
sS'smooth'
p18
I1
sS'y'
S'-5'
p19
s(dp20
S'y'
S'-5'
p21
sS'x'
I712
sg18
I0
s(dp22
S'y'
I38
sS'x'
I764
sg18
I0
s(dp23
g16
S'curve'
p24
sS'x'
I793
sg18
I1
sS'y'
I117
s(dp25
g16
S'line'
p26
sS'x'
I1243
sg18
I1
sS'y'
I1324
s(dp27
S'y'
I1335
sS'x'
I1247
sg18
I0
s(dp28
S'y'
I1342
sS'x'
I1248
sg18
I0
s(dp29
g16
S'curve'
p30
sS'x'
I1248
sg18
I1
sS'y'
I1351
s(dp31
S'y'
I1395
sS'x'
I1248
sg18
I0
s(dp32
S'y'
I1427
sS'x'
I1203
sg18
I0
s(dp33
g16
S'curve'
p34
sS'x'
I1160
sg18
I1
sS'y'
I1427
s(dp35
S'y'
I1427
sS'x'
I1125
sg18
I0
s(dp36
S'y'
I1408
sS'x'
I1090
sg18
I0
s(dp37
g16
S'curve'
p38
sS'x'
I1076
sg18
I1
sS'y'
I1369
s(dp39
g16
S'line'
p40
sS'x'
I651
sg18
I0
sS'y'
I192
s(dp41
g16
S'line'
p42
sS'x'
I650
sg18
I0
sS'y'
I190
s(dp43
g16
S'line'
p44
sS'x'
I214
sg18
I1
sS'y'
I1370
s(dp45
S'y'
I1407
sS'x'
I200
sg18
I0
s(dp46
S'y'
I1427
sS'x'
I170
sg18
I0
s(dp47
g16
S'curve'
p48
sS'x'
I135
sg18
I1
sS'y'
I1427
s(dp49
S'y'
I1427
sS'x'
I90
sg18
I0
s(dp50
S'y'
I1392
sS'x'
I43
sg18
I0
s(dp51
g16
S'curve'
p52
sS'x'
I43
sg18
I1
sS'y'
I1344
s(dp53
S'y'
I1336
sS'x'
I43
sg18
I0
s(dp54
S'y'
I1326
sS'x'
I44
sg18
I0
s(dp55
g16
S'curve'
p56
sS'x'
I48
sg18
I0
sS'y'
I1318
s(dp57
g16
S'line'
p58
sS'x'
I501
sg18
I1
sS'y'
I117
s(dp59
S'y'
I35
sS'x'
I532
sg18
I0
s(dp60
S'y'
S'-5'
p61
sS'x'
I581
sg18
I0
stp62
stp63
sS'components'
p64
(tsg3
(tsssg10
(tsS'com.typemytype.robofont.guides'
p65
(tsg11
I1365
sg12
(tsg64
(tsg8
(dp66
sg7
S'V'
s."
LayerCount: 2
Fore
SplineSet
671 -11 m 0
 760 -11 821 28 864 148 c 2
 1277 1305 l 2
 1281.27464701 1317.15899595 1283.23025204 1328.74951079 1283.23025204 1339.65668472 c 0
 1283.23025204 1399.29695422 1224.75987938 1438.50610563 1167.23619475 1438.50610563 c 0
 1124.53306253 1438.50610563 1082.35164488 1416.89815832 1065 1366 c 2
 671 232 l 1
 277 1366 l 2
 259.64835512 1416.89815832 217.466937465 1438.50610563 174.821135572 1438.50610563 c 0
 117.583179075 1438.50610563 59.5086701929 1399.58105532 59.5086701929 1340.30526578 c 0
 59.5086701929 1329.20933622 61.5436412316 1317.40030266 66 1305 c 2
 479 148 l 2
 521 28 582 -11 671 -11 c 0
EndSplineSet
EndChar

StartChar: W
Encoding: 55 87 118
Width: 2095
VWidth: 0
GlyphClass: 2
Flags: HW
PickledData: "(dp1
S'b'
(dp2
sS'anchors'
p3
(tsS'lib'
p4
(dp5
sS'unicodes'
p6
(tsS'width'
p7
I2070
sS'contours'
p8
(tsS'components'
p9
(tsS'com.typemytype.robofont.layerData'
p10
(dp11
S'b'
(dp12
S'name'
p13
S'W'
sg4
(dp14
sg6
(tsg7
I2126
sg8
(tsg9
(tsg3
(tsssg13
S'W'
s."
AnchorPoint: "top" 1044 1438 basechar 0
LayerCount: 2
Fore
SplineSet
1714 123 m 2
 2033 1302 l 2
 2036.05416677 1313.33256618 2037.46754725 1324.01915351 2037.46754725 1334.02445697 c 0
 2037.46754725 1397.16784407 1981.17455854 1433.17663744 1925.74886696 1433.17663744 c 0
 1880.68610478 1433.17663744 1836.19664174 1409.37417192 1823 1357 c 2
 1535 222 l 1
 1194 1312 l 2
 1162 1414 1111 1433 1044 1433 c 0
 977 1433 925 1411 894 1312 c 2
 553 222 l 1
 265 1357 l 2
 251.803358257 1409.37417192 207.313895217 1433.17663744 162.251133041 1433.17663744 c 0
 106.825441461 1433.17663744 50.5324527475 1397.16784407 50.5324527475 1334.02445697 c 0
 50.5324527475 1324.01915351 51.9458332268 1313.33256618 55 1302 c 2
 374 123 l 2
 396.398048117 38.882885961 466.857566126 -2.12754889593 538.274710957 -2.12754889593 c 0
 610.342011762 -2.12754889593 683.384454532 39.6329732208 709 121 c 2
 1044 1175 l 1
 1379 121 l 2
 1404.84243003 38.9999816359 1476.62295226 -1.75454534325 1547.82268924 -1.75454534325 c 0
 1619.8906836 -1.75454534325 1691.36364137 40.0000183641 1714 123 c 2
EndSplineSet
EndChar

StartChar: X
Encoding: 56 88 123
Width: 1301
VWidth: 0
GlyphClass: 2
Flags: HW
PickledData: "(dp1
S'b'
(dp2
sS'anchors'
p3
(tsS'lib'
p4
(dp5
sS'unicodes'
p6
(tsS'width'
p7
I1322
sS'contours'
p8
(tsS'components'
p9
(tsS'com.typemytype.robofont.layerData'
p10
(dp11
S'b'
(dp12
S'name'
p13
S'X'
sg4
(dp14
sg6
(tsg7
I1274
sg8
((dp15
S'points'
p16
((dp17
S'segmentType'
p18
S'curve'
p19
sS'x'
I151
sS'smooth'
p20
I1
sS'y'
I0
s(dp21
S'y'
I0
sS'x'
I176
sg20
I0
s(dp22
S'y'
I12
sS'x'
I201
sg20
I0
s(dp23
g18
S'curve'
p24
sS'x'
I222
sg20
I1
sS'y'
I41
s(dp25
g18
S'line'
p26
sS'x'
I641
sg20
I0
sS'y'
I616
s(dp27
g18
S'line'
p28
sS'x'
I746
sg20
I0
sS'y'
I734
s(dp29
g18
S'line'
p30
sS'x'
I1175
sg20
I1
sS'y'
I1310
s(dp31
S'y'
I1325
sS'x'
I1186
sg20
I0
s(dp32
S'y'
I1338
sS'x'
I1190
sg20
I0
s(dp33
g18
S'curve'
p34
sS'x'
I1190
sg20
I1
sS'y'
I1353
s(dp35
S'y'
I1393
sS'x'
I1190
sg20
I0
s(dp36
S'y'
I1426
sS'x'
I1153
sg20
I0
s(dp37
g18
S'curve'
p38
sS'x'
I1110
sg20
I1
sS'y'
I1426
s(dp39
S'y'
I1426
sS'x'
I1083
sg20
I0
s(dp40
S'y'
I1414
sS'x'
I1058
sg20
I0
s(dp41
g18
S'curve'
p42
sS'x'
I1037
sg20
I1
sS'y'
I1385
s(dp43
g18
S'line'
p44
sS'x'
I648
sg20
I0
sS'y'
I844
s(dp45
g18
S'line'
p46
sS'x'
I542
sg20
I0
sS'y'
I732
s(dp47
g18
S'line'
p48
sS'x'
I84
sg20
I1
sS'y'
I121
s(dp49
S'y'
I106
sS'x'
I73
sg20
I0
s(dp50
S'y'
I91
sS'x'
I68
sg20
I0
s(dp51
g18
S'curve'
p52
sS'x'
I68
sg20
I1
sS'y'
I76
s(dp53
S'y'
I35
sS'x'
I68
sg20
I0
s(dp54
S'y'
I0
sS'x'
I108
sg20
I0
stp55
s(dp56
g16
((dp57
g18
S'curve'
p58
sS'x'
I1104
sg20
I1
sS'y'
I0
s(dp59
S'y'
I0
sS'x'
I1151
sg20
I0
s(dp60
S'y'
I40
sS'x'
I1200
sg20
I0
s(dp61
g18
S'curve'
p62
sS'x'
I1200
sg20
I1
sS'y'
I85
s(dp63
S'y'
I98
sS'x'
I1200
sg20
I0
s(dp64
S'y'
I113
sS'x'
I1195
sg20
I0
s(dp65
g18
S'curve'
p66
sS'x'
I1186
sg20
I0
sS'y'
I126
s(dp67
g18
S'line'
p68
sS'x'
I272
sg20
I0
sS'y'
I1385
s(dp69
S'y'
I1414
sS'x'
I252
sg20
I0
s(dp70
S'y'
I1426
sS'x'
I225
sg20
I0
s(dp71
g18
S'curve'
p72
sS'x'
I197
sg20
I1
sS'y'
I1426
s(dp73
S'y'
I1426
sS'x'
I149
sg20
I0
s(dp74
S'y'
I1388
sS'x'
I100
sg20
I0
s(dp75
g18
S'curve'
p76
sS'x'
I100
sg20
I1
sS'y'
I1343
s(dp77
S'y'
I1328
sS'x'
I100
sg20
I0
s(dp78
S'y'
I1315
sS'x'
I105
sg20
I0
s(dp79
g18
S'curve'
p80
sS'x'
I114
sg20
I0
sS'y'
I1303
s(dp81
g18
S'line'
p82
sS'x'
I1033
sg20
I0
sS'y'
I40
s(dp83
S'y'
I13
sS'x'
I1052
sg20
I0
s(dp84
S'y'
I0
sS'x'
I1076
sg20
I0
stp85
stp86
sg9
(tsg3
(tsssg13
S'X'
s."
LayerCount: 2
Fore
SplineSet
1032 39 m 2
 1054.77698586 7.8618421091 1086.19910438 -5.15478773389 1117.35075867 -5.15478773389 c 0
 1174.64336343 -5.15478773389 1231.02112909 38.8736687759 1231.02112909 95.1735835329 c 0
 1231.02112909 114.436488642 1224.42125035 135.135955407 1209 156 c 2
 789.53 723.275 l 1
 1219 1293 l 2
 1233.92122495 1312.57199636 1240.35580668 1332.59461094 1240.35580668 1351.27047075 c 0
 1240.35580668 1399.08257428 1198.18277581 1438.06788338 1148.26870246 1438.06788338 c 0
 1117.06716774 1438.06788338 1082.84077261 1422.83413181 1054 1385 c 2
 671.606 882.751 l 1
 298 1388 l 2
 272.506683325 1421.89770679 241.127218886 1435.62554724 210.809320609 1435.62554724 c 0
 151.939860701 1435.62554724 97.0728790995 1383.86675391 97.0728790995 1327.51150732 c 0
 97.0728790995 1309.29013928 102.808815412 1290.58824612 116 1273 c 2
 527.487 718.66 l 1
 89 152 l 2
 72.1490576741 130.192898166 64.966315665 108.228589824 64.966315665 87.9302638244 c 0
 64.966315665 36.2555170973 111.517049825 -4.62214112438 163.611245756 -4.62214112438 c 0
 194.274455642 -4.62214112438 226.858268559 9.54044491925 253 44 c 2
 644.19 561.442 l 1
 1032 39 l 2
EndSplineSet
EndChar

StartChar: Y
Encoding: 57 89 124
Width: 1291
VWidth: 0
GlyphClass: 2
Flags: HW
PickledData: "(dp1
S'b'
(dp2
sS'anchors'
p3
(tsS'com.typemytype.robofont.layerData'
p4
(dp5
S'b'
(dp6
S'name'
p7
S'Y'
sS'lib'
p8
(dp9
sS'unicodes'
p10
(tsS'width'
p11
I1278
sS'contours'
p12
((dp13
S'points'
p14
((dp15
S'segmentType'
p16
S'curve'
p17
sS'x'
I641
sS'smooth'
p18
I1
sS'y'
I0
s(dp19
S'y'
I0
sS'x'
I685
sg18
I0
s(dp20
S'y'
I29
sS'x'
I730
sg18
I0
s(dp21
g16
S'curve'
p22
sS'x'
I730
sg18
I1
sS'y'
I85
s(dp23
g16
S'line'
p24
sS'x'
I730
sg18
I0
sS'y'
I1285
s(dp25
g16
S'line'
p26
sS'x'
I1115
sg18
I1
sS'y'
I1285
s(dp27
S'y'
I1285
sS'x'
I1164
sg18
I0
s(dp28
S'y'
I1319
sS'x'
I1190
sg18
I0
s(dp29
g16
S'curve'
p30
sS'x'
I1190
sg18
I1
sS'y'
I1355
s(dp31
S'y'
I1392
sS'x'
I1190
sg18
I0
s(dp32
S'y'
I1426
sS'x'
I1166
sg18
I0
s(dp33
g16
S'curve'
p34
sS'x'
I1115
sg18
I1
sS'y'
I1426
s(dp35
g16
S'line'
p36
sS'x'
I160
sg18
I1
sS'y'
I1426
s(dp37
S'y'
I1426
sS'x'
I111
sg18
I0
s(dp38
S'y'
I1392
sS'x'
I86
sg18
I0
s(dp39
g16
S'curve'
p40
sS'x'
I86
sg18
I1
sS'y'
I1355
s(dp41
S'y'
I1319
sS'x'
I86
sg18
I0
s(dp42
S'y'
I1285
sS'x'
I111
sg18
I0
s(dp43
g16
S'curve'
p44
sS'x'
I160
sg18
I1
sS'y'
I1285
s(dp45
g16
S'line'
p46
sS'x'
I552
sg18
I0
sS'y'
I1285
s(dp47
g16
S'line'
p48
sS'x'
I552
sg18
I1
sS'y'
I85
s(dp49
S'y'
I29
sS'x'
I552
sg18
I0
s(dp50
S'y'
I0
sS'x'
I596
sg18
I0
stp51
stp52
sS'components'
p53
(tsg3
(tsssg10
(tsS'com.typemytype.robofont.guides'
p54
(tsg11
I1321
sg12
(tsg53
(tsg8
(dp55
sg7
S'Y'
s."
AnchorPoint: "top" 663 1438 basechar 0
LayerCount: 2
Fore
SplineSet
531 110 m 2
 531 37.1254284424 587.555152083 0.874677836954 644.207477105 0.874677836954 c 0
 701.054817007 0.874677836954 758 37.3754306565 758 110 c 2
 758 599 l 1
 1204 1295 l 2
 1215.67737155 1313.51697489 1220.73149422 1331.36605914 1220.73149422 1347.7441201 c 0
 1220.73149422 1397.55855586 1173.97615166 1433.76465595 1124.61601204 1433.76465595 c 0
 1092.9219306 1433.76465595 1060.15391545 1418.83721617 1038 1383 c 2
 657 768 l 1
 282 1374 l 2
 257.183193406 1414.20950942 221.906102836 1430.43931123 187.359592251 1430.43931123 c 0
 128.875014947 1430.43931123 72.4842709612 1383.92489739 72.4842709612 1328.4978084 c 0
 72.4842709612 1312.44176028 77.2162303208 1295.63781608 88 1279 c 2
 531 591 l 1
 531 110 l 2
EndSplineSet
EndChar

StartChar: Z
Encoding: 58 90 129
Width: 1182
VWidth: 0
GlyphClass: 2
Flags: HW
PickledData: "(dp1
S'b'
(dp2
sS'anchors'
p3
(tsS'lib'
p4
(dp5
sS'unicodes'
p6
(tsS'width'
p7
I1222
sS'contours'
p8
(tsS'components'
p9
(tsS'com.typemytype.robofont.layerData'
p10
(dp11
S'b'
(dp12
S'name'
p13
S'Z'
sg4
(dp14
sg6
(tsg7
I1165
sg8
((dp15
S'points'
p16
((dp17
S'segmentType'
p18
S'curve'
p19
sS'x'
I266
sS'smooth'
p20
I1
sS'y'
I0
s(dp21
g18
S'line'
p22
sS'x'
I1035
sg20
I1
sS'y'
I0
s(dp23
S'y'
I0
sS'x'
I1084
sg20
I0
s(dp24
S'y'
I34
sS'x'
I1108
sg20
I0
s(dp25
g18
S'curve'
p26
sS'x'
I1108
sg20
I1
sS'y'
I71
s(dp27
S'y'
I107
sS'x'
I1108
sg20
I0
s(dp28
S'y'
I141
sS'x'
I1084
sg20
I0
s(dp29
g18
S'curve'
p30
sS'x'
I1035
sg20
I1
sS'y'
I141
s(dp31
g18
S'line'
p32
sS'x'
I356
sg20
I0
sS'y'
I141
s(dp33
g18
S'line'
p34
sS'x'
I356
sg20
I0
sS'y'
I665
s(dp35
g18
S'line'
p36
sS'x'
I975
sg20
I1
sS'y'
I665
s(dp37
S'y'
I665
sS'x'
I1024
sg20
I0
s(dp38
S'y'
I698
sS'x'
I1049
sg20
I0
s(dp39
g18
S'curve'
p40
sS'x'
I1049
sg20
I1
sS'y'
I734
s(dp41
S'y'
I770
sS'x'
I1049
sg20
I0
s(dp42
S'y'
I803
sS'x'
I1026
sg20
I0
s(dp43
g18
S'curve'
p44
sS'x'
I975
sg20
I1
sS'y'
I803
s(dp45
g18
S'line'
p46
sS'x'
I356
sg20
I0
sS'y'
I803
s(dp47
g18
S'line'
p48
sS'x'
I356
sg20
I0
sS'y'
I1285
s(dp49
g18
S'line'
p50
sS'x'
I1007
sg20
I1
sS'y'
I1285
s(dp51
S'y'
I1285
sS'x'
I1056
sg20
I0
s(dp52
S'y'
I1319
sS'x'
I1080
sg20
I0
s(dp53
g18
S'curve'
p54
sS'x'
I1080
sg20
I1
sS'y'
I1356
s(dp55
S'y'
I1392
sS'x'
I1080
sg20
I0
s(dp56
S'y'
I1426
sS'x'
I1056
sg20
I0
s(dp57
g18
S'curve'
p58
sS'x'
I1007
sg20
I1
sS'y'
I1426
s(dp59
g18
S'line'
p60
sS'x'
I261
sg20
I1
sS'y'
I1426
s(dp61
S'y'
I1426
sS'x'
I213
sg20
I0
s(dp62
S'y'
I1383
sS'x'
I178
sg20
I0
s(dp63
g18
S'curve'
p64
sS'x'
I178
sg20
I1
sS'y'
I1340
s(dp65
g18
S'line'
p66
sS'x'
I178
sg20
I1
sS'y'
I86
s(dp67
S'y'
I41
sS'x'
I178
sg20
I0
s(dp68
S'y'
I0
sS'x'
I222
sg20
I0
stp69
stp70
sg9
(tsg3
(tsssg13
S'Z'
s."
AnchorPoint: "top" 642 1438 basechar 0
LayerCount: 2
Fore
SplineSet
208 0 m 2
 1038 0 l 2
 1097 0 1126 47 1126 91 c 0
 1126 134 1097 180 1038 180 c 2
 356 180 l 1
 1108 1261 l 2
 1126 1287 1133 1312 1133 1337 c 0
 1133 1391 1093 1433 1029 1433 c 2
 187 1433 l 2
 128 1433 100 1387 100 1343 c 0
 100 1299 129 1252 187 1252 c 2
 862 1252 l 1
 112 172 l 2
 97 150 89 126 89 101 c 0
 89 48 125 0 208 0 c 2
EndSplineSet
EndChar

StartChar: a
Encoding: 65 97 133
Width: 1056
VWidth: 0
GlyphClass: 2
Flags: HW
PickledData: "(dp1
S'b'
(dp2
sS'anchors'
p3
(tsS'lib'
p4
(dp5
sS'unicodes'
p6
(tsS'width'
p7
I1101
sS'contours'
p8
(tsS'components'
p9
(tsS'com.typemytype.robofont.layerData'
p10
(dp11
S'b'
(dp12
S'name'
p13
S'a'
sg4
(dp14
sg6
(tsg7
I1040
sg8
(tsg9
(tsg3
(tsssg13
S'a'
s."
AnchorPoint: "top" 534 997 basechar 0
AnchorPoint: "ogonek" 803 20 basechar 0
LayerCount: 2
Fore
SplineSet
421 -16 m 0
 598 -16 678 81 720 167 c 1
 720 93 l 2
 720 30.4999685099 768.71745272 -0.505952131023 817.821527539 -0.505952131023 c 0
 867.711217678 -0.505952131023 918 31.5000314901 918 95 c 2
 918 659 l 2
 918 912 754 1013 522 1013 c 0
 358 1013 241 976 154 929 c 0
 130.61681626 916.992419161 120.912949469 897.096765045 120.912949469 876.475158172 c 0
 120.912949469 839.331047357 152.396213552 799.831652526 192.130629232 799.831652526 c 0
 200.148101915 799.831652526 208.501510085 801.439821792 217 805 c 0
 288 835 388 878 515 878 c 0
 640 878 717 819 717 676 c 2
 717 578 l 1
 253 578 69 546 69 272 c 0
 69 81 222 -16 421 -16 c 0
441 116 m 0
 337.659631269 116 259.990492849 162.405685563 259.990492849 279.744371833 c 0
 259.990492849 438.309137262 353.739057507 463 716 463 c 1
 716 435 l 2
 716 243 580 116 441 116 c 0
EndSplineSet
EndChar

StartChar: acute
Encoding: 115 180 137
Width: 569
VWidth: 0
GlyphClass: 4
Flags: HW
AnchorPoint: "top" 116 1040 mark 0
LayerCount: 2
Fore
SplineSet
101 1202 m 0
 116 1202 130 1208 145 1220 c 2
 459 1468 l 2
 479 1484 488 1504 488 1524 c 0
 488 1575 435 1623 385 1623 c 0
 359 1623 338 1608 319 1584 c 2
 69 1286 l 2
 59 1273 54 1260 54 1248 c 0
 54 1221 74 1202 101 1202 c 0
EndSplineSet
EndChar

StartChar: ae
Encoding: 165 230 139
Width: 1719
VWidth: 0
GlyphClass: 2
Flags: HW
PickledData: "(dp1
S'com.typemytype.robofont.layerData'
p2
(dp3
S'b'
(dp4
S'name'
p5
S'ae'
p6
sS'lib'
p7
(dp8
sS'unicodes'
p9
(tsS'width'
p10
I1734
sS'contours'
p11
(tsS'components'
p12
(tsS'anchors'
p13
(tsss."
AnchorPoint: "top" 865 1003 basechar 0
LayerCount: 2
Fore
SplineSet
423 -26 m 0
 581 -26 746 36 821 188 c 1
 890 60 1005 -26 1170 -26 c 0
 1370 -26 1576 65 1576 166 c 0
 1576 198 1554 226 1521 226 c 0
 1510 226 1498 223 1484 214 c 0
 1415 172 1320 124 1215 124 c 0
 1010 124 936 270 933 460 c 1
 1550 460 l 2
 1596 460 1617 494 1617 528 c 0
 1611 810 1479 1024 1186 1024 c 0
 1039 1024 927 956 852 853 c 1
 798 971 689 1023 530 1023 c 0
 354 1023 219 978 148 888 c 0
 137 875 132 862 132 848 c 0
 132 814 160 783 196 783 c 0
 207 783 217 786 228 792 c 0
 308 836 385 873 521 873 c 0
 648 873 732 827 732 684 c 2
 732 610 l 1
 699 611 656 612 625 612 c 0
 287 612 66 521 66 275 c 0
 66 85 214 -26 423 -26 c 0
461 107 m 1
 349 110 259 166 259 285 c 0
 259 497 549 481 731 485 c 1
 731 399 l 1
 724 207 610 110 461 107 c 1
934 584 m 1
 946 750 1031 887 1188 887 c 0
 1345 887 1420 764 1432 584 c 1
 934 584 l 1
EndSplineSet
EndChar

StartChar: ampersand
Encoding: 6 38 144
Width: 1532
VWidth: 0
GlyphClass: 2
Flags: HW
LayerCount: 2
Fore
SplineSet
647 -28 m 0
 849 -28 985 51 1099 176 c 1
 1247 17 l 2
 1266 -3 1286 -12 1307 -12 c 0
 1358 -12 1416 42 1416 94 c 0
 1416 113 1408 128 1392 147 c 1
 1240 309 l 1
 1355.83984403 498.737675558 1399.01601571 744.97455692 1399.01601571 854.661468416 c 0
 1399.01601571 905.659649937 1353.51864737 936 1309 936 c 0
 1269 936 1228 918 1221 870 c 1
 1216 726 1173 569 1110 440 c 1
 735 838 l 1
 877 941 998 1061 998 1231 c 0
 998 1418 861 1505 654 1506 c 0
 451 1506 261 1412 261 1223 c 0
 261 1079 354 967 454 862 c 1
 263 759 93 633 93 403 c 0
 93 128 320 -28 647 -28 c 0
648 137 m 0
 474 137 307 240 307 429 c 0
 307 549 420 648 576 730 c 1
 984 291 l 1
 903 201 792 137 648 137 c 0
614 958 m 1
 545 1027 461 1132 461 1225 c 0
 461 1323 547 1363 636 1363 c 0
 720 1363 806 1317 806 1225 c 0
 806 1113 696 1034 614 958 c 1
EndSplineSet
EndChar

StartChar: uni02BC
Encoding: 65536 700 146
Width: 600
VWidth: 0
GlyphClass: 4
Flags: HW
AnchorPoint: "top.2" 246 27 mark 0
LayerCount: 2
Fore
SplineSet
180 102 m 2
 245 102 l 2
 246.104067954 101.961928691 247.187843965 101.942699902 248.251935029 101.942699902 c 0
 275.13779099 101.942699902 289.456855705 114.218281881 301 145 c 2
 467 625 l 2
 468.488214952 629.167001866 469.799247204 635.548787474 469.799247204 642.536872577 c 0
 469.799247204 659.02686466 462.498994403 678.892928971 433 681 c 1
 313 681 l 1
 281 680 248 672 240 625 c 2
 156 145 l 2
 155.483602221 141.901613323 154.967204441 137.603226646 154.967204441 132.913863157 c 0
 154.967204441 119.441399949 159.229568913 102.74180111 180 102 c 2
EndSplineSet
EndChar

StartChar: approxequal
Encoding: 477 8776 147
Width: 1190
VWidth: 0
GlyphClass: 2
Flags: HW
LayerCount: 2
Fore
SplineSet
804 289 m 0
 900 289 981 355 981 480 c 0
 981 519 944 546 911 546 c 0
 822 546 848 451 796 451 c 0
 735 451 465 546 350 546 c 0
 278 546 168 494 168 355 c 0
 168 319 197 292 234 292 c 0
 249 292 265 293 277 303 c 0
 331 343 320 385 370 385 c 0
 437 380 699 289 804 289 c 0
804 672 m 0
 900 672 981 737 981 863 c 0
 981 902 944 929 911 929 c 0
 822 929 848 833 796 833 c 0
 735 833 465 929 350 929 c 0
 278 929 168 876 168 737 c 0
 168 702 197 675 234 675 c 0
 249 675 265 676 277 685 c 0
 331 726 320 768 370 768 c 0
 437 764 699 672 804 672 c 0
EndSplineSet
EndChar

StartChar: asciicircum
Encoding: 62 94 149
Width: 1325
VWidth: 0
GlyphClass: 2
Flags: HW
LayerCount: 2
Fore
SplineSet
258 504 m 0
 290 504 318 525 336 565 c 1
 666 1230 l 1
 995 565 l 2
 1014 527 1039 505 1072 505 c 0
 1114 505 1152 536 1152 579 c 0
 1152 592 1146 609 1139 624 c 2
 772 1343 l 2
 746 1393 711 1420 666 1420 c 0
 620 1420 584 1389 561 1343 c 2
 192 624 l 2
 185 609 179 592 179 579 c 0
 179 533 217 504 258 504 c 0
EndSplineSet
EndChar

StartChar: asciitilde
Encoding: 94 126 150
Width: 1326
VWidth: 0
GlyphClass: 2
Flags: HW
LayerCount: 2
Fore
SplineSet
773 1168 m 0
 870 1168 923 1219 948 1307 c 0
 949.141917105 1311.97549596 949.678417397 1316.83123914 949.678417397 1321.51622047 c 0
 949.678417397 1353.39201226 924.842729303 1377.36289097 896.877498172 1377.36289097 c 0
 878.561281246 1377.36289097 858.902560102 1367.07991822 844 1342 c 0
 828 1316 807 1301 781 1301 c 0
 716 1301 624 1378 521 1378 c 0
 431 1378 376 1331 345 1244 c 0
 342.262073661 1236.24254204 341.020792589 1229.01867065 341.020792589 1222.38480351 c 0
 341.020792589 1191.82205435 367.367201498 1173.78224895 395.088961345 1173.78224895 c 0
 414.095396791 1173.78224895 433.748339314 1182.26216601 446 1201 c 0
 467 1233 492 1246 522 1246 c 0
 591 1246 684 1168 773 1168 c 0
EndSplineSet
EndChar

StartChar: asterisk
Encoding: 10 42 151
Width: 1064
VWidth: 0
GlyphClass: 2
Flags: HW
LayerCount: 2
Fore
SplineSet
425 790 m 2
 530 981 l 1
 637 790 l 2
 651.520017503 763.169532874 672.616046324 752.081638296 693.1802674 752.081638296 c 0
 726.653896081 752.081638296 758.718444546 781.460174177 758.718444546 820.141983546 c 0
 758.718444546 832.981092158 755.185951517 846.845125501 747 861 c 2
 637 1038 l 1
 864 1031 l 1
 908.5 1031 930.75 1063 930.75 1095 c 0
 930.75 1127 908.5 1159 864 1159 c 1
 639 1151 l 1
 752 1335 l 2
 759.166666667 1347.16666667 762.305555556 1359.55555556 762.305555556 1371.33796296 c 0
 762.305555556 1407.97160377 731.961890386 1438.74238303 697.991432655 1438.74238303 c 0
 677.332625598 1438.74238303 655.332504726 1427.36228046 638 1399 c 1
 530 1204 l 1
 422 1402 l 2
 407.693697526 1427.50253919 386.90681402 1438.01268943 366.498077179 1438.01268943 c 0
 332.400465333 1438.01268943 299.358396529 1408.67508842 299.358396529 1370.90336157 c 0
 299.358396529 1358.59045384 302.869590318 1345.38129927 311 1332 c 2
 422 1151 l 1
 200 1159 l 1
 155.625703205 1159 133.624470347 1127.18053129 133.624470347 1095.27117923 c 0
 133.624470347 1063.18104197 155.87570919 1031 200 1031 c 1
 425 1038 l 1
 311 855 l 2
 303.381006279 842.743357927 300.069055684 830.376982272 300.069055684 818.668775489 c 0
 300.069055684 781.897959013 332.736083932 751.618912432 367.24520792 751.618912432 c 0
 388.088908478 751.618912432 409.604647267 762.665394127 425 790 c 2
EndSplineSet
EndChar

StartChar: at
Encoding: 32 64 152
Width: 1638
VWidth: 0
GlyphClass: 2
Flags: HW
LayerCount: 2
Fore
SplineSet
808 -26 m 0
 911 -26 1018 -10 1128 23 c 0
 1155 31 1168 54 1168 77 c 0
 1168 106 1147 135 1109 135 c 0
 1100 135 1091 134 1083 131 c 0
 996 104 909 92 825 92 c 0
 489 92 199 302 199 724 c 0
 199 1148 564 1389 895 1389 c 0
 1166 1389 1413 1226 1413 866 c 0
 1413 639 1273 422 1128 422 c 0
 1089 422 1075 441 1075 473 c 0
 1075 501 1085 538 1099 584 c 2
 1244 1057 l 2
 1246 1066 1247 1074 1247 1082 c 0
 1247 1121 1215 1141 1181 1141 c 0
 1147 1141 1116 1123 1104 1086 c 2
 1095 1057 l 1
 1050 1145 959 1188 863 1188 c 0
 571 1188 381 886 381 618 c 0
 381 444 491 299 676 299 c 0
 784 299 872 344 935 426 c 1
 946 340 1026 301 1097 301 c 0
 1305 301 1555 549 1555 874 c 0
 1555 1309 1235 1511 892 1511 c 0
 490 1511 54 1235 54 735 c 0
 54 257 378 -26 808 -26 c 0
715 430 m 0
 600.222357127 430 552.947973537 514.891312643 552.947973537 634.478563046 c 0
 552.947973537 819.499871996 679.198865295 1053 867 1053 c 0
 1001 1053 1056 927 1056 927 c 1
 964 610 l 1
 932 506 824 430 715 430 c 0
EndSplineSet
EndChar

StartChar: b
Encoding: 66 98 154
Width: 1199
VWidth: 0
GlyphClass: 2
Flags: HW
PickledData: "(dp1
S'b'
(dp2
sS'anchors'
p3
(tsS'lib'
p4
(dp5
sS'unicodes'
p6
(tsS'width'
p7
I1203
sS'contours'
p8
(tsS'components'
p9
(tsS'com.typemytype.robofont.layerData'
p10
(dp11
S'b'
(dp12
S'name'
p13
S'b'
sg4
(dp14
sg6
(tsg7
I1181
sg8
((dp15
S'points'
p16
((dp17
S'segmentType'
p18
S'curve'
p19
sS'x'
I238
sS'smooth'
p20
I1
sS'y'
I1425
s(dp21
S'y'
I1425
sS'x'
I198
sg20
I0
s(dp22
S'y'
I1400
sS'x'
I158
sg20
I0
s(dp23
g18
S'curve'
p24
sS'x'
I158
sg20
I1
sS'y'
I1351
s(dp25
g18
S'line'
p26
sS'x'
I158
sg20
I1
sS'y'
I76
s(dp27
S'y'
I27
sS'x'
I158
sg20
I0
s(dp28
S'y'
I3
sS'x'
I197
sg20
I0
s(dp29
g18
S'curve'
p30
sS'x'
I237
sg20
I1
sS'y'
I3
s(dp31
S'y'
I3
sS'x'
I297
sg20
I0
s(dp32
S'y'
I38
sS'x'
I318
sg20
I0
s(dp33
g18
S'curve'
p34
sS'x'
I318
sg20
I1
sS'y'
I76
s(dp35
g18
S'line'
p36
sS'x'
I318
sg20
I0
sS'y'
I183
s(dp37
S'y'
I46
sS'x'
I384
sg20
I0
s(dp38
S'y'
S'-20'
p39
sS'x'
I516
sg20
I0
s(dp40
g18
S'curve'
p41
sS'x'
I666
sg20
I1
sS'y'
S'-20'
p42
s(dp43
S'y'
S'-20'
p44
sS'x'
I957
sg20
I0
s(dp45
S'y'
I225
sS'x'
I1095
sg20
I0
s(dp46
g18
S'curve'
p47
sS'x'
I1095
sg20
I1
sS'y'
I502
s(dp48
S'y'
I777
sS'x'
I1095
sg20
I0
s(dp49
S'y'
I1013
sS'x'
I939
sg20
I0
s(dp50
g18
S'curve'
p51
sS'x'
I650
sg20
I1
sS'y'
I1013
s(dp52
S'y'
I1013
sS'x'
I503
sg20
I0
s(dp53
S'y'
I942
sS'x'
I376
sg20
I0
s(dp54
g18
S'curve'
p55
sS'x'
I318
sg20
I0
sS'y'
I814
s(dp56
g18
S'line'
p57
sS'x'
I318
sg20
I1
sS'y'
I1351
s(dp58
S'y'
I1400
sS'x'
I318
sg20
I0
s(dp59
S'y'
I1425
sS'x'
I278
sg20
I0
stp60
s(dp61
g16
((dp62
g18
S'curve'
p63
sS'x'
I632
sg20
I1
sS'y'
I903
s(dp64
S'y'
I903
sS'x'
I859
sg20
I0
s(dp65
S'y'
I685
sS'x'
I935
sg20
I0
s(dp66
g18
S'curve'
p67
sS'x'
I935
sg20
I1
sS'y'
I496
s(dp68
S'y'
I316
sS'x'
I935
sg20
I0
s(dp69
S'y'
I93
sS'x'
I869
sg20
I0
s(dp70
g18
S'curve'
p71
sS'x'
I645
sg20
I0
sS'y'
I90
s(dp72
S'y'
I90
sS'x'
I395
sg20
I0
s(dp73
S'y'
I279
sS'x'
I319
sg20
I0
s(dp74
g18
S'curve'
p75
sS'x'
I319
sg20
I1
sS'y'
I501
s(dp76
S'y'
I701
sS'x'
I319
sg20
I0
s(dp77
S'y'
I903
sS'x'
I407
sg20
I0
stp78
stp79
sg9
(tsg3
(tsssg13
S'b'
s."
LayerCount: 2
Fore
SplineSet
685 -16 m 0
 970 -16 1116 229 1116 505 c 0
 1116 797 951 1013 670 1013 c 0
 524 1013 411 953 347 838 c 1
 347 1338 l 2
 347 1401 297 1432 246 1432 c 0
 196 1432 146 1401 146 1338 c 2
 146 97 l 2
 146 34 197 1 247 1 c 0
 310 1 347 34 347 97 c 2
 347 168 l 1
 415 42 536 -16 685 -16 c 0
644 121 m 0
 418 121 348 278 348 502 c 0
 348 689 427 876 637 876 c 0
 848 876 915 675 915 502 c 0
 915 338 854 123 644 121 c 0
EndSplineSet
EndChar

StartChar: backslash
Encoding: 60 92 155
Width: 609
VWidth: 0
GlyphClass: 2
Flags: HW
LayerCount: 2
Fore
SplineSet
545 -96 m 0
 585 -96 623 -69 623 -24 c 0
 623 -15 622 -5 619 6 c 2
 141 1446 l 2
 128 1484 96 1501 64 1501 c 0
 25 1501 -15 1474 -15 1428 c 0
 -15 1419 -13 1409 -9 1397 c 2
 471 -42 l 2
 484 -80 514 -96 545 -96 c 0
EndSplineSet
EndChar

StartChar: bar
Encoding: 92 124 156
Width: 455
VWidth: 0
GlyphClass: 2
Flags: HW
LayerCount: 2
Fore
SplineSet
227 -396 m 0
 266 -396 305 -370 305 -318 c 2
 305 1405 l 2
 305 1457 267 1482 228 1482 c 0
 189 1482 150 1457 150 1405 c 2
 150 -318 l 2
 150 -370 188 -396 227 -396 c 0
EndSplineSet
EndChar

StartChar: braceleft
Encoding: 91 123 157
Width: 661
VWidth: 0
GlyphClass: 2
Flags: HW
LayerCount: 2
Fore
SplineSet
442 -218 m 2
 569 -218 l 2
 618 -218 639 -184 641 -145 c 0
 641 -99 617 -65 570 -65 c 2
 517 -65 l 2
 448 -65 430 -4 430 101 c 2
 430 361 l 2
 430 545 309 615 276 628 c 1
 313 643 430 688 430 904 c 2
 430 1157 l 2
 430 1265 449 1325 516 1325 c 2
 566 1325 l 2
 615 1325 640 1359 640 1402 c 0
 640 1451 610 1479 566 1479 c 2
 442 1479 l 2
 324 1479 231 1375 231 1245 c 2
 231 942 l 2
 231 799 207 721 93 709 c 0
 38 707 12 671 12 628 c 0
 12 581 43 548 93 547 c 1
 210 535 231 454 231 317 c 2
 231 13 l 2
 231 -129 337 -218 442 -218 c 2
EndSplineSet
EndChar

StartChar: braceright
Encoding: 93 125 158
Width: 661
VWidth: 0
GlyphClass: 2
Flags: HW
LayerCount: 2
Fore
SplineSet
90 -218 m 2
 218 -218 l 2
 331 -218 427 -119 427 16 c 2
 427 317 l 2
 427 458 451 536 570 547 c 1
 620 547 647 587 647 628 c 0
 647 676 614 708 566 709 c 0
 449 721 427 802 427 942 c 2
 427 1248 l 2
 427 1389 321 1479 218 1479 c 2
 90 1479 l 2
 41 1479 18 1443 18 1403 c 0
 18 1356 47 1325 93 1325 c 2
 143 1325 l 2
 210 1325 228 1261 228 1160 c 2
 228 898 l 2
 228 715 358 653 382 628 c 1
 345 612 228 542 228 361 c 2
 228 95 l 2
 228 -8 208 -65 145 -65 c 2
 90 -65 l 2
 40 -65 18 -102 18 -142 c 0
 18 -186 44 -218 90 -218 c 2
EndSplineSet
EndChar

StartChar: bracketleft
Encoding: 59 91 159
Width: 657
VWidth: 0
GlyphClass: 2
Flags: HW
LayerCount: 2
Fore
SplineSet
271 -212 m 2
 477 -212 l 1
 527 -210 552 -173 552 -135 c 0
 552 -98 527 -61 477 -61 c 2
 368 -61 l 1
 368 1283 l 1
 477 1283 l 2
 526 1283 552 1321 552 1358 c 0
 552 1397 527 1433 477 1433 c 2
 271 1433 l 2
 214 1433 172 1388 172 1335 c 2
 172 -115 l 2
 172 -168 214 -212 271 -212 c 2
EndSplineSet
EndChar

StartChar: bracketright
Encoding: 61 93 160
Width: 657
VWidth: 0
GlyphClass: 2
Flags: HW
LayerCount: 2
Fore
SplineSet
179 -212 m 1
 386 -212 l 2
 441 -212 485 -168 485 -115 c 2
 485 1335 l 2
 485 1388 441 1433 386 1433 c 2
 179 1433 l 2
 129 1433 105 1397 105 1358 c 0
 105 1321 130 1283 179 1283 c 2
 288 1283 l 1
 288 -61 l 1
 179 -61 l 2
 130 -61 105 -98 105 -135 c 0
 105 -173 129 -210 179 -212 c 1
EndSplineSet
EndChar

StartChar: breve
Encoding: 401 728 161
Width: 569
VWidth: 0
GlyphClass: 4
Flags: HW
AnchorPoint: "top" 285 1040 mark 0
LayerCount: 2
Fore
SplineSet
285 1231 m 0
 418 1231 520 1290 565 1393 c 0
 571 1405 572 1415 573 1425 c 0
 573 1460 544 1481 513 1481 c 0
 489 1481 468 1470 453 1447 c 0
 411 1387 370 1365 285 1365 c 0
 199 1365 158 1387 117 1447 c 0
 103 1470 80 1481 57 1481 c 0
 26 1481 -3 1460 -3 1425 c 0
 -3 1415 0 1404 5 1393 c 0
 50 1290 152 1231 285 1231 c 0
EndSplineSet
EndChar

StartChar: uni0311
Encoding: 409 785 162
Width: 569
VWidth: 0
GlyphClass: 4
Flags: HW
AnchorPoint: "top" 286 1040 mark 0
LayerCount: 2
Fore
SplineSet
47 1259 m 0
 68 1259 85 1268 99 1288 c 0
 145 1353 190 1377 285 1377 c 0
 380 1377 423 1353 471 1288 c 0
 485 1268 502 1259 523 1259 c 0
 552 1259 576 1277 576 1307 c 0
 576 1315 574 1324 570 1334 c 0
 524 1437 422 1498 285 1498 c 0
 148 1498 46 1437 0 1334 c 0
 -4 1324 -6 1315 -6 1307 c 0
 -6 1277 18 1259 47 1259 c 0
EndSplineSet
EndChar

StartChar: brokenbar
Encoding: 101 166 163
Width: 455
VWidth: 0
GlyphClass: 2
Flags: HW
LayerCount: 2
Fore
SplineSet
221 -74 m 0
 268 -74 299 -39 299 11 c 2
 299 563 l 2
 299 618 267 649 222 649 c 0
 181 649 145 620 145 572 c 2
 145 11 l 2
 145 -43 177 -74 221 -74 c 0
223 827 m 0
 269 827 300 861 300 912 c 2
 300 1451 l 2
 300 1504 268 1536 224 1536 c 0
 182 1536 146 1509 146 1458 c 2
 146 912 l 2
 146 857 178 827 223 827 c 0
EndSplineSet
EndChar

StartChar: bullet
Encoding: 454 8226 164
Width: 1024
VWidth: 0
GlyphClass: 2
Flags: HW
LayerCount: 2
Fore
SplineSet
511 358 m 0
 716 358 882 521 882 715 c 0
 882 913 716 1073 511 1073 c 0
 308 1073 142 913 142 715 c 0
 142 521 308 358 511 358 c 0
EndSplineSet
EndChar

StartChar: c
Encoding: 67 99 165
Width: 962
VWidth: 0
GlyphClass: 2
Flags: HW
PickledData: "(dp1
S'b'
(dp2
sS'anchors'
p3
(tsS'lib'
p4
(dp5
sS'unicodes'
p6
(tsS'width'
p7
I992
sS'contours'
p8
(tsS'components'
p9
(tsS'com.typemytype.robofont.layerData'
p10
(dp11
S'b'
(dp12
S'name'
p13
S'c'
sg4
(dp14
sg6
(tsg7
F956.14099999999996
sg8
(tsg9
(tsg3
(tsssg13
S'c'
s."
AnchorPoint: "top" 571 1008 basechar 0
AnchorPoint: "bot" 529 4 basechar 0
LayerCount: 2
Fore
SplineSet
565 -16 m 0
 716 -16 816 27 870 72 c 0
 894.970576373 93.0118264603 905.196771452 116.249219908 905.196771452 136.939846155 c 0
 905.196771452 170.372604421 878.496774106 197.155902454 844.158400999 197.155902454 c 0
 829.962162542 197.155902454 814.460390164 192.578161691 799 182 c 0
 745 144 670 121 580 121 c 0
 383 121 284 292 284 498 c 0
 284 727 404 877 590 877 c 0
 657 877 727 858 783 824 c 0
 797.857353704 815.348882653 812.608598952 811.578754307 826.19608997 811.578754307 c 0
 862.189710246 811.578754307 890.016871375 838.03502688 890.016871375 870.297652335 c 0
 890.016871375 890.614818001 878.981276882 913.234646005 852 933 c 0
 801 972 704 1013 577 1013 c 0
 276 1013 83 782 83 499 c 0
 83 214 265 -16 565 -16 c 0
EndSplineSet
EndChar

StartChar: caron
Encoding: 399 711 167
Width: 569
VWidth: 0
GlyphClass: 4
Flags: HW
AnchorPoint: "top" 288 1040 mark 0
LayerCount: 2
Fore
SplineSet
284 1117 m 0
 317 1117 351 1134 378 1171 c 2
 568 1432 l 2
 580 1449 586 1465 586 1481 c 0
 586 1517 557 1543 522 1543 c 0
 498 1543 473 1531 451 1502 c 2
 284 1278 l 1
 117 1502 l 2
 95 1532 68 1543 44 1543 c 0
 8 1543 -21 1518 -21 1483 c 0
 -21 1467 -15 1451 -1 1433 c 2
 189 1171 l 1
 216 1136 250 1117 284 1117 c 0
EndSplineSet
EndChar

StartChar: caron.alt
Encoding: 65537 -1 168
Width: 617
VWidth: 0
GlyphClass: 4
Flags: HW
AnchorPoint: "caron.alt" -23 306 mark 0
LayerCount: 2
Fore
SplineSet
272 301 m 2
 327 301 l 2
 328.104067954 300.961928691 329.18929339 300.942699902 330.256117758 300.942699902 c 0
 357.211034758 300.942699902 372.418784397 313.218281881 383 344 c 2
 528 758 l 2
 529.488214952 762.167001866 530.799247204 768.548787474 530.799247204 775.536872577 c 0
 530.799247204 792.02686466 523.498994403 811.892928971 494 814 c 1
 391 814 l 1
 359 813 326 805 318 758 c 2
 248 344 l 2
 247.483602221 340.901613323 246.967204441 336.603226646 246.967204441 331.913863157 c 0
 246.967204441 318.441399949 251.229568913 301.74180111 272 301 c 2
EndSplineSet
EndChar

StartChar: cedilla
Encoding: 119 184 173
Width: 569
VWidth: 0
GlyphClass: 4
Flags: HW
AnchorPoint: "bot" 281 0 mark 0
LayerCount: 2
Fore
SplineSet
291 -408 m 0
 393 -408 496 -359 497 -254 c 0
 497 -140 411 -106 316 -105 c 0
 305 -105 293 -106 279 -106 c 1
 317 6 l 1
 244 6 l 1
 196 -125 l 2
 193 -133 191 -140 191 -146 c 0
 191 -166 205 -179 233 -179 c 0
 239 -179 245 -178 251 -177 c 0
 303 -177 358 -196 358 -249 c 0
 358 -300 333 -330 260 -330 c 0
 203 -330 150 -313 101 -296 c 0
 96 -294 92 -293 89 -293 c 0
 69 -293 57 -312 57 -331 c 0
 57 -380 180 -408 291 -408 c 0
EndSplineSet
EndChar

StartChar: cent
Encoding: 97 162 174
Width: 1039
VWidth: 0
GlyphClass: 2
Flags: HW
PickledData: "(dp1
S'com.typemytype.robofont.layerData'
p2
(dp3
S'b'
(dp4
S'name'
p5
S'cent'
p6
sS'lib'
p7
(dp8
sS'unicodes'
p9
(tsS'width'
p10
I1046
sS'contours'
p11
(tsS'components'
p12
(tsS'anchors'
p13
(tsss."
LayerCount: 2
Fore
SplineSet
563 -267 m 0
 593 -267 622 -247 622 -207 c 2
 622 56 l 1
 503 56 l 1
 503 -207 l 2
 503 -246 533 -267 563 -267 c 0
503 953 m 1
 622 953 l 1
 622 1216 l 2
 622 1256 593 1276 563 1276 c 0
 533 1276 503 1255 503 1216 c 2
 503 953 l 1
EndSplineSet
Refer: 165 99 N 1 0 0 1 0 0 2
EndChar

StartChar: circumflex
Encoding: 398 710 175
Width: 569
VWidth: 0
GlyphClass: 4
Flags: HW
AnchorPoint: "top" 294 1040 mark 0
LayerCount: 2
Fore
SplineSet
44 1142 m 0
 67 1142 95 1154 118 1183 c 1
 286 1407 l 1
 452 1183 l 2
 474 1154 501 1143 525 1143 c 0
 560 1143 588 1169 588 1203 c 0
 588 1219 582 1234 569 1253 c 2
 380 1514 l 1
 350 1551 318 1568 285 1568 c 0
 250 1568 218 1550 190 1514 c 1
 0 1252 l 2
 -13.0050506339 1235.27922061 -19.1067811865 1220.28427125 -19.1067811865 1204.61038332 c 0
 -19.1067811865 1168.14184395 5.80479074185 1142 44 1142 c 0
EndSplineSet
EndChar

StartChar: colon
Encoding: 26 58 176
Width: 602
VWidth: 0
GlyphClass: 2
Flags: HW
LayerCount: 2
Fore
SplineSet
301 -2 m 0
 377 -2 425 53 425 114 c 0
 425 176 375 230 301 230 c 0
 224 230 176 173 176 114 c 0
 176 52 226 -2 301 -2 c 0
301 783 m 0
 378 783 425 837 425 898 c 0
 425 961 375 1015 301 1015 c 0
 224 1015 176 959 176 898 c 0
 176 834 226 783 301 783 c 0
EndSplineSet
EndChar

StartChar: comma
Encoding: 12 44 177
Width: 602
VWidth: 0
GlyphClass: 2
Flags: HW
PickledData: "(dp1
S'b'
(dp2
sS'anchors'
p3
(tsS'lib'
p4
(dp5
sS'unicodes'
p6
(tsS'width'
p7
I615
sS'contours'
p8
(tsS'components'
p9
(tsS'com.typemytype.robofont.layerData'
p10
(dp11
S'b'
(dp12
S'name'
p13
S'comma'
p14
sg4
(dp15
sg6
(tsg7
I584
sg8
(tsg9
(tsg3
(tsssg13
S'comma'
p16
s."
LayerCount: 2
Fore
SplineSet
151 -330 m 2
 216 -330 l 2
 217.104067954 -330.038071309 218.18929339 -330.057300098 219.256117758 -330.057300098 c 0
 246.211034758 -330.057300098 261.418784397 -317.781718119 272 -287 c 2
 438 193 l 2
 439.488214952 197.167001866 440.799247204 203.548787474 440.799247204 210.536872577 c 0
 440.799247204 227.02686466 433.498994403 246.892928971 404 249 c 1
 284 249 l 1
 252 248 219 240 211 193 c 2
 127 -287 l 2
 126.483602221 -290.098386677 125.967204441 -294.396773354 125.967204441 -299.086136843 c 0
 125.967204441 -312.558600051 130.229568913 -329.25819889 151 -330 c 2
EndSplineSet
EndChar

StartChar: uni0326
Encoding: 411 806 178
Width: 602
VWidth: 0
GlyphClass: 4
Flags: HW
PickledData: "(dp1
S'b'
(dp2
sS'anchors'
p3
(tsS'lib'
p4
(dp5
sS'unicodes'
p6
(tsS'width'
p7
I615
sS'contours'
p8
(tsS'components'
p9
(tsS'com.typemytype.robofont.layerData'
p10
(dp11
S'b'
(dp12
S'name'
p13
S'uni0326'
p14
sg4
(dp15
sg6
(tsg7
I584
sg8
(tsg9
(tsg3
(tsssg13
S'uni0326'
p16
s."
AnchorPoint: "bot" 323 0 mark 0
LayerCount: 2
Fore
SplineSet
152 -617 m 2
 207 -617 l 2
 208.104067954 -617.038071309 209.18929339 -617.057300098 210.256117758 -617.057300098 c 0
 237.211034758 -617.057300098 252.418784397 -604.781718119 263 -574 c 2
 408 -160 l 2
 409.488214952 -155.832998134 410.799247204 -149.451212526 410.799247204 -142.463127423 c 0
 410.799247204 -125.97313534 403.498994403 -106.107071029 374 -104 c 1
 271 -104 l 1
 239 -105 206 -113 198 -160 c 2
 128 -574 l 2
 127.483602221 -577.098386677 126.967204441 -581.396773354 126.967204441 -586.086136843 c 0
 126.967204441 -599.558600051 131.229568913 -616.25819889 152 -617 c 2
EndSplineSet
EndChar

StartChar: uni0312
Encoding: 410 786 179
Width: 600
VWidth: 0
GlyphClass: 4
Flags: HW
AnchorPoint: "top" 281 991 mark 0
LayerCount: 2
Fore
SplineSet
218 1206 m 1
 338 1206 l 1
 370 1207 403 1215 411 1262 c 2
 495 1741 l 2
 495.516397779 1744.09838668 496.032795559 1748.39677335 496.032795559 1753.08613684 c 0
 496.032795559 1766.55860005 491.770431087 1783.25819889 471 1784 c 2
 406 1784 l 2
 404.895932046 1784.03807131 403.812156035 1784.0573001 402.748064971 1784.0573001 c 0
 375.86220901 1784.0573001 361.543144295 1771.78171812 350 1741 c 2
 184 1262 l 2
 182.511785048 1257.83299813 181.200752796 1251.45121253 181.200752796 1244.46312742 c 0
 181.200752796 1227.97313534 188.501005597 1208.10707103 218 1206 c 1
EndSplineSet
EndChar

StartChar: copyright
Encoding: 104 169 180
Width: 1676
VWidth: 0
GlyphClass: 2
Flags: HW
LayerCount: 2
Fore
SplineSet
856 392 m 0
 938 392 1116 428 1116 503 c 0
 1116 529 1097 551 1073 551 c 0
 1066 551 1059 549 1053 546 c 0
 994 516 937 499 877 499 c 0
 731 499 603 599 603 791 c 0
 603 988 724 1071 868 1071 c 0
 929 1071 997 1055 1057 1024 c 0
 1065 1021 1072 1019 1077 1019 c 0
 1106 1019 1125 1047 1125 1075 c 0
 1125 1145 931 1179 855 1179 c 0
 651 1179 469 1049 469 789 c 0
 469 527 656 392 856 392 c 0
847 231 m 0
 516 231 274 465 274 784 c 0
 274 1101 516 1336 847 1336 c 0
 1174 1336 1416 1101 1416 784 c 0
 1416 465 1174 231 847 231 c 0
847 111 m 0
 1233 111 1547 413 1547 784 c 0
 1547 1154 1233 1457 847 1457 c 0
 458 1457 143 1154 143 784 c 0
 143 413 458 111 847 111 c 0
EndSplineSet
EndChar

StartChar: currency
Encoding: 99 164 181
Width: 1187
VWidth: 0
GlyphClass: 2
Flags: HW
LayerCount: 2
Fore
SplineSet
214 158 m 0
 227 158 240 163 252 176 c 2
 339 263 l 1
 407 215 493 187 599 187 c 0
 706 187 792 215 860 264 c 1
 947 176 l 2
 959 164 971 158 984 158 c 0
 1015 158 1042 184 1042 215 c 0
 1042 229 1037 242 1025 254 c 2
 940 338 l 1
 1000 414 1030 508 1030 604 c 0
 1030 698 1002 791 942 867 c 1
 1025 948 l 2
 1037 960 1042 975 1042 987 c 0
 1042 1017 1016 1043 986 1043 c 0
 972 1043 959 1038 946 1026 c 2
 864 943 l 1
 796 993 708 1023 599 1023 c 0
 489 1023 402 992 334 943 c 1
 252 1026 l 2
 240 1038 227 1043 213 1043 c 0
 184 1043 158 1017 158 987 c 0
 158 973 163 960 175 948 c 2
 256 867 l 1
 198 791 169 699 169 604 c 0
 169 508 198 414 259 338 c 1
 175 254 l 2
 163 242 158 229 158 215 c 0
 158 185 184 158 214 158 c 0
599 295 m 0
 399 295 299 450 299 604 c 0
 299 759 399 915 599 915 c 0
 799 915 899 759 899 604 c 0
 899 450 799 295 599 295 c 0
EndSplineSet
EndChar

StartChar: d
Encoding: 68 100 182
Width: 1199
VWidth: 0
GlyphClass: 2
Flags: HW
PickledData: "(dp1
S'b'
(dp2
sS'anchors'
p3
(tsS'lib'
p4
(dp5
sS'unicodes'
p6
(tsS'width'
p7
I1207
sS'contours'
p8
(tsS'components'
p9
(tsS'com.typemytype.robofont.layerData'
p10
(dp11
S'b'
(dp12
S'name'
p13
S'd'
sg4
(dp14
sg6
(tsg7
I1181
sg8
(tsg9
(tsg3
(tsssg13
S'd'
s."
AnchorPoint: "caron.alt" 938 1018 basechar 0
AnchorPoint: "mid" 897 1184 basechar 0
LayerCount: 2
Fore
SplineSet
514 -16 m 0
 663 -16 784 42 852 168 c 1
 852 97 l 2
 852 34 889 1 952 1 c 0
 1002 1 1053 34 1053 97 c 2
 1053 1338 l 2
 1053 1401 1003 1432 953 1432 c 0
 902 1432 852 1401 852 1338 c 2
 852 838 l 1
 788 953 675 1013 529 1013 c 0
 248 1013 83 797 83 505 c 0
 83 229 229 -16 514 -16 c 0
555 121 m 0
 344 123 284 338 284 502 c 0
 284 675 351 876 562 876 c 0
 772 876 851 689 851 502 c 0
 851 278 781 121 555 121 c 0
EndSplineSet
EndChar

StartChar: dagger
Encoding: 452 8224 183
Width: 1203
VWidth: 0
GlyphClass: 2
Flags: HW
LayerCount: 2
Fore
SplineSet
601 1 m 0
 648 1 695 31 695 91 c 2
 695 965 l 1
 963 965 l 2
 1015 965 1040 1004 1040 1046 c 0
 1040 1085 1015 1125 963 1125 c 2
 695 1125 l 1
 695 1386 l 2
 695 1446 648 1477 601 1477 c 0
 555 1477 509 1447 509 1386 c 2
 509 1125 l 1
 235 1125 l 2
 186 1125 160 1085 160 1044 c 0
 160 1003 186 965 235 965 c 2
 509 965 l 1
 509 91 l 2
 509 31 555 1 601 1 c 0
EndSplineSet
EndChar

StartChar: daggerdbl
Encoding: 453 8225 184
Width: 1203
VWidth: 0
GlyphClass: 2
Flags: HW
LayerCount: 2
Fore
SplineSet
601 0 m 0
 647 0 692 30 692 90 c 2
 692 336 l 1
 961 336 l 2
 1013 336 1040 375 1040 414 c 0
 1040 453 1013 491 961 491 c 2
 692 491 l 1
 692 982 l 1
 961 982 l 2
 1013 982 1040 1021 1040 1060 c 0
 1040 1099 1013 1138 961 1138 c 2
 692 1138 l 1
 692 1386 l 2
 692 1447 647 1477 601 1477 c 0
 556 1477 511 1447 511 1386 c 2
 511 1138 l 1
 238 1138 l 2
 187 1138 161 1098 161 1059 c 0
 161 1021 186 982 238 982 c 2
 511 982 l 1
 511 491 l 1
 238 491 l 2
 187 491 161 452 161 413 c 0
 161 375 186 336 238 336 c 2
 511 336 l 1
 511 90 l 2
 511 30 556 0 601 0 c 0
EndSplineSet
EndChar

StartChar: uni030F
Encoding: 408 783 185
Width: 569
VWidth: 0
GlyphClass: 4
Flags: HW
AnchorPoint: "top" 487 1057 mark 0
LayerCount: 2
Fore
SplineSet
289 1168 m 0
 315 1168 335 1188 335 1213 c 0
 334 1227 330 1239 320 1252 c 2
 70 1548 l 2
 49 1574 29 1587 3 1587 c 0
 -46 1587 -101 1540 -101 1489 c 0
 -101 1470 -93 1451 -75 1437 c 2
 238 1189 l 2
 255 1175 274 1168 289 1168 c 0
639 1168 m 0
 666 1168 684 1187 685 1211 c 0
 684 1226 680 1238 670 1251 c 2
 422 1547 l 2
 399 1573 379 1587 353 1587 c 0
 302 1587 249 1538 249 1489 c 0
 249 1470 257 1451 275 1437 c 2
 585 1192 l 2
 603 1177 623 1168 639 1168 c 0
EndSplineSet
EndChar

StartChar: degree
Encoding: 111 176 188
Width: 819
VWidth: 0
GlyphClass: 2
Flags: HW
LayerCount: 2
Fore
SplineSet
410 936 m 0
 298 936 217 1014 217 1123 c 0
 217 1228 297 1310 409 1310 c 0
 519 1310 603 1228 603 1123 c 0
 603 1014 519 936 410 936 c 0
410 829 m 0
 576 829 714 960 714 1123 c 0
 714 1285 576 1417 410 1417 c 0
 240 1417 106 1285 106 1123 c 0
 106 960 242 829 410 829 c 0
EndSplineSet
EndChar

StartChar: dieresis
Encoding: 103 168 189
Width: 569
VWidth: 0
GlyphClass: 4
Flags: HW
AnchorPoint: "top" 287 1040 mark 0
LayerCount: 2
Fore
SplineSet
85 1198 m 0
 155 1198 201 1249 201 1306 c 0
 201 1363 155 1413 85 1413 c 0
 14 1413 -31 1362 -31 1306 c 0
 -31 1248 16 1198 85 1198 c 0
485 1198 m 0
 555 1198 601 1249 601 1306 c 0
 601 1363 554 1413 485 1413 c 0
 413 1413 369 1361 369 1306 c 0
 369 1248 416 1198 485 1198 c 0
EndSplineSet
EndChar

StartChar: divide
Encoding: 182 247 190
Width: 1326
VWidth: 0
GlyphClass: 2
Flags: HW
LayerCount: 2
Fore
SplineSet
211 438 m 2
 1124 438 l 2
 1172 438 1196 475 1196 515 c 0
 1196 555 1172 593 1124 593 c 2
 211 593 l 2
 162 593 138 555 138 515 c 0
 138 475 162 438 211 438 c 2
664 -20 m 0
 735 -20 776 30 776 85 c 0
 776 138 735 189 664 189 c 0
 593 189 551 138 551 85 c 0
 551 30 592 -20 664 -20 c 0
664 842 m 0
 735 842 776 892 776 946 c 0
 776 1000 735 1050 664 1050 c 0
 593 1050 551 1000 551 946 c 0
 551 892 592 842 664 842 c 0
EndSplineSet
EndChar

StartChar: dollar
Encoding: 4 36 191
Width: 1217
VWidth: 0
GlyphClass: 2
Flags: HW
PickledData: "(dp1
S'com.typemytype.robofont.layerData'
p2
(dp3
S'b'
(dp4
S'name'
p5
S'dollar'
p6
sS'lib'
p7
(dp8
sS'unicodes'
p9
(tsS'width'
p10
I1274
sS'contours'
p11
(tsS'components'
p12
(tsS'anchors'
p13
(tsss."
LayerCount: 2
Fore
SplineSet
554 0 m 2
 554 -43.2242534818 584.881588249 -63.7698405933 616.307637511 -63.7698405933 c 0
 648.861694607 -63.7698405933 682 -41.7228547101 682 0 c 2
 682 203.126182405 l 1
 872.850614629 221.588618235 1011.25661486 320.568116909 1011.25661486 509.759571567 c 0
 1011.25661486 654.566796417 928.681945903 744.817924549 722 797 c 1
 554 838 l 2
 423 870 390 890 390 968 c 0
 390 1062.46738006 489.588587408 1099.07853314 611.175057599 1099.07853314 c 0
 727.94551609 1099.07853314 822.895716927 1056.40810461 870 1039 c 0
 881.853389188 1034.71260391 892.81631224 1032.79448379 902.764450657 1032.79448379 c 0
 942.032047071 1032.79448379 965.488660118 1062.68000263 965.488660118 1094.70480356 c 0
 965.488660118 1118.90650202 952.092383189 1144.3299632 922 1159 c 0
 872.474552249 1184.61661091 785.03470536 1219.7118216 674 1230.66584094 c 1
 674 1438 l 2
 674 1479.72285471 640.861694607 1501.76984059 608.307637511 1501.76984059 c 0
 576.881588249 1501.76984059 546 1481.22425348 546 1438 c 2
 546 1232.66044512 l 1
 355.13178029 1220.53882764 202.98443349 1136.87398088 202.98443349 959.121512492 c 0
 202.98443349 774.280906798 318.785178323 731.308426229 513 682 c 2
 683 639 l 2
 793.521425134 611.369643716 839.164001205 567.553070252 839.164001205 495.269820234 c 0
 839.164001205 382.966496861 733.235302433 334.985311036 604.898324803 334.985311036 c 0
 481.47664972 334.985311036 386.0755347 378.953777273 319 420 c 0
 302.070373128 429.860112354 286.075238609 434.078659757 271.716446729 434.078659757 c 0
 232.126844877 434.078659757 204.976679702 402.009365676 204.976679702 367.697116946 c 0
 204.976679702 347.561219951 214.326775812 326.652884135 236 311 c 0
 302.068016964 263.681014877 417.556950229 213.970695094 554 202.434230361 c 1
 554 0 l 2
EndSplineSet
EndChar

StartChar: dotaccent
Encoding: 402 729 192
Width: 601
VWidth: 0
GlyphClass: 4
Flags: HW
AnchorPoint: "top" 291 1035 mark 0
LayerCount: 2
Fore
SplineSet
294 1211 m 0
 372 1211 419 1265 419 1327 c 0
 419 1385 372 1441 294 1441 c 0
 217 1441 171 1385 171 1327 c 0
 171 1265 217 1211 294 1211 c 0
EndSplineSet
EndChar

StartChar: dotlessi
Encoding: 240 305 193
Width: 495
VWidth: 0
GlyphClass: 2
Flags: HW
AnchorPoint: "top" 249 991 basechar 0
LayerCount: 2
Fore
SplineSet
246 0 m 0
 296 0 348 35 348 101 c 2
 348 896 l 2
 348 963 298 997 248 997 c 0
 197 997 146 963 146 896 c 2
 146 101 l 2
 146 32 195 0 246 0 c 0
EndSplineSet
EndChar

StartChar: uni0237
Encoding: 396 567 194
Width: 502
VWidth: 0
GlyphClass: 2
Flags: HW
AnchorPoint: "top" 255 991 basechar 0
LayerCount: 2
Fore
SplineSet
-3 -381 m 0
 329 -381 356 -275 356 -23 c 2
 356 886 l 2
 356 959 317 995 255 995 c 0
 194 995 151 958 151 884 c 2
 151 -45 l 2
 151 -209 127 -227 -5 -228 c 0
 -52.3718783681 -228 -75.637268981 -265.255481076 -75.637268981 -302.998482435 c 0
 -75.637268981 -341.742381222 -51.1215786982 -381 -3 -381 c 0
EndSplineSet
EndChar

StartChar: e
Encoding: 69 101 195
Width: 1106
VWidth: 0
GlyphClass: 2
Flags: HW
PickledData: "(dp1
S'b'
(dp2
sS'anchors'
p3
(tsS'lib'
p4
(dp5
sS'unicodes'
p6
(tsS'width'
p7
I1132
sS'contours'
p8
(tsS'components'
p9
(tsS'com.typemytype.robofont.layerData'
p10
(dp11
S'b'
(dp12
S'name'
p13
S'e'
sg4
(dp14
sg6
(tsg7
I1132
sg8
(tsg9
(tsg3
(tsssg13
S'e'
s."
AnchorPoint: "top" 576 1001 basechar 0
AnchorPoint: "ogonek" 761 37 basechar 0
LayerCount: 2
Fore
SplineSet
587 -16 m 0
 760 -16 875 45 961 121 c 0
 982.648795176 139.723282314 991.545238351 161.870014829 991.545238351 182.557715594 c 0
 991.545238351 219.406164639 963.32047016 251.625703888 928.660456526 251.625703888 c 0
 916.264504362 251.625703888 903.045424074 247.504523254 890 238 c 0
 814 182 722 125 601 125 c 0
 427 127 295 224 289 455 c 1
 959 455 l 2
 1005 455 1023 490 1023 530 c 0
 1017 787 887 1013 569 1013 c 0
 260 1013 86 774 86 505 c 0
 86 179 297 -14 587 -16 c 0
291 577 m 1
 303 724 394 876 578 876 c 0
 761 876 838 734 849 577 c 1
 291 577 l 1
EndSplineSet
EndChar

StartChar: eight
Encoding: 24 56 203
Width: 1190
VWidth: 0
GlyphClass: 2
Flags: HW
PickledData: "(dp1
S'com.typemytype.robofont.layerData'
p2
(dp3
S'b'
(dp4
S'name'
p5
S'eight'
p6
sS'lib'
p7
(dp8
sS'unicodes'
p9
(tsS'width'
p10
I1160
sS'contours'
p11
(tsS'components'
p12
(tsS'anchors'
p13
(tsss."
LayerCount: 2
Fore
SplineSet
595 -22 m 0
 889 -22 1104 128 1104 388 c 0
 1104 568 1012 696 825 746 c 1
 988 784 1079 908 1079 1072 c 0
 1079 1326 868 1462 595 1462 c 0
 322 1462 112 1325 112 1072 c 0
 112 908 199 788 367 746 c 1
 183 707 86 563 86 388 c 0
 86 128 301 -22 595 -22 c 0
595 148 m 0
 442 148 313 213 313 388 c 0
 313 565 441 649 595 649 c 0
 749 649 877 565 877 388 c 0
 877 213 749 148 595 148 c 0
595 847 m 0
 433 847 327 924 327 1079 c 0
 327 1244 457 1299 595 1299 c 0
 735 1299 864 1244 864 1079 c 0
 864 924 760 847 595 847 c 0
EndSplineSet
EndChar

StartChar: ellipsis
Encoding: 455 8230 204
Width: 1808
VWidth: 0
GlyphClass: 2
Flags: HW
LayerCount: 2
Fore
SplineSet
301 -2 m 0
 377 -2 425 53 425 114 c 0
 425 176 375 230 301 230 c 0
 224 230 176 173 176 114 c 0
 176 52 226 -2 301 -2 c 0
903 -2 m 0
 980 -2 1028 53 1028 114 c 0
 1028 177 977 230 903 230 c 0
 826 230 778 173 778 114 c 0
 778 52 828 -2 903 -2 c 0
1506 -2 m 0
 1582 -2 1630 53 1630 114 c 0
 1630 176 1580 230 1506 230 c 0
 1428 230 1381 173 1381 114 c 0
 1381 52 1429 -2 1506 -2 c 0
EndSplineSet
EndChar

StartChar: emdash
Encoding: 445 8212 206
Width: 2048
VWidth: 0
GlyphClass: 2
Flags: HW
LayerCount: 2
Fore
SplineSet
81 446 m 2
 1967 446 l 2
 2020 446 2046 488 2046 529 c 0
 2046 571 2020 613 1967 613 c 2
 81 613 l 2
 27 613 1 571 1 530 c 0
 1 488 27 446 81 446 c 2
EndSplineSet
EndChar

StartChar: emptyset
Encoding: 467 8709 207
Width: 1745
VWidth: 0
GlyphClass: 2
Flags: HW
LayerCount: 2
Fore
SplineSet
654.07 279.124 m 1
 1217.31 1026.41 l 1
 1300.16 941.848 1349 825.814 1349 698 c 0
 1349 423 1132 230 874 230 c 0
 792.992 230 718.693 247.661 654.07 279.124 c 1
553.558 345.655 m 1
 455.573 431.19 397 556.942 397 698 c 0
 397 964 604 1166 874 1166 c 0
 966.987 1166 1051.23 1142.16 1122.07 1100.69 c 1
 553.558 345.655 l 1
368.747005786 84.4145901614 m 0
 368.747005786 54.6359053695 392.997064261 19.8243344663 427.75300777 19.8243344663 c 0
 458.119411241 19.8243344663 483.944023469 54.2193636472 507 84 c 2
 586.76 189.822 l 1
 673.321 145.666 771.614 121 874 121 c 0
 1206 121 1478 381 1478 698 c 0
 1478 868.442 1403.52 1016.49 1288.32 1120.61 c 1
 1367 1225 l 1
 1384.47075065 1250.11420406 1407.45248551 1275.02564438 1407.45248551 1303.27794562 c 0
 1407.45248551 1334.87094845 1382.965949 1363.59921284 1348.71366896 1363.59921284 c 0
 1330.52320258 1363.59921284 1312.63052163 1354.70905782 1297 1333 c 2
 1191.1 1192.36 l 1
 1097.22 1248.32 987.654 1280 874 1280 c 0
 526 1280 267 1006 267 698 c 0
 267 515.757 353.31 358.827 485.171 254.833 c 1
 410 155 l 1
 391.826545388 134.688491904 368.747005786 104.432245337 368.747005786 84.4145901614 c 0
EndSplineSet
EndChar

StartChar: endash
Encoding: 444 8211 208
Width: 1024
VWidth: 0
GlyphClass: 2
Flags: HW
LayerCount: 2
Fore
SplineSet
82 446 m 2
 941 446 l 2
 995 446 1021 488 1021 529 c 0
 1021 571 995 613 941 613 c 2
 82 613 l 2
 28 613 1 571 1 530 c 0
 1 488 28 446 82 446 c 2
EndSplineSet
EndChar

StartChar: eng
Encoding: 266 331 209
Width: 1179
VWidth: 0
GlyphClass: 2
Flags: HW
PickledData: "(dp1
S'com.typemytype.robofont.layerData'
p2
(dp3
S'b'
(dp4
S'name'
p5
S'eng'
p6
sS'lib'
p7
(dp8
sS'unicodes'
p9
(tsS'width'
p10
I1158
sS'contours'
p11
(tsS'components'
p12
(tsS'anchors'
p13
(tsss."
LayerCount: 2
Fore
SplineSet
397 -304 m 0
 496.732021778 -335.283234713 588.671520774 -352.482735589 669.855651029 -352.482735589 c 0
 892.301990159 -352.482735589 1034 -223.353647232 1034 99 c 2
 1034 353 l 1
 832 353 l 1
 832 85 l 2
 832 -109.832598447 780.4270123 -196.463046228 641.687727141 -196.463046228 c 0
 585.31303016 -196.463046228 514.546433104 -182.159619511 427 -155 c 0
 418.310423489 -152.375023762 410.063281 -151.167475043 402.32976817 -151.167475043 c 0
 360.095270503 -151.167475043 333.179798313 -187.18266478 333.179798313 -225.027685718 c 0
 333.179798313 -256.810951709 352.163528317 -289.88481447 397 -304 c 0
EndSplineSet
Refer: 279 110 N 1 0 0 1 0 0 2
EndChar

StartChar: equal
Encoding: 29 61 211
Width: 1325
VWidth: 0
GlyphClass: 2
Flags: HW
LayerCount: 2
Fore
SplineSet
228 219 m 2
 1086 219 l 2
 1134 219 1175 247 1175 295 c 0
 1175 346 1134 373 1091 373 c 2
 239 373 l 2
 191 373 149 345 149 295 c 0
 149 252 185 219 228 219 c 2
228 626 m 2
 1086 626 l 2
 1134 626 1175 655 1175 702 c 0
 1175 754 1132 780 1086 780 c 2
 239 780 l 2
 191 780 149 752 149 702 c 0
 149 660 185 626 228 626 c 2
EndSplineSet
EndChar

StartChar: estimated
Encoding: 465 8494 212
Width: 1132
VWidth: 0
GlyphClass: 2
Flags: HW
LayerCount: 2
Fore
SplineSet
600 -12 m 0
 782 -12 888 35 982 115 c 0
 1008 137 1019 159 1019 177 c 0
 1019 199 1003 214 980 214 c 0
 955.462851782 214 938.221737777 201.451861904 921 183 c 0
 826 85 712 39 604 39 c 0
 428 39 327 159 315 491 c 1
 963 491 l 2
 1011 491 1028 541 1028 577 c 0
 1028 786 927 1013 577 1013 c 0
 231 1013 93 759 93 512 c 0
 93 183 268 -12 600 -12 c 0
317 562 m 1
 328 796 421 968 591 968 c 0
 764 968 825 817 836 562 c 1
 317 562 l 1
EndSplineSet
EndChar

StartChar: eth
Encoding: 175 240 213
Width: 1203
VWidth: 0
GlyphClass: 2
Flags: HW
PickledData: "(dp1
S'com.typemytype.robofont.layerData'
p2
(dp3
S'b'
(dp4
S'name'
p5
S'eth'
p6
sS'lib'
p7
(dp8
sS'unicodes'
p9
(tsS'width'
p10
I1230
sS'contours'
p11
(tsS'components'
p12
(tsS'anchors'
p13
(tsss."
LayerCount: 2
Fore
SplineSet
575 -34 m 0
 982 -34 1119 274 1119 629 c 0
 1119 761 1103 910 1067 1056 c 1
 1199 1056 l 2
 1244 1056 1266 1089 1266 1122 c 0
 1266 1156 1245 1188 1199 1188 c 2
 1023 1188 l 1
 951 1364 849 1542 749 1542 c 0
 696.07827069 1542 652.091061996 1500.48075714 652.091061996 1451.73294453 c 0
 652.091061996 1433.23823943 658.42262539 1413.70304667 673 1395 c 0
 719 1336 772 1256 800 1188 c 1
 621 1188 l 2
 576 1188 554 1155 554 1121 c 0
 554 1088 576 1056 621 1056 c 2
 846 1056 l 1
 877.974859046 960.939608241 892.026125204 828.538397963 892.026125204 737.533679369 c 0
 892.026125204 723.231457185 891.679073102 709.951686593 891 698 c 1
 824 834 686 897 531 897 c 0
 256 897 85 716 85 445 c 0
 85 169 271 -34 575 -34 c 0
587 131 m 0
 405 131 303 254 303 435 c 0
 303 606 382 751 566 751 c 0
 762 751 869 616 869 428 c 0
 869 264 752 131 587 131 c 0
EndSplineSet
EndChar

StartChar: exclam
Encoding: 1 33 214
Width: 788
VWidth: 0
GlyphClass: 2
Flags: HW
LayerCount: 2
Fore
SplineSet
351 477 m 2
 354.017855245 435.253002442 381.828214033 413.997768015 409.745504509 413.997768015 c 0
 437.332447751 413.997768015 465.023806994 434.752949307 469 477 c 1
 530 1383 l 2
 530.31141687 1386.59327158 530.463303742 1390.10046583 530.463303742 1393.52158273 c 0
 530.463303742 1461.50719424 470.481651871 1495.5 410.5 1495.5 c 0
 350.518348129 1495.5 290.536696258 1461.50719424 290.536696258 1393.52158273 c 0
 290.536696258 1390.10046583 290.68858313 1386.59327158 291 1383 c 2
 351 477 l 2
EndSplineSet
Refer: 313 46 N 1 0 0 1 113 -2 2
EndChar

StartChar: f
Encoding: 70 102 216
Width: 711
VWidth: 0
GlyphClass: 2
Flags: HW
PickledData: "(dp1
S'b'
(dp2
sS'anchors'
p3
(tsS'lib'
p4
(dp5
sS'unicodes'
p6
(tsS'width'
p7
I723
sS'contours'
p8
(tsS'components'
p9
(tsS'com.typemytype.robofont.layerData'
p10
(dp11
S'b'
(dp12
S'name'
p13
S'f'
sg4
(dp14
sg6
(tsg7
I696
sg8
(tsg9
(tsg3
(tsssg13
S'f'
s."
LayerCount: 2
Fore
SplineSet
331 0 m 0
 382 0 432 33 432 99 c 2
 432 856 l 1
 591 856 l 2
 641 856 662 885 662 921 c 0
 662 954 641 987 591 987 c 2
 432 987 l 1
 432 1070 l 2
 432 1267 470 1290 569 1290 c 2
 654 1290 l 2
 700.726160121 1290 723.018332651 1327.49770373 723.018332651 1365.60629627 c 0
 723.018332651 1404.97713456 699.224965782 1445 654 1445 c 2
 531 1445 l 2
 359 1445 230 1361 230 1109 c 2
 230 987 l 1
 109 987 l 2
 58 987 36 954 36 921 c 0
 36 886 58 856 109 856 c 2
 230 856 l 1
 230 99 l 2
 230 33 280 0 331 0 c 0
EndSplineSet
EndChar

StartChar: uniFB01
Encoding: 483 64257 217
Width: 1201
VWidth: 0
GlyphClass: 2
Flags: HW
LayerCount: 2
Fore
SplineSet
323 1 m 0
 374 1 424 34 424 100 c 2
 424 855 l 1
 852 855 l 1
 852 101 l 2
 852 32 901 0 952 0 c 0
 1002 0 1054 35 1054 101 c 2
 1054 895 l 2
 1054 964 1001 995 950 995 c 2
 424 995 l 1
 424 1026 l 2
 424 1245 431 1298 545 1298 c 0
 580 1298 610 1288 646 1288 c 0
 687 1288 710 1325 710 1362 c 0
 710 1392 694 1422 659 1432 c 0
 604 1447 550 1454 496 1454 c 0
 324 1454 222 1361 222 1095 c 2
 222 995 l 1
 99 995 l 2
 49 995 24 961 24 926 c 0
 24 890 49 855 99 855 c 2
 222 855 l 1
 222 100 l 2
 222 34 272 1 323 1 c 0
953 1231 m 0
 1028 1231 1078 1276 1078 1334 c 0
 1078 1392 1028 1438 953 1438 c 0
 878 1438 827 1392 827 1334 c 0
 827 1277 878 1231 953 1231 c 0
EndSplineSet
EndChar

StartChar: five
Encoding: 21 53 218
Width: 1190
VWidth: 0
GlyphClass: 2
Flags: HW
PickledData: "(dp1
S'com.typemytype.robofont.layerData'
p2
(dp3
S'b'
(dp4
S'name'
p5
S'five'
p6
sS'lib'
p7
(dp8
sS'unicodes'
p9
(tsS'width'
p10
I1160
sS'contours'
p11
(tsS'components'
p12
(tsS'anchors'
p13
(tsss."
LayerCount: 2
Fore
SplineSet
610 -22 m 0
 892 -22 1104 161 1104 446 c 0
 1104 716 926 905 660 905 c 0
 449 905 356 802 356 802 c 1
 357 1257 l 1
 942 1257 l 2
 996 1257 1022 1299 1022 1341 c 0
 1022 1382 996 1426 942 1426 c 2
 288 1426 l 2
 214 1426 178 1392 178 1325 c 2
 178 685 l 2
 178 634.982971489 266.817862997 601.545277404 320.52186393 601.545277404 c 0
 336.609295326 601.545277404 349.545796897 604.545796897 356 611 c 0
 416 673 520 730 628 730 c 0
 783 730 888 622 888 453 c 0
 888 271 793 159 602 159 c 0
 470 159 367 209 288 272 c 0
 275.980061327 281.682728375 263.12401776 285.875034613 250.353112842 285.875034613 c 0
 203.969291127 285.875034613 158.708564335 230.572795755 158.708564335 182.162253855 c 0
 158.708564335 164.060836591 165.036569057 146.922963087 180 134 c 0
 290 40 418 -22 610 -22 c 0
EndSplineSet
EndChar

StartChar: uniFB02
Encoding: 484 64258 220
Width: 1201
VWidth: 0
GlyphClass: 2
Flags: HW
LayerCount: 2
Fore
SplineSet
323 1 m 0
 374 1 424 34 424 100 c 2
 424 855 l 1
 571 855 l 2
 621 855 645 892 645 926 c 0
 645 961 621 995 571 995 c 2
 424 995 l 1
 424 1033 l 2
 424 1248 444 1318 551 1318 c 2
 789 1318 l 1
 789 101 l 2
 789 32 838 0 888 0 c 0
 939 0 991 35 991 101 c 2
 991 1332 l 2
 991 1399 942 1431 891 1431 c 0
 845 1431 800 1404 792 1349 c 1
 778 1371 692 1451 489 1451 c 0
 339 1449 222 1357 222 1095 c 2
 222 995 l 1
 99 995 l 2
 49 995 24 961 24 926 c 0
 24 890 49 855 99 855 c 2
 222 855 l 1
 222 100 l 2
 222 34 272 1 323 1 c 0
EndSplineSet
EndChar

StartChar: florin
Encoding: 318 402 221
Width: 1203
VWidth: 0
GlyphClass: 2
Flags: HW
LayerCount: 2
Fore
SplineSet
65 -538 m 0
 228 -538 403 -440 507 -4 c 0
 567 247 620 525 673 773 c 1
 875 773 l 2
 930 773 958 814 958 856 c 0
 958 898 930 940 875 940 c 2
 706 940 l 1
 777 1290 863 1429 997 1429 c 0
 1069 1429 1106 1466 1106 1502 c 0
 1106 1534 1076 1566 1015 1566 c 0
 794 1566 617 1390 536 940 c 1
 358 940 l 2
 303 940 274 898 274 857 c 0
 274 815 303 773 358 773 c 2
 504 773 l 1
 451 525 399 248 339 -2 c 0
 260 -337 153 -391 75 -392 c 0
 9 -394 -30 -435 -30 -474 c 0
 -30 -507 -2 -538 65 -538 c 0
EndSplineSet
EndChar

StartChar: foundryicon
Encoding: 488 -1 222
Width: 1347
VWidth: 0
GlyphClass: 2
Flags: HW
LayerCount: 2
Fore
SplineSet
485 405 m 1
 485 672 l 1
 591 672 l 1
 761 523 l 1
 761 672 l 1
 867 672 l 1
 867 405 l 1
 761 405 l 1
 591 552 l 1
 591 405 l 1
 485 405 l 1
280 2 m 1
 669 278 l 1
 1066 2 l 1
 922 461 l 1
 1313 755 l 1
 828 755 l 1
 669 1215 l 1
 519 755 l 1
 34 755 l 1
 423 461 l 1
 280 2 l 1
EndSplineSet
EndChar

StartChar: four
Encoding: 20 52 223
Width: 1190
VWidth: 0
GlyphClass: 2
Flags: HW
PickledData: "(dp1
S'com.typemytype.robofont.layerData'
p2
(dp3
S'b'
(dp4
S'name'
p5
S'four'
p6
sS'lib'
p7
(dp8
sS'unicodes'
p9
(tsS'width'
p10
I1160
sS'contours'
p11
(tsS'components'
p12
(tsS'anchors'
p13
(tsss."
LayerCount: 2
Fore
SplineSet
847 -2 m 0
 899 -2 954 32 954 98 c 2
 954 303 l 1
 1091 303 l 2
 1144 303 1171 344 1171 384 c 0
 1171 425 1144 465 1091 465 c 2
 955 465 l 1
 955 1278 l 2
 955 1387 881 1432 799 1432 c 0
 724 1432 664 1402 615 1323 c 2
 83 477 l 2
 71.9960479643 459.708075372 66.8267850637 439.533127878 66.8267850637 419.172831441 c 0
 66.8267850637 361.821734045 107.841896077 303 175 303 c 2
 738 303 l 1
 738 98 l 2
 738 32 795 -2 847 -2 c 0
285 465 m 1
 738 1204 l 1
 738 465 l 1
 285 465 l 1
EndSplineSet
EndChar

StartChar: uni2074
Encoding: 460 8308 224
Width: 739
VWidth: 0
GlyphClass: 2
Flags: HW
LayerCount: 2
Fore
SplineSet
495 581 m 0
 523 581 551 600 551 639 c 2
 551 766 l 1
 633 766 l 2
 665 766 680 786 680 807 c 0
 680 829 664 849 633 849 c 2
 551 849 l 1
 551 1326 l 2
 551 1388 517 1419 470 1419 c 0
 428 1419 394 1402 365 1352 c 1
 49 862 l 1
 40 850 36 837 36 823 c 0
 36 790 62 766 102 766 c 2
 438 766 l 1
 438 639 l 2
 438 600 466 581 495 581 c 0
146 848 m 1
 438 1310 l 1
 438 848 l 1
 146 848 l 1
EndSplineSet
EndChar

StartChar: fraction
Encoding: 459 8260 225
Width: 609
VWidth: 0
GlyphClass: 2
Flags: HW
LayerCount: 2
Fore
SplineSet
64 -70 m 0
 95 -70 124 -53 138 -14 c 2
 619 1425 l 2
 622 1436 624 1446 624 1455 c 0
 624 1501 585 1528 545 1528 c 0
 512 1528 481 1512 468 1473 c 2
 -9 34 l 2
 -13 23 -14 13 -14 4 c 0
 -14 -42 25 -70 64 -70 c 0
EndSplineSet
EndChar

StartChar: g
Encoding: 71 103 226
Width: 1189
VWidth: 0
GlyphClass: 2
Flags: HW
PickledData: "(dp1
S'b'
(dp2
sS'anchors'
p3
(tsS'lib'
p4
(dp5
sS'unicodes'
p6
(tsS'width'
p7
I1207
sS'contours'
p8
(tsS'components'
p9
(tsS'com.typemytype.robofont.layerData'
p10
(dp11
S'b'
(dp12
S'name'
p13
S'g'
sg4
(dp14
sg6
(tsg7
I1167
sg8
(tsg9
(tsg3
(tsssg13
S'g'
s."
AnchorPoint: "top" 566 997 basechar 0
LayerCount: 2
Fore
SplineSet
566 -430 m 0
 854 -430 1053 -294 1053 11 c 2
 1053 902 l 2
 1053 965 1006 997 958 997 c 0
 914 997 871 970 865 917 c 1
 865 835 l 1
 805 939 717 1013 540 1013 c 0
 249 1013 83 786 83 493 c 0
 83 207 255 0 546 0 c 0
 694 0 803 68 859 181 c 1
 859 0 l 2
 859 -186 750 -293 552 -293 c 0
 424 -293 341 -252 271 -228 c 0
 261.911108828 -224.458873569 253.142673497 -222.854415049 244.87395551 -222.854415049 c 0
 207.219460411 -222.854415049 179.927875157 -256.126942407 179.927875157 -291.299589484 c 0
 179.927875157 -313.837640009 191.133894049 -337.155886234 218 -353 c 0
 283 -391 409 -430 566 -430 c 0
577.955107979 132.943307317 m 0
 422.034387417 132.943307317 284 244.995823541 284 499 c 0
 284 701 371 876 578 876 c 0
 789.462632709 876 858.010840818 701.545840315 858.010840818 500.39145108 c 0
 858.010840818 251.326305449 734.7659869 132.943307317 577.955107979 132.943307317 c 0
EndSplineSet
EndChar

StartChar: germandbls
Encoding: 158 223 232
Width: 1315
VWidth: 0
GlyphClass: 2
Flags: HW
LayerCount: 2
Fore
SplineSet
866 -26 m 0
 1068 -26 1245 96 1245 313 c 0
 1245 627 820 620 820 795 c 0
 820 890 1056 982 1056 1146 c 0
 1056 1352 856 1464 643 1464 c 0
 307 1464 156 1281 156 982 c 2
 156 97 l 2
 156 32 206 0 256 0 c 0
 307 0 358 33 358 97 c 2
 358 965 l 1
 361 1144 421 1325 623 1325 c 0
 735 1325 850 1269 850 1150 c 0
 850 1015 611 958 611 781 c 0
 611 523 1046 516 1046 303 c 0
 1046 176 971 117 858 117 c 0
 777 117 724 156 684 218 c 0
 668 242 646 252 624 252 c 0
 584 252 543 219 543 175 c 0
 543 162 546 150 553 137 c 0
 608 27 723 -26 866 -26 c 0
EndSplineSet
EndChar

StartChar: grave
Encoding: 64 96 233
Width: 569
VWidth: 0
GlyphClass: 4
Flags: HW
AnchorPoint: "top" 446 1040 mark 0
LayerCount: 2
Fore
SplineSet
458 1194 m 0
 484 1194 503 1216 503 1242 c 0
 503 1254 497 1266 488 1279 c 1
 240 1574 l 2
 219 1600 197 1615 172 1615 c 0
 120 1615 67 1565 67 1516 c 0
 67 1497 76 1479 93 1465 c 2
 407 1216 l 2
 423 1203 443 1194 458 1194 c 0
EndSplineSet
EndChar

StartChar: greater
Encoding: 30 62 234
Width: 1325
VWidth: 0
GlyphClass: 2
Flags: HW
PickledData: "(dp1
S'com.typemytype.robofont.layerData'
p2
(dp3
S'b'
(dp4
S'name'
p5
S'less'
p6
sS'lib'
p7
(dp8
sS'unicodes'
p9
(tsS'width'
p10
I1340
sS'contours'
p11
(tsS'components'
p12
(tsS'anchors'
p13
(tsss."
LayerCount: 2
Fore
SplineSet
228 30 m 2
 1093 410 l 2
 1130.15006286 426.284959062 1152.02005384 461.993738313 1152.02005384 498.542765902 c 0
 1152.02005384 533.81270196 1131.65402779 569.865103798 1085 590 c 2
 231 950 l 2
 225.065719999 952.543262858 219.016095117 953.711259838 212.996547888 953.711259838 c 0
 175.493130488 953.711259838 139.15721598 908.373949213 139.15721598 867.824420378 c 0
 139.15721598 845.786671474 149.8896674 825.163078129 177 814 c 2
 933 498 l 1
 174 166 l 2
 153.569089008 157.380709425 145.061612709 137.551352045 145.061612709 115.458485559 c 0
 145.061612709 74.7041983453 174.011255908 26.2475351646 210.468000085 26.2475351646 c 0
 216.156385586 26.2475351646 222.02753672 27.4272465873 228 30 c 2
EndSplineSet
EndChar

StartChar: greaterequal
Encoding: 480 8805 235
Width: 1190
VWidth: 0
GlyphClass: 2
Flags: HW
LayerCount: 2
Fore
SplineSet
169 251 m 0
 179 251 189 253 199 258 c 2
 1073 628 l 2
 1121 648 1142 681 1142 715 c 0
 1142 751 1121 783 1075 802 c 1
 197 1188 l 2
 186 1193 176 1195 166 1195 c 0
 124 1195 95 1157 95 1120 c 0
 95 1095 109 1072 139 1059 c 2
 920 716 l 1
 141 391 l 2
 109 377 96 352 96 327 c 0
 96 289 126 251 169 251 c 0
173 6 m 2
 1020 6 l 2
 1061 6 1082 37 1082 69 c 0
 1082 101 1061 133 1020 133 c 2
 173 133 l 2
 132 133 111 102 111 70 c 0
 111 38 132 6 173 6 c 2
EndSplineSet
EndChar

StartChar: guillemotleft
Encoding: 106 171 236
Width: 1180
VWidth: 0
GlyphClass: 2
Flags: HW
LayerCount: 2
Fore
SplineSet
475 84 m 0
 518 84 549 113 549 154 c 0
 548 165 545 176 541 185 c 2
 376 540 l 1
 538 889 l 2
 544 901 548 915 548 926 c 0
 548 965 516 994 477 994 c 0
 446 994 416 978 393 938 c 2
 168 540 l 1
 388 149 l 2
 413 104 442 84 475 84 c 0
893 84 m 0
 936 84 968 113 968 154 c 0
 967 165 964 176 960 185 c 2
 795 540 l 1
 958 889 l 2
 963 900 968 914 968 926 c 0
 968 965 934 994 895 994 c 0
 866 994 834 978 811 938 c 2
 586 540 l 1
 806 149 l 2
 831 104 862 84 893 84 c 0
EndSplineSet
EndChar

StartChar: guillemotright
Encoding: 122 187 237
Width: 1180
VWidth: 0
GlyphClass: 2
Flags: HW
LayerCount: 2
Fore
SplineSet
282 84 m 0
 314 84 343 103 369 149 c 2
 590 540 l 1
 369 930 l 2
 344 974 312 994 281 994 c 0
 241 994 208 966 208 926 c 0
 208 914 213 901 219 889 c 2
 381 540 l 1
 219 189 l 2
 213 176 208 163 208 151 c 0
 208 110 243 84 282 84 c 0
701 84 m 0
 733 84 762 103 788 149 c 2
 1009 540 l 1
 788 930 l 2
 762 974 732 994 700 994 c 0
 661 994 627 966 627 927 c 0
 627 914 632 901 638 889 c 2
 800 540 l 1
 638 190 l 2
 632 177 627 163 627 152 c 0
 627 111 661 84 701 84 c 0
EndSplineSet
EndChar

StartChar: guilsinglleft
Encoding: 457 8249 238
Width: 601
VWidth: 0
GlyphClass: 2
Flags: HW
LayerCount: 2
Fore
SplineSet
404 86 m 0
 442 86 476 115 476 152 c 0
 476 162 474 173 470 181 c 2
 303 540 l 1
 470 898 l 2
 474 907 476 917 476 926 c 0
 476 964 442 993 404 993 c 0
 375 993 345 977 322 937 c 2
 97 540 l 1
 322 142 l 1
 344 101 376 86 404 86 c 0
EndSplineSet
EndChar

StartChar: guilsinglright
Encoding: 458 8250 239
Width: 601
VWidth: 0
GlyphClass: 2
Flags: HW
LayerCount: 2
Fore
SplineSet
199 86 m 0
 227 86 259 101 282 142 c 2
 507 540 l 1
 282 937 l 2
 259 977 226 993 199 993 c 0
 161 993 127 964 127 926 c 0
 127 917 129 907 133 898 c 2
 300 540 l 1
 133 181 l 2
 129 172 127 162 127 153 c 0
 127 115 161 86 199 86 c 0
EndSplineSet
EndChar

StartChar: h
Encoding: 72 104 240
Width: 1169
VWidth: 0
GlyphClass: 2
Flags: HW
PickledData: "(dp1
S'segmentType'
p2
S'curve'
p3
sS'b'
(dp4
sS'anchors'
p5
(tsS'lib'
p6
(dp7
sS'unicodes'
p8
(tsS'width'
p9
I1195
sS'points'
p10
(dp11
sS'contours'
p12
(dp13
sS'components'
p14
(tsS'y'
I113
sS'x'
I137
sS'com.typemytype.robofont.layerData'
p15
(dp16
S'b'
(dp17
S'name'
p18
S'h'
sg6
(dp19
sg8
(tsg9
I1148
sg12
(tsg14
(tsg5
(tsssg18
S'h'
s."
LayerCount: 2
Fore
SplineSet
246 0 m 0
 297 0 348 32 348 97 c 2
 348 567 l 2
 348 763 480 870 626 870 c 0
 747 870 833 798 833 638 c 2
 833 97 l 2
 833 32 883 0 933 0 c 0
 984 0 1035 32 1035 97 c 2
 1035 632 l 2
 1035 903 864 1013 676 1013 c 0
 528 1013 405 951 348 850 c 1
 348 1338 l 2
 348 1400 298 1432 247 1432 c 0
 196 1432 146 1400 146 1338 c 2
 146 97 l 2
 146 32 195 0 246 0 c 0
EndSplineSet
EndChar

StartChar: hungarumlaut
Encoding: 406 733 243
Width: 569
VWidth: 0
GlyphClass: 4
Flags: HW
AnchorPoint: "top" 174 1040 mark 0
LayerCount: 2
Fore
SplineSet
1 1107 m 0
 15 1107 29 1112 45 1125 c 2
 363 1377 l 2
 382 1391 389 1410 389 1428 c 0
 389 1476 336 1526 286 1526 c 0
 263 1526 243 1517 225 1495 c 2
 -34 1186 l 2
 -44 1175 -46 1164 -47 1153 c 0
 -47 1128 -27 1107 1 1107 c 0
348 1107 m 0
 363 1107 376 1112 392 1125 c 2
 711 1377 l 2
 729 1391 736 1411 736 1428 c 0
 736 1476 684 1526 633 1526 c 0
 611 1526 590 1517 573 1495 c 1
 313 1186 l 2
 304 1175 302 1164 302 1153 c 0
 302 1128 321 1107 348 1107 c 0
EndSplineSet
EndChar

StartChar: hyphen
Encoding: 13 45 244
Width: 670
VWidth: 0
GlyphClass: 2
Flags: HW
LayerCount: 2
Fore
SplineSet
125 451 m 2
 545 451 l 2
 595 451 631 484 631 529 c 0
 631 575 596 609 545 609 c 2
 125 609 l 2
 74 609 38 575 38 529 c 0
 38 484 75 451 125 451 c 2
EndSplineSet
EndChar

StartChar: i
Encoding: 73 105 245
Width: 493
VWidth: 0
GlyphClass: 2
Flags: HW
LayerCount: 2
Fore
SplineSet
253 0 m 0
 303 0 355 35 355 101 c 2
 355 896 l 2
 355 962 305 997 255 997 c 0
 204 997 153 962 153 896 c 2
 153 101 l 2
 153 32 202 0 253 0 c 0
254 1216 m 0
 329 1216 379 1263 379 1334 c 0
 379 1405 330 1453 255 1453 c 0
 179 1453 128 1405 128 1334 c 0
 128 1263 179 1216 254 1216 c 0
EndSplineSet
EndChar

StartChar: infinity
Encoding: 475 8734 254
Width: 1625
VWidth: 0
GlyphClass: 2
Flags: HW
LayerCount: 2
Fore
SplineSet
422 257 m 0
 592 257 704 374 815 500 c 1
 958 330 1069 257 1196 257 c 0
 1363 257 1521 386 1521 598 c 2
 1521 600 l 2
 1521 796 1388 926 1206 926 c 0
 1027 926 922 795 823 683 c 1
 712 815 595 926 438 926 c 0
 246 926 102 785 102 588 c 0
 102 398 252 257 422 257 c 0
437 369 m 2
 307 369 224 470 224 590 c 0
 224 714 299 817 426 817 c 0
 571 817 661 698 751 585 c 1
 668 494 568 369 440 369 c 2
 437 369 l 2
1203 369 m 0
 1094 369 1016 441 882 595 c 1
 954 671 1059 817 1196 817 c 2
 1199 817 l 2
 1314 817 1402 729 1402 590 c 0
 1402 484 1330 369 1203 369 c 0
EndSplineSet
EndChar

StartChar: integral
Encoding: 476 8747 255
Width: 770
VWidth: 0
GlyphClass: 2
Flags: HW
LayerCount: 2
Fore
SplineSet
173 -340 m 0
 336 -340 489 -243 489 194 c 0
 489 537 459 892 459 1217 c 0
 459 1511 508 1630 634 1630 c 0
 694 1630 729 1663 729 1698 c 0
 729 1732 696 1767 620 1767 c 0
 413 1767 288 1616 288 1236 c 0
 288 906 319 543 319 196 c 0
 319 -134 237 -194 154 -194 c 0
 85 -194 53 -228 53 -264 c 0
 53 -302 90 -340 173 -340 c 0
EndSplineSet
EndChar

StartChar: j
Encoding: 74 106 258
Width: 509
VWidth: 0
GlyphClass: 2
Flags: HW
LayerCount: 2
Fore
SplineSet
18 -379 m 0
 331 -379 363 -276 363 -22 c 2
 363 896 l 2
 363 962 313 997 263 997 c 0
 211 997 161 962 161 896 c 2
 161 -55 l 2
 161 -212 144 -229 14 -229 c 0
 -29.8797697517 -229 -52.6255123282 -266.295342074 -52.6255123282 -303.69259388 c 0
 -52.6255123282 -341.29478208 -29.6297940181 -379 18 -379 c 0
255 1216 m 0
 331 1216 381 1263 381 1334 c 0
 381 1405 332 1453 256 1453 c 0
 181 1453 130 1405 130 1334 c 0
 130 1263 180 1216 255 1216 c 0
EndSplineSet
EndChar

StartChar: k
Encoding: 75 107 260
Width: 1015
VWidth: 0
GlyphClass: 2
Flags: HW
PickledData: "(dp1
S'com.typemytype.robofont.layerData'
p2
(dp3
S'b'
(dp4
S'name'
p5
S'k'
sS'lib'
p6
(dp7
sS'unicodes'
p8
(tsS'width'
p9
I984
sS'contours'
p10
((dp11
S'points'
p12
((dp13
S'segmentType'
p14
S'line'
p15
sS'x'
I318
sS'smooth'
p16
I0
sS'y'
I536
s(dp17
g14
S'line'
p18
sS'x'
I793
sg16
I1
sS'y'
I27
s(dp19
S'y'
I9
sS'x'
I809
sg16
I0
s(dp20
S'y'
I1
sS'x'
I828
sg16
I0
s(dp21
g14
S'curve'
p22
sS'x'
I845
sg16
I1
sS'y'
I1
s(dp23
S'y'
I1
sS'x'
I883
sg16
I0
s(dp24
S'y'
I33
sS'x'
I922
sg16
I0
s(dp25
g14
S'curve'
p26
sS'x'
I922
sg16
I1
sS'y'
I71
s(dp27
S'y'
I84
sS'x'
I922
sg16
I0
s(dp28
S'y'
I99
sS'x'
I918
sg16
I0
s(dp29
g14
S'curve'
p30
sS'x'
I906
sg16
I1
sS'y'
I112
s(dp31
g14
S'line'
p32
sS'x'
I492
sg16
I0
sS'y'
I554
s(dp33
g14
S'line'
p34
sS'x'
I873
sg16
I1
sS'y'
I889
s(dp35
S'y'
I902
sS'x'
I888
sg16
I0
s(dp36
S'y'
I918
sS'x'
I894
sg16
I0
s(dp37
g14
S'curve'
p38
sS'x'
I894
sg16
I1
sS'y'
I933
s(dp39
S'y'
I968
sS'x'
I894
sg16
I0
s(dp40
S'y'
I1002
sS'x'
I858
sg16
I0
s(dp41
g14
S'curve'
p42
sS'x'
I821
sg16
I1
sS'y'
I1002
s(dp43
S'y'
I1002
sS'x'
I802
sg16
I0
s(dp44
S'y'
I994
sS'x'
I785
sg16
I0
s(dp45
g14
S'curve'
p46
sS'x'
I770
sg16
I0
sS'y'
I979
s(dp47
g14
S'line'
p48
sS'x'
I318
sg16
I0
sS'y'
I574
stp49
stp50
sS'components'
p51
(tsS'anchors'
p52
(tsss."
AnchorPoint: "bot" 543 0 basechar 0
LayerCount: 2
Fore
SplineSet
246 0 m 0
 297 0 348 35 348 101 c 2
 348 518 l 1
 812 28 l 2
 832.274281773 6.24223419473 855.727388364 -2.80023234013 878.323738124 -2.80023234013 c 0
 927.210570566 -2.80023234013 972.087214429 39.5244912585 972.087214429 86.980872411 c 0
 972.087214429 106.306838769 964.644804731 126.483846887 947 145 c 2
 565 547 l 1
 909 864 l 2
 926.899947298 880.50514621 934.424054193 900.036579204 934.424054193 919.365684395 c 0
 934.424054193 965.464273768 891.62770425 1010.4120433 844.719469655 1010.4120433 c 0
 826.688147835 1010.4120433 808.049253841 1003.7705598 791 988 c 2
 348 571 l 1
 348 1332 l 2
 348 1397 298 1432 249 1432 c 0
 197 1432 147 1397 147 1332 c 2
 147 101 l 2
 147 33 196 0 246 0 c 0
EndSplineSet
EndChar

StartChar: kgreenlandic
Encoding: 247 312 262
Width: 1019
VWidth: 0
GlyphClass: 2
Flags: HW
PickledData: "(dp1
S'com.typemytype.robofont.layerData'
p2
(dp3
S'b'
(dp4
S'name'
p5
S'kgreenlandic'
p6
sS'lib'
p7
(dp8
sS'unicodes'
p9
(tsS'width'
p10
I1047
sS'contours'
p11
(tsS'components'
p12
(tsS'anchors'
p13
(tsss."
LayerCount: 2
Fore
SplineSet
250 0 m 0
 301 0 353 35 353 101 c 2
 353 494 l 1
 816 28 l 2
 836.633080655 7.12417721923 860.153424543 -1.55443150093 882.756360846 -1.55443150093 c 0
 932.667148931 -1.55443150093 978.104704654 40.7620198611 978.104704654 87.5106235379 c 0
 978.104704654 106.806682395 970.363386723 126.8578589 952 145 c 2
 569 524 l 1
 914 864 l 2
 930.768694824 880.54209084 937.832359547 899.908396789 937.832359547 919.073565432 c 0
 937.832359547 966.05329227 895.38743543 1011.82440317 849.404073188 1011.82440317 c 0
 831.364251203 1011.82440317 812.779832957 1004.77983296 796 988 c 2
 353 548 l 1
 353 908 l 2
 353 974 303 1008 253 1008 c 0
 202 1008 151 974 151 908 c 2
 151 101 l 2
 151 33 200 0 250 0 c 0
EndSplineSet
EndChar

StartChar: l
Encoding: 76 108 263
Width: 503
VWidth: 0
GlyphClass: 2
Flags: HW
PickledData: "(dp1
S'com.typemytype.robofont.layerData'
p2
(dp3
S'b'
(dp4
S'name'
p5
S'l'
sS'lib'
p6
(dp7
sS'unicodes'
p8
(tsS'width'
p9
I511
sS'contours'
p10
(tsS'components'
p11
(tsS'anchors'
p12
(tsss."
AnchorPoint: "top" 257 1433 basechar 0
AnchorPoint: "caron.alt" 264 1018 basechar 0
AnchorPoint: "bot" 253 0 basechar 0
LayerCount: 2
Fore
SplineSet
254 0 m 0
 305 0 357 35 357 101 c 2
 357 1332 l 2
 357 1397 307 1432 256 1432 c 0
 205 1432 155 1397 155 1332 c 2
 155 101 l 2
 155 32 203 0 254 0 c 0
EndSplineSet
EndChar

StartChar: less
Encoding: 28 60 268
Width: 1325
VWidth: 0
GlyphClass: 2
Flags: HW
PickledData: "(dp1
S'com.typemytype.robofont.layerData'
p2
(dp3
S'b'
(dp4
S'name'
p5
S'less'
p6
sS'lib'
p7
(dp8
sS'unicodes'
p9
(tsS'width'
p10
I1340
sS'contours'
p11
(tsS'components'
p12
(tsS'anchors'
p13
(tsss."
LayerCount: 2
Fore
SplineSet
1063 30 m 2
 1068.97246328 27.4272465873 1074.84361441 26.2475351646 1080.53199992 26.2475351646 c 0
 1116.98874409 26.2475351646 1145.93838729 74.7041983453 1145.93838729 115.458485559 c 0
 1145.93838729 137.551352045 1137.43091099 157.380709425 1117 166 c 2
 358 498 l 1
 1114 814 l 2
 1141.06949387 825.146262182 1151.81041234 845.724558598 1151.81041234 867.724837708 c 0
 1151.81041234 908.299684537 1115.27627837 953.711259838 1077.26025459 953.711259838 c 0
 1071.16342204 953.711259838 1065.02847492 952.543262858 1059 950 c 2
 206 590 l 2
 159.20122326 569.802633196 138.611150616 533.588836112 138.611150616 498.214503105 c 0
 138.611150616 461.780086615 160.453783987 426.236201519 198 410 c 2
 1063 30 l 2
EndSplineSet
EndChar

StartChar: lessequal
Encoding: 479 8804 269
Width: 1190
VWidth: 0
GlyphClass: 2
Flags: HW
LayerCount: 2
Fore
SplineSet
1033 242 m 0
 1074 242 1102 279 1102 316 c 0
 1102 342 1090 366 1059 379 c 2
 277 721 l 1
 1057 1046 l 2
 1089 1059 1102 1085 1102 1109 c 0
 1102 1147 1071 1186 1029 1186 c 0
 1019 1186 1009 1184 999 1179 c 2
 124 810 l 1
 77 789 55 755 55 722 c 0
 55 687 76 654 122 635 c 1
 1001 249 l 2
 1011 244 1022 242 1033 242 c 0
162 6 m 2
 1009 6 l 2
 1050 6 1071 38 1071 69 c 0
 1071 101 1050 133 1009 133 c 2
 162 133 l 2
 120 133 100 102 100 70 c 0
 100 38 121 6 162 6 c 2
EndSplineSet
EndChar

StartChar: logicalnot
Encoding: 107 172 270
Width: 1326
VWidth: 0
GlyphClass: 2
Flags: HW
LayerCount: 2
Fore
SplineSet
1098 232 m 0
 1137 232 1177 257 1177 308 c 2
 1177 723 l 2
 1177 763 1137 802 1097 802 c 2
 223 802 l 2
 174 802 151 763 151 724 c 0
 151 684 174 646 223 646 c 2
 1020 646 l 1
 1020 308 l 2
 1020 257 1058 232 1098 232 c 0
EndSplineSet
EndChar

StartChar: lozenge
Encoding: 481 9674 271
Width: 1240
VWidth: 0
GlyphClass: 2
Flags: HW
LayerCount: 2
Fore
SplineSet
617 -93 m 0
 646 -93 676 -76 696 -40 c 2
 1121 718 l 1
 713 1461 l 2
 689 1505 659 1538 621 1538 c 0
 587 1538 559 1514 536 1472 c 2
 121 718 l 1
 528 -18 l 1
 550 -60 579 -93 617 -93 c 0
618 113 m 1
 287 724 l 1
 615 1326 l 1
 622 1326 l 1
 951 715 l 1
 624 113 l 1
 618 113 l 1
EndSplineSet
EndChar

StartChar: lslash
Encoding: 257 322 272
Width: 496
VWidth: 0
GlyphClass: 2
Flags: HW
LayerCount: 2
Fore
SplineSet
-15 561 m 0
 -1 561 12 566 24 572 c 2
 565 853 l 1
 602 871 620 901 620 929 c 0
 620 969 590 1009 547 1009 c 0
 534 1009 521 1003 507 997 c 1
 -49 708 l 2
 -79 693 -92 668 -92 642 c 0
 -92 599 -58 561 -15 561 c 0
EndSplineSet
Refer: 263 108 N 1 0 0 1 0 0 2
EndChar

StartChar: m
Encoding: 77 109 273
Width: 1853
VWidth: 0
GlyphClass: 2
Flags: HW
PickledData: "(dp1
S'b'
(dp2
sS'anchors'
p3
(tsS'lib'
p4
(dp5
sS'unicodes'
p6
(tsS'width'
p7
I1877
sS'contours'
p8
(tsS'components'
p9
(tsS'com.typemytype.robofont.layerData'
p10
(dp11
S'b'
(dp12
S'name'
p13
S'm'
sg4
(dp14
sg6
(tsg7
I1838
sg8
(tsg9
(tsg3
(tsssg13
S'm'
s."
AnchorPoint: "top" 983 1012 basechar 0
LayerCount: 2
Fore
SplineSet
245 0 m 0
 296 0 348 31 348 96 c 2
 348 569 l 2
 348 763 457 877 621 877 c 0
 751 877 830 798 830 621 c 2
 830 97 l 2
 830 32 880 0 930 0 c 0
 981 0 1032 32 1032 97 c 2
 1032 556 l 2
 1032 769 1153 877 1306 877 c 0
 1438 877 1515 799 1515 637 c 2
 1515 96 l 2
 1515 31 1565 0 1615 0 c 0
 1666 0 1717 31 1717 96 c 2
 1717 632 l 2
 1717 901 1553 1013 1352 1013 c 0
 1185 1013 1057 940 998 785 c 1
 957 923 838 1013 669 1013 c 0
 531 1013 412 956 348 828 c 1
 348 908 l 2
 348 967 296 997 247 997 c 0
 196 997 146 965 146 903 c 2
 146 96 l 2
 146 31 195 0 245 0 c 0
EndSplineSet
EndChar

StartChar: macron
Encoding: 110 175 274
Width: 569
VWidth: 0
GlyphClass: 4
Flags: HW
AnchorPoint: "top" 291 1040 mark 0
AnchorPoint: "mid" 292 1339 mark 0
LayerCount: 2
Fore
SplineSet
28 1272 m 2
 547 1272 l 2
 594 1272 617 1305 617 1342 c 0
 617 1379 594 1413 547 1413 c 2
 28 1413 l 2
 -21 1413 -45 1379 -45 1342 c 0
 -45 1305 -21 1272 28 1272 c 2
EndSplineSet
EndChar

StartChar: minus
Encoding: 471 8722 276
Width: 734
VWidth: 0
GlyphClass: 2
Flags: HW
LayerCount: 2
Fore
SplineSet
120 446 m 2
 609 446 l 2
 664 446 692 488 692 529 c 0
 692 571 664 613 609 613 c 2
 120 613 l 2
 64 613 36 572 36 530 c 0
 36 489 65 446 120 446 c 2
EndSplineSet
EndChar

StartChar: mu
Encoding: 116 181 277
Width: 1179
VWidth: 0
GlyphClass: 2
Flags: HW
LayerCount: 2
Fore
SplineSet
244 -270 m 0
 295 -270 347 -236 347 -170 c 2
 347 40 l 1
 396 9 454 -5 517 -5 c 0
 645 -5 778 57 832 174 c 1
 832 94 l 2
 832 32 882 0 932 0 c 0
 983 0 1034 32 1034 96 c 2
 1034 900 l 2
 1034 964 984 995 934 995 c 0
 883 995 832 963 832 900 c 2
 832 383 l 1
 820 202 701 113 558 113 c 0
 447 113 347 189 347 351 c 2
 347 899 l 2
 347 963 297 995 246 995 c 0
 195 995 145 963 145 899 c 2
 145 -170 l 2
 145 -238 194 -270 244 -270 c 0
EndSplineSet
EndChar

StartChar: multiply
Encoding: 150 215 278
Width: 1326
VWidth: 0
GlyphClass: 2
Flags: HW
LayerCount: 2
Fore
SplineSet
358 115 m 0
 376 115 394 121 410 138 c 2
 662 390 l 1
 906 148 l 1
 920 132 936 124 956 125 c 0
 998 125 1037 165 1037 207 c 0
 1037 224 1031 243 1016 258 c 2
 773 501 l 1
 1025 753 l 2
 1042 771 1048 789 1048 807 c 0
 1048 848 1011 884 970 884 c 0
 951 884 933 876 917 860 c 2
 665 608 l 1
 421 852 l 2
 406 868 387 875 369 875 c 0
 327 875 288 835 288 793 c 0
 288 775 295 757 310 742 c 2
 554 498 l 1
 302 246 l 2
 286 229 278 211 278 193 c 0
 278 152 317 115 358 115 c 0
EndSplineSet
EndChar

StartChar: n
Encoding: 78 110 279
Width: 1170
VWidth: 0
GlyphClass: 2
Flags: HW
PickledData: "(dp1
S'segmentType'
p2
S'curve'
p3
sS'b'
(dp4
sS'anchors'
p5
(tsS'lib'
p6
(dp7
sS'unicodes'
p8
(tsS'width'
p9
I1195
sS'points'
p10
(dp11
sS'contours'
p12
(dp13
sS'components'
p14
(tsS'y'
I113
sS'x'
I137
sS'com.typemytype.robofont.layerData'
p15
(dp16
S'b'
(dp17
S'name'
p18
S'n'
sg6
(dp19
sg8
(tsg9
I1152
sg12
(tsg14
(tsg5
(tsssg18
S'n'
s."
AnchorPoint: "top" 618 991 basechar 0
AnchorPoint: "bot" 593 0 basechar 0
LayerCount: 2
Fore
SplineSet
246 0 m 0
 297 0 347 33 347 96 c 2
 347 571 l 1
 353 764 476 876 618 876 c 0
 747 876 833 794 833 630 c 2
 833 96 l 2
 833 32 883 0 933 0 c 0
 984 0 1035 32 1035 96 c 2
 1035 628 l 2
 1035 898 873 1013 672 1013 c 0
 522 1013 401 951 347 834 c 1
 347 905 l 2
 347 966 298 996 247 996 c 0
 196 996 146 965 146 902 c 2
 146 96 l 2
 146 32 195 0 246 0 c 0
EndSplineSet
EndChar

StartChar: nine
Encoding: 25 57 284
Width: 1190
VWidth: 0
GlyphClass: 2
Flags: HW
PickledData: "(dp1
S'com.typemytype.robofont.layerData'
p2
(dp3
S'b'
(dp4
S'name'
p5
S'nine'
p6
sS'lib'
p7
(dp8
sS'unicodes'
p9
(tsS'width'
p10
I1160
sS'contours'
p11
(tsS'components'
p12
(tsS'anchors'
p13
(tsss."
LayerCount: 2
Fore
SplineSet
511 -22 m 0
 1015 -22 1110 404 1110 806 c 0
 1110 1153 978 1462 571 1462 c 0
 266 1462 76 1263 76 988 c 0
 76 719 261 534 537 534 c 0
 537.974144924 533.994303246 538.947121539 533.991462357 539.918917645 533.991462357 c 0
 709.534813357 533.991462357 843.18799288 620.53549487 876 714 c 1
 876 400 825 159 516 159 c 0
 442 159 354 179 264 219 c 0
 255.433006077 222.685799711 247.074403323 224.367074849 239.052700687 224.367074849 c 0
 193.307300332 224.367074849 158.518174664 169.69059591 158.518174664 120.28642473 c 0
 158.518174664 91.3872347506 170.422029397 64.29207935 199 51 c 0
 292 7 402 -22 511 -22 c 0
562.874652104 692.975176613 m 0
 375.341710297 692.975176613 295 823.594451423 295 993 c 0
 295 1174 395 1285 581 1285 c 0
 761 1285 862 1160 862 997 c 0
 862 811.548261968 756.764472994 692.975176613 562.874652104 692.975176613 c 0
EndSplineSet
EndChar

StartChar: notequal
Encoding: 478 8800 285
Width: 1174
VWidth: 0
GlyphClass: 2
Flags: HW
LayerCount: 2
Fore
SplineSet
358 -17 m 0
 388 -17 415 -2 431 34 c 2
 544 282 l 1
 1034 282 l 2
 1085 282 1111 320 1111 359 c 0
 1111 397 1085 435 1034 435 c 2
 610 435 l 1
 724 690 l 1
 1034 690 l 2
 1085 690 1110 727 1110 765 c 0
 1110 804 1084 842 1034 842 c 2
 789 842 l 1
 873 1024 l 2
 879 1036 881 1048 881 1060 c 0
 881 1104 842 1132 802 1132 c 0
 771 1132 743 1118 727 1082 c 2
 620 842 l 1
 165 842 l 2
 113 842 89 805 89 766 c 0
 89 728 114 690 165 690 c 2
 555 690 l 1
 439 435 l 1
 165 435 l 2
 114 435 89 398 89 359 c 0
 89 320 115 282 165 282 c 2
 375 282 l 1
 288 93 l 2
 282 79 279 68 280 56 c 0
 280 12 318 -17 358 -17 c 0
EndSplineSet
EndChar

StartChar: numbersign
Encoding: 3 35 287
Width: 1203
VWidth: 0
GlyphClass: 2
Flags: HW
PickledData: "(dp1
S'com.typemytype.robofont.layerData'
p2
(dp3
S'b'
(dp4
S'name'
p5
S'numbersign'
p6
sS'lib'
p7
(dp8
sS'unicodes'
p9
(tsS'width'
p10
I1169
sS'contours'
p11
(tsS'components'
p12
(tsS'anchors'
p13
(tsss."
LayerCount: 2
Fore
SplineSet
306 -45 m 0
 340 -45 375 -24 381 21 c 2
 445 451 l 1
 694 451 l 1
 663 229 635 34 635 30 c 0
 634.890774074 28.1431592597 634.837222895 26.322109428 634.837222895 24.5367057163 c 0
 634.837222895 -22.7158006734 672.347119753 -45 708 -45 c 0
 743 -45 777 -24 784 21 c 2
 847 451 l 1
 985 451 l 2
 1033 451 1057 487 1057 522 c 0
 1057 559 1032 595 985 595 c 2
 868 595 l 1
 906 860 l 1
 1042 860 l 2
 1090 860 1113 896 1113 932 c 0
 1113 968 1089 1005 1042 1005 c 2
 927 1005 l 1
 957 1207 983 1387 983 1390 c 0
 983.109176751 1391.71043576 983.162728875 1393.39173482 983.162728875 1395.04375257 c 0
 983.162728875 1438.78650262 945.61709449 1462 909 1462 c 0
 873 1462 838 1441 831 1395 c 2
 774 1005 l 1
 525 1005 l 1
 555 1207 581 1387 581 1390 c 0
 581.106680277 1391.70688442 581.158986186 1393.38342037 581.158986186 1395.02960782 c 0
 581.158986186 1439.67653594 542.684276589 1462 507 1462 c 0
 471 1462 435 1441 428 1395 c 2
 372 1005 l 1
 217 1005 l 2
 169 1005 145 969 145 933 c 0
 145 897 170 860 217 860 c 2
 351 860 l 1
 313 595 l 1
 161 595 l 2
 113 595 89 560 89 523 c 0
 89 488 113 451 161 451 c 2
 292 451 l 1
 260 229 232 34 232 31 c 0
 231.813643398 28.5773641694 231.722790949 26.2155037094 231.722790949 23.914014124 c 0
 231.722790949 -23.1841860534 269.770387722 -45 306 -45 c 0
466 595 m 1
 504 860 l 1
 753 860 l 1
 715 595 l 1
 466 595 l 1
EndSplineSet
EndChar

StartChar: o
Encoding: 79 111 288
Width: 1173
VWidth: 0
GlyphClass: 2
Flags: HW
PickledData: "(dp1
S'b'
(dp2
sS'anchors'
p3
(tsS'com.typemytype.robofont.layerData'
p4
(dp5
S'b'
(dp6
S'name'
p7
S'o'
sS'lib'
p8
(dp9
sS'unicodes'
p10
(tsS'width'
p11
I1144
sS'contours'
p12
(tsS'components'
p13
(tsg3
(tsssg10
(tsS'com.typemytype.robofont.guides'
p14
(tsg11
I1199
sg12
(tsg13
(tsg8
(dp15
sg7
S'o'
s."
AnchorPoint: "top" 585 995 basechar 0
LayerCount: 2
Fore
SplineSet
590 121 m 0
 397 121 282 265 282 498 c 0
 282 732 396 876 590 876 c 0
 783 876 898 731 898 498 c 0
 898 265 785 122 590 121 c 0
590 -16 m 0
 923 -16 1097 223 1097 498 c 0
 1097 782 917 1013 590 1013 c 0
 259 1013 83 777 83 498 c 0
 83 222 257 -16 590 -16 c 0
EndSplineSet
EndChar

StartChar: oe
Encoding: 274 339 293
Width: 1847
VWidth: 0
GlyphClass: 2
Flags: HW
LayerCount: 2
Fore
SplineSet
1290 -30 m 0
 1491 -30 1688 61 1688 166 c 0
 1688 198 1666 226 1634 226 c 0
 1622 226 1609 222 1596 214 c 0
 1531 172 1436 124 1336 124 c 0
 1121 124 1044 270 1041 460 c 1
 1678 460 l 2
 1725 460 1745 494 1745 528 c 0
 1739 811 1602 1026 1298 1026 c 0
 1134 1026 1013 940 940 814 c 1
 867 938 745 1023 571 1023 c 0
 239 1023 80 772 80 497 c 0
 80 227 239 -26 571 -26 c 0
 743 -26 863 61 937 188 c 1
 1007 56 1125 -30 1290 -30 c 0
571 115 m 0
 371 115 289 310 289 497 c 0
 289 686 371 881 571 881 c 0
 771 881 845 680 845 491 c 0
 843 306 764 115 571 115 c 0
1041 584 m 1
 1052 750 1137 887 1294 887 c 0
 1459 887 1542 764 1554 584 c 1
 1041 584 l 1
EndSplineSet
EndChar

StartChar: ogonek
Encoding: 404 731 294
Width: 569
VWidth: 0
GlyphClass: 4
Flags: HW
AnchorPoint: "ogonek" 243 0 mark 0
LayerCount: 2
Fore
SplineSet
446 -419 m 1
 446 -325 l 1
 350.311551984 -325 242.384816041 -297.973780829 242.384816041 -183.474694115 c 0
 242.384816041 -137.631775731 259.685748555 -77.7667323849 302 0 c 1
 207 0 l 1
 115.752735754 -106.899167237 76.5184138062 -202.264547696 76.5184138062 -277.527817904 c 0
 76.5184138062 -385.444768005 157.182330989 -452.032726653 280.839464278 -452.032726653 c 0
 329.907899288 -452.032726653 385.745980921 -441.547887643 446 -419 c 1
EndSplineSet
EndChar

StartChar: one
Encoding: 17 49 298
Width: 1190
VWidth: 0
GlyphClass: 2
Flags: HW
PickledData: "(dp1
S'com.typemytype.robofont.layerData'
p2
(dp3
S'b'
(dp4
S'name'
p5
S'one'
p6
sS'lib'
p7
(dp8
sS'unicodes'
p9
(tsS'width'
p10
I1160
sS'contours'
p11
(tsS'components'
p12
(tsS'anchors'
p13
(tsss."
LayerCount: 2
Fore
SplineSet
666 0 m 0
 721 0 778 35 778 107 c 2
 778 1322 l 2
 778 1396 725 1432 671 1432 c 0
 651 1431 628 1427 610 1416 c 2
 261 1201 l 2
 233 1183 222 1160 222 1136 c 0
 222 1094 258 1054 303 1054 c 0
 316 1054 332 1058 345 1067 c 2
 554 1201 l 1
 555 107 l 2
 555 35 610 0 666 0 c 0
EndSplineSet
EndChar

StartChar: onehalf
Encoding: 124 189 299
Width: 1613
VWidth: 0
GlyphClass: 2
Flags: HW
LayerCount: 2
Fore
SplineSet
1013 -1 m 2
 1449 -1 l 2
 1482 -1 1498 24 1498 49 c 0
 1498 74 1481 100 1449 100 c 2
 1089 100 l 1
 1248 233 1490 455 1490 632 c 0
 1490 766 1373 837 1230 837 c 0
 1135 837 980 782 980 723 c 0
 980 700 998 679 1026 679 c 0
 1036 679 1047 682 1057 687 c 0
 1098 709 1158 734 1217 734 c 0
 1291 734 1361 696 1361 621 c 0
 1361 513 1187 335 1072 226 c 1
 999 151 936 110 936 60 c 0
 936 26 959 -1 1013 -1 c 2
399 582 m 0
 428 582 458 601 458 640 c 2
 458 1333 l 2
 458 1376 432 1396 403 1396 c 0
 391 1396 380 1393 370 1387 c 2
 167 1261 l 2
 152 1251 145 1238 145 1224 c 0
 145 1200 165 1177 191 1177 c 0
 200 1177 208 1179 216 1184 c 2
 340 1263 l 1
 340 640 l 2
 340 601 368 582 399 582 c 0
529 -81 m 0
 556 -81 581 -67 591 -35 c 2
 1064 1355 l 2
 1067 1364 1069 1373 1069 1380 c 0
 1069 1420 1036 1443 1001 1443 c 0
 975 1443 948 1428 937 1396 c 2
 467 7 l 2
 464 -3 462 -11 462 -18 c 0
 462 -57 495 -81 529 -81 c 0
EndSplineSet
EndChar

StartChar: onequarter
Encoding: 123 188 300
Width: 1594
VWidth: 0
GlyphClass: 2
Flags: HW
PickledData: "(dp1
S'com.typemytype.robofont.layerData'
p2
(dp3
S'b'
(dp4
S'name'
p5
S'onequarter'
p6
sS'lib'
p7
(dp8
sS'unicodes'
p9
(tsS'width'
p10
I1543
sS'contours'
p11
(tsS'components'
p12
(tsS'anchors'
p13
(tsss."
LayerCount: 2
Fore
SplineSet
1325 1 m 0
 1353 1 1381 20 1381 60 c 2
 1381 186 l 1
 1463 186 l 2
 1495 186 1509 206 1509 228 c 0
 1509 249 1494 269 1463 269 c 2
 1381 269 l 1
 1381 746 l 2
 1381 809 1346 839 1300 839 c 0
 1258 839 1223 823 1195 772 c 1
 879 283 l 2
 870 269 866 255 866 243 c 0
 866 211 891 186 931 186 c 2
 1268 186 l 1
 1268 60 l 2
 1268 20 1296 1 1325 1 c 0
399 582 m 0
 428 582 458 601 458 640 c 2
 458 1333 l 2
 458 1376 432 1396 403 1396 c 0
 391 1396 380 1393 370 1387 c 2
 167 1261 l 2
 152 1251 145 1238 145 1224 c 0
 145 1200 165 1177 191 1177 c 0
 200 1177 208 1179 216 1184 c 2
 340 1263 l 1
 340 640 l 2
 340 601 368 582 399 582 c 0
534 -81 m 0
 559 -81 585 -67 596 -35 c 2
 1069 1355 l 2
 1072 1364 1073 1373 1073 1381 c 0
 1073 1420 1040 1443 1005 1443 c 0
 979 1443 952 1428 942 1396 c 2
 472 7 l 2
 469 -3 467 -12 467 -19 c 0
 467 -57 501 -81 534 -81 c 0
976 268 m 1
 1268 730 l 1
 1268 268 l 1
 976 268 l 1
EndSplineSet
EndChar

StartChar: uni00B9
Encoding: 120 185 301
Width: 695
VWidth: 0
GlyphClass: 2
Flags: HW
LayerCount: 2
Fore
SplineSet
425 582 m 0
 454 582 485 601 485 640 c 2
 485 1333 l 2
 485 1376 459 1396 430 1396 c 0
 418 1396 407 1393 397 1387 c 2
 194 1261 l 2
 179 1251 172 1238 172 1224 c 0
 172 1200 192 1177 218 1177 c 0
 227 1177 235 1179 243 1184 c 2
 367 1263 l 1
 367 640 l 2
 367 601 395 582 425 582 c 0
EndSplineSet
EndChar

StartChar: ordfeminine
Encoding: 105 170 302
Width: 1064
VWidth: 0
GlyphClass: 2
Flags: HW
LayerCount: 2
Fore
SplineSet
396 711 m 0
 499 711 605 762 646 858 c 1
 647 793 l 2
 647 752 682 731 715 731 c 0
 749 731 784 753 784 797 c 2
 785 1243 l 2
 785 1434 665 1511 487 1511 c 0
 355 1511 253 1477 198 1409 c 0
 189 1399 185 1389 185 1378 c 0
 185 1352 205 1330 233 1330 c 0
 242 1330 250 1332 258 1337 c 0
 320 1370 378 1399 481 1399 c 0
 579 1399 644 1362 644 1254 c 2
 644 1195 l 1
 619 1197 585 1198 562 1198 c 0
 305 1198 136 1127 136 941 c 0
 136 795 248 711 396 711 c 0
435 810 m 1
 349 813 280 855 280 948 c 0
 280 1096 469 1101 644 1101 c 1
 644 1035 l 1
 638 888 550 813 435 810 c 1
EndSplineSet
EndChar

StartChar: ordmasculine
Encoding: 121 186 303
Width: 1094
VWidth: 0
GlyphClass: 2
Flags: HW
LayerCount: 2
Fore
SplineSet
531 834 m 0
 369 834 302 984 302 1118 c 0
 302 1253 369 1403 531 1403 c 0
 695 1403 761 1253 761 1120 c 0
 761 984 695 834 531 834 c 0
531 727 m 0
 803 727 925 917 925 1119 c 0
 925 1320 803 1511 531 1511 c 0
 261 1511 138 1320 138 1119 c 0
 138 917 261 727 531 727 c 0
EndSplineSet
EndChar

StartChar: oslash
Encoding: 183 248 304
Width: 1177
VWidth: 0
GlyphClass: 2
Flags: HW
AnchorPoint: "top" 573 991 basechar 0
LayerCount: 2
Fore
SplineSet
337 -179 m 0
 362 -179 384 -167 397 -137 c 2
 455.453868917 -1.65079300535 l 1
 496.941837539 -11.0148325773 541.805705281 -16 590 -16 c 0
 923 -16 1097 223 1097 498 c 0
 1097 688.511222624 1016.00150429 855.172888177 863.965918197 944.253779994 c 1
 920 1074 l 2
 927 1089 934 1106 934 1120 c 0
 934 1159 901 1182 867 1182 c 0
 839 1182 815 1169 803 1140 c 2
 740.609553856 994.700643587 l 1
 694.56179606 1006.62841279 644.308221232 1013 590 1013 c 0
 259 1013 83 777 83 498 c 0
 83 305.352205128 167.77331547 131.21812283 332.218936823 43.6112142465 c 1
 280 -78 l 2
 274 -91 270 -103 270 -116 c 0
 270 -154 302 -179 337 -179 c 0
799.028663258 793.892373242 m 1
 862.932798946 728.494266273 898 626.664149192 898 498 c 0
 898 265 785 122 590 121 c 0
 562.426103163 121 536.444328085 123.939301707 512.162575458 129.657512199 c 1
 799.028663258 793.892373242 l 1
684.040955468 862.959624779 m 1
 394.86370629 189.502857096 l 1
 322.16712674 253.680508702 282 360.297322699 282 498 c 0
 282 732 396 876 590 876 c 0
 623.806473026 876 655.219742095 871.551095206 684.040955468 862.959624779 c 1
EndSplineSet
EndChar

StartChar: p
Encoding: 80 112 307
Width: 1199
VWidth: 0
GlyphClass: 2
Flags: HW
PickledData: "(dp1
S'b'
(dp2
sS'anchors'
p3
(tsS'lib'
p4
(dp5
sS'unicodes'
p6
(tsS'width'
p7
I1207
sS'contours'
p8
(tsS'components'
p9
(tsS'com.typemytype.robofont.layerData'
p10
(dp11
S'b'
(dp12
S'name'
p13
S'p'
sg4
(dp14
sg6
(tsg7
I1181
sg8
(tsg9
(tsg3
(tsssg13
S'p'
s."
LayerCount: 2
Fore
SplineSet
246 -381 m 0
 297 -381 347 -349 347 -287 c 2
 347 160 l 1
 411 44 524 -16 670 -16 c 0
 951 -16 1116 201 1116 493 c 0
 1116 768 970 1013 685 1013 c 0
 536 1013 415 956 347 830 c 1
 347 901 l 2
 347 963 310 996 247 996 c 0
 197 996 146 963 146 900 c 2
 146 -287 l 2
 146 -349 196 -381 246 -381 c 0
637 121 m 0
 427 121 348 308 348 495 c 0
 348 719 418 876 644 876 c 0
 854 875 915 659 915 495 c 0
 915 321 848 121 637 121 c 0
EndSplineSet
EndChar

StartChar: paragraph
Encoding: 117 182 308
Width: 1318
VWidth: 0
GlyphClass: 2
Flags: HW
LayerCount: 2
Fore
SplineSet
603 -236 m 0
 644 -236 685 -209 685 -157 c 2
 685 1296 l 1
 904 1296 l 1
 904 -157 l 2
 904 -210 944 -236 985 -236 c 0
 1026 -236 1067 -210 1067 -157 c 2
 1068 1301 l 2
 1068 1368 1060 1433 943 1433 c 2
 568 1433 l 2
 283 1433 120 1288 120 1057 c 0
 120 858 295 689 521 689 c 1
 521 -157 l 2
 521 -210 562 -236 603 -236 c 0
EndSplineSet
EndChar

StartChar: parenleft
Encoding: 8 40 309
Width: 619
VWidth: 0
GlyphClass: 2
Flags: HW
LayerCount: 2
Fore
SplineSet
435 -231 m 0
 477 -231 513 -200 513 -153 c 0
 513 -138 509 -123 504 -108 c 0
 414 141 363 387 363 626 c 0
 363 868 416 1119 506 1369 c 0
 511 1384 515 1400 515 1413 c 0
 515 1461 478 1492 436 1492 c 0
 399 1492 365 1462 346 1412 c 0
 242 1155 153 891 153 624 c 0
 153 353 244 87 355 -173 c 0
 373 -216 405 -231 435 -231 c 0
EndSplineSet
EndChar

StartChar: parenright
Encoding: 9 41 310
Width: 619
VWidth: 0
GlyphClass: 2
Flags: HW
LayerCount: 2
Fore
SplineSet
186 -231 m 0
 215 -231 249 -216 268 -173 c 0
 378 86 470 352 470 624 c 0
 470 890 381 1154 276 1412 c 0
 255 1462 224 1491 187 1491 c 0
 145 1491 107 1458 107 1414 c 0
 107 1398 111 1384 117 1369 c 0
 207 1118 260 867 260 626 c 0
 260 386 208 138 119 -109 c 0
 113 -125 109 -140 109 -154 c 0
 109 -200 144 -231 186 -231 c 0
EndSplineSet
EndChar

StartChar: partialdiff
Encoding: 466 8706 311
Width: 1189
VWidth: 0
GlyphClass: 2
Flags: HW
LayerCount: 2
Fore
SplineSet
528 -25 m 0
 885 -25 1085 337 1085 825 c 0
 1085 1361 845 1614 519 1614 c 0
 382 1614 263 1575 162 1530 c 0
 127 1514 115 1489 115 1463 c 0
 115 1422 148 1381 190 1381 c 0
 200 1381 209 1383 217 1386 c 0
 305 1422 404 1453 507 1453 c 0
 742 1453 893 1268 893 855 c 0
 893 818 893 802 891 791 c 1
 882 803 737 988 542 988 c 0
 291 988 84 782 84 457 c 0
 84 228 225 -25 528 -25 c 0
545 133 m 2
 387 133 279 269 279 457 c 0
 279 665 413 834 580 834 c 0
 736 834 842 704 869 617 c 1
 844 367 726 133 547 133 c 2
 545 133 l 2
EndSplineSet
EndChar

StartChar: percent
Encoding: 5 37 312
Width: 2074
VWidth: 0
GlyphClass: 2
Flags: HW
LayerCount: 2
Fore
SplineSet
618 -68 m 0
 643 -68 662 -49 678 -22 c 2
 1444 1337 l 1
 1452 1354 1460 1372 1460 1388 c 0
 1460 1422 1433 1450 1401 1450 c 0
 1380 1450 1357 1438 1342 1409 c 1
 569 34 l 2
 561 20 552 3 552 -9 c 0
 552 -42 583 -68 618 -68 c 0
546 746 m 0
 411 746 363 873 363 1021 c 0
 363 1169 413 1296 546 1296 c 0
 680 1296 729 1169 729 1021 c 0
 729 872 680 746 546 746 c 0
546 624 m 0
 760 624 893 799 893 1021 c 0
 893 1213 793 1418 546 1418 c 0
 329 1418 200 1242 200 1021 c 0
 200 789 328 624 546 624 c 0
1527 90 m 0
 1391 90 1345 217 1345 366 c 0
 1345 514 1392 640 1527 640 c 0
 1663 640 1709 512 1709 366 c 0
 1709 214 1660 90 1527 90 c 0
1527 -32 m 0
 1745 -32 1874 146 1874 366 c 0
 1874 556 1775 762 1527 762 c 0
 1311 762 1181 586 1181 366 c 0
 1181 135 1308 -32 1527 -32 c 0
EndSplineSet
EndChar

StartChar: period
Encoding: 14 46 313
Width: 602
VWidth: 0
GlyphClass: 2
Flags: HW
LayerCount: 2
Fore
SplineSet
301 -2 m 0
 377 -2 425 53 425 114 c 0
 425 176 375 230 301 230 c 0
 224 230 176 173 176 114 c 0
 176 52 226 -2 301 -2 c 0
EndSplineSet
EndChar

StartChar: periodcentered
Encoding: 118 183 314
Width: 601
VWidth: 0
GlyphClass: 2
Flags: HW
LayerCount: 2
Fore
SplineSet
292 401 m 0
 369 401 417 457 417 519 c 0
 417 580 369 636 292 636 c 0
 214 636 166 580 166 519 c 0
 166 457 214 401 292 401 c 0
EndSplineSet
EndChar

StartChar: perthousand
Encoding: 456 8240 315
Width: 2314
VWidth: 0
GlyphClass: 2
Flags: HW
LayerCount: 2
Fore
SplineSet
370 -68 m 0
 394 -68 414 -49 429 -22 c 2
 1196 1337 l 2
 1205 1354 1213 1373 1213 1388 c 0
 1213 1423 1185 1450 1153 1450 c 0
 1131 1450 1110 1438 1094 1409 c 2
 321 34 l 2
 313 20 305 4 305 -9 c 0
 305 -41 336 -68 370 -68 c 0
370 753 m 0
 234 753 188 884 188 1028 c 0
 188 1168 233 1302 370 1302 c 0
 506 1302 551 1169 551 1028 c 0
 551 878 502 753 370 753 c 0
367 636 m 0
 587 636 700 816 700 1032 c 0
 700 1246 577 1418 373 1418 c 0
 153 1418 40 1238 40 1024 c 0
 40 806 163 636 367 636 c 0
1168 85 m 0
 1031 85 987 216 987 359 c 0
 987 500 1032 633 1168 633 c 0
 1304 633 1350 502 1350 359 c 0
 1350 211 1301 85 1168 85 c 0
1165 -32 m 0
 1384 -32 1499 148 1499 362 c 0
 1499 580 1374 750 1172 750 c 0
 952 750 837 570 837 355 c 0
 837 138 961 -32 1165 -32 c 0
1916 85 m 0
 1779 85 1734 216 1734 359 c 0
 1734 506 1783 633 1916 633 c 0
 2052 633 2098 501 2098 359 c 0
 2098 210 2049 85 1916 85 c 0
1913 -32 m 0
 2132 -32 2246 148 2246 362 c 0
 2246 578 2124 750 1920 750 c 0
 1700 750 1585 570 1585 355 c 0
 1585 137 1710 -32 1913 -32 c 0
EndSplineSet
EndChar

StartChar: pi
Encoding: 417 960 316
Width: 1247
VWidth: 0
GlyphClass: 2
Flags: HW
PickledData: "(dp1
S'com.typemytype.robofont.layerData'
p2
(dp3
S'b'
(dp4
S'name'
p5
S'pi'
p6
sS'lib'
p7
(dp8
sS'unicodes'
p9
(tsS'width'
p10
I1285
sS'contours'
p11
(tsS'components'
p12
(tsS'anchors'
p13
(tsss."
LayerCount: 2
Fore
SplineSet
969 -18 m 0
 1042.31027254 -7.02306079665 1064.59536587 17.9396955992 1064.59536587 61.9494163865 c 0
 1064.59536587 130.199785522 1011 244.257861635 1011 423 c 2
 1011 914 l 1
 1093 914 l 2
 1146 914 1173 953 1173 994 c 0
 1173 1033 1146 1073 1093 1073 c 2
 210 1073 l 2
 146 1073 114 1033 114 994 c 0
 114 953 146 914 210 914 c 2
 287 914 l 1
 287 624 209 325 127 97 c 0
 121.840499792 83.5221219065 119.497156339 70.9755712437 119.497156339 59.4712548353 c 0
 119.497156339 8.156491864 166.120022086 -22.4221098505 217.405875839 -22.4221098505 c 0
 263.817632737 -22.4221098505 314.04817401 2.62043502375 337 60 c 0
 411 246 464 648 474 914 c 1
 818 914 l 1
 818 382 l 2
 818 74.0173455306 844.568625876 -20.5860323757 939.315268876 -20.5860323757 c 0
 948.549693866 -20.5860323757 958.431762964 -19.6873655772 969 -18 c 0
EndSplineSet
EndChar

StartChar: plus
Encoding: 11 43 317
Width: 1325
VWidth: 0
GlyphClass: 2
Flags: HW
LayerCount: 2
Fore
SplineSet
662 3 m 0
 713 3 741 46 741 89 c 2
 741 422 l 1
 1089 422 l 2
 1136 422 1176 453 1176 499 c 0
 1176 550 1132 576 1089 576 c 2
 741 576 l 1
 741 912 l 2
 741 959 710 998 662 998 c 0
 610 998 583 955 583 912 c 2
 583 576 l 1
 237 576 l 2
 188 576 149 546 149 499 c 0
 149 450 192 422 237 422 c 2
 583 422 l 1
 583 89 l 2
 583 39 613 3 662 3 c 0
EndSplineSet
EndChar

StartChar: plusminus
Encoding: 112 177 318
Width: 1326
VWidth: 0
GlyphClass: 2
Flags: HW
LayerCount: 2
Fore
SplineSet
661 227 m 0
 701 227 741 252 741 301 c 2
 741 534 l 1
 1098 534 l 2
 1148 534 1175 572 1175 610 c 0
 1175 649 1149 686 1098 686 c 2
 741 686 l 1
 741 921 l 2
 741 970 703 995 663 995 c 0
 624 995 584 970 584 921 c 2
 584 686 l 1
 228 686 l 2
 177 686 152 649 152 610 c 0
 152 572 177 534 228 534 c 2
 584 534 l 1
 584 301 l 2
 584 251 622 227 661 227 c 0
228 0 m 2
 1098 0 l 2
 1148 0 1175 38 1175 76 c 0
 1175 115 1150 152 1098 152 c 2
 228 152 l 2
 177 152 152 115 152 76 c 0
 152 38 177 0 228 0 c 2
EndSplineSet
EndChar

StartChar: product
Encoding: 469 8719 319
Width: 1508
VWidth: 0
GlyphClass: 2
Flags: HW
LayerCount: 2
Fore
SplineSet
385 0 m 0
 433 0 482 31 482 96 c 2
 482 1267 l 1
 1030 1267 l 1
 1030 95 l 2
 1030 31 1078 0 1127 0 c 0
 1176 0 1225 31 1225 95 c 2
 1226 1267 l 1
 1359 1267 l 2
 1410 1267 1434 1310 1434 1353 c 0
 1434 1396 1410 1439 1360 1439 c 2
 147 1439 l 2
 92 1439 65 1396 65 1353 c 0
 65 1310 92 1267 145 1267 c 2
 287 1267 l 1
 287 96 l 2
 287 32 335 0 385 0 c 0
EndSplineSet
EndChar

StartChar: q
Encoding: 81 113 320
Width: 1199
VWidth: 0
GlyphClass: 2
Flags: HW
PickledData: "(dp1
S'b'
(dp2
sS'anchors'
p3
(tsS'lib'
p4
(dp5
sS'unicodes'
p6
(tsS'width'
p7
I1207
sS'contours'
p8
(tsS'components'
p9
(tsS'com.typemytype.robofont.layerData'
p10
(dp11
S'b'
(dp12
S'name'
p13
S'p'
sg4
(dp14
sg6
(tsg7
I1181
sg8
(tsg9
(tsg3
(tsssg13
S'p'
s."
LayerCount: 2
Fore
SplineSet
953 -381 m 0
 1003 -381 1053 -349 1053 -287 c 2
 1053 900 l 2
 1053 963 1002 996 952 996 c 0
 889 996 852 963 852 901 c 2
 852 830 l 1
 784 956 663 1013 514 1013 c 0
 229 1013 83 768 83 493 c 0
 83 201 248 -16 529 -16 c 0
 675 -16 788 44 852 160 c 1
 852 -287 l 2
 852 -349 902 -381 953 -381 c 0
562 121 m 0
 351 121 284 321 284 495 c 0
 284 659 344 875 555 876 c 0
 781 876 851 719 851 495 c 0
 851 308 772 121 562 121 c 0
EndSplineSet
EndChar

StartChar: question
Encoding: 31 63 321
Width: 1041
VWidth: 0
GlyphClass: 2
Flags: HW
LayerCount: 2
Fore
SplineSet
325 455 m 1
 326.506697096 397.243277987 375.434015764 368.998325782 423.642887088 368.998325782 c 0
 471.42319259 368.998325782 518.497767635 396.743327821 518 451 c 2
 517 542 l 2
 516 700 911 780 911 1087 c 0
 911 1348 718 1451 489 1451 c 0
 394 1451 291 1437 195 1411 c 0
 144 1397 122 1359 122 1323 c 0
 122 1275 153 1234 201 1234 c 0
 245 1234 378 1266 438 1266 c 0
 560 1266 679 1232 679 1070 c 0
 679 839 328 768 325 564 c 1
 325 455 l 1
425 -24 m 0
 502 -24 550 31 550 93 c 0
 550 155 500 208 425 208 c 0
 347 208 301 152 301 93 c 0
 301 31 349 -24 425 -24 c 0
EndSplineSet
EndChar

StartChar: quotedbl
Encoding: 2 34 323
Width: 705
VWidth: 0
GlyphClass: 2
Flags: HW
LayerCount: 2
Fore
SplineSet
201 976 m 0
 230 976 260 998 265 1049 c 2
 294 1404 l 1
 295 1454 249 1479 202 1479 c 0
 155 1479 107 1454 109 1401 c 0
 109 1400 121 1244 138 1049 c 0
 142 997 172 976 201 976 c 0
496 976 m 0
 525 976 555 997 560 1049 c 2
 588 1404 l 1
 590 1453 543 1479 497 1479 c 0
 451 1479 403 1453 404 1404 c 0
 404 1402 416 1244 433 1049 c 0
 438 998 466 976 496 976 c 0
EndSplineSet
EndChar

StartChar: quotedblbase
Encoding: 451 8222 324
Width: 1154
VWidth: 0
GlyphClass: 2
Flags: HW
PickledData: "(dp1
S'b'
(dp2
sS'anchors'
p3
(tsS'lib'
p4
(dp5
sS'unicodes'
p6
(tsS'width'
p7
I1161
sS'contours'
p8
(tsS'components'
p9
(tsS'com.typemytype.robofont.layerData'
p10
(dp11
S'b'
(dp12
S'name'
p13
S'quotedblbase'
p14
sg4
(dp15
sg6
(tsg7
I1146
sg8
(tsg9
(tsg3
(tsssg13
S'quotedblbase'
p16
s."
LayerCount: 2
Fore
SplineSet
256 -254 m 2
 321 -254 l 2
 322.104067954 -254.038071309 323.187843965 -254.057300098 324.251935029 -254.057300098 c 0
 351.13779099 -254.057300098 365.456855705 -241.781718119 377 -211 c 2
 537 196 l 2
 538.8 200.2 540.24 206.65 540.24 213.703 c 0
 540.24 230.16 532.4 249.9 503 252 c 1
 378 252 l 1
 346 251 313 243 305 196 c 2
 232 -211 l 2
 231.483602221 -214.098386677 230.967204441 -218.396773354 230.967204441 -223.086136843 c 0
 230.967204441 -236.558600051 235.229568913 -253.25819889 256 -254 c 2
668 -254 m 2
 732 -254 l 2
 733.104067954 -254.038071309 734.18929339 -254.057300098 735.256117758 -254.057300098 c 0
 762.211034758 -254.057300098 777.418784397 -241.781718119 788 -211 c 1
 949 196 l 2
 950.8 200.2 952.24 206.65 952.24 213.703 c 0
 952.24 230.16 944.4 249.9 915 252 c 1
 790 252 l 1
 758 251 725 243 717 196 c 2
 644 -211 l 2
 643.483602221 -214.098386677 642.967204441 -218.396773354 642.967204441 -223.086136843 c 0
 642.967204441 -236.558600051 647.229568913 -253.25819889 668 -254 c 2
EndSplineSet
EndChar

StartChar: quotedblleft
Encoding: 449 8220 325
Width: 1154
VWidth: 0
GlyphClass: 2
Flags: HW
PickledData: "(dp1
S'b'
(dp2
sS'anchors'
p3
(tsS'lib'
p4
(dp5
sS'unicodes'
p6
(tsS'width'
p7
I1161
sS'contours'
p8
(tsS'components'
p9
(tsS'com.typemytype.robofont.layerData'
p10
(dp11
S'b'
(dp12
S'name'
p13
S'quotedblleft'
p14
sg4
(dp15
sg6
(tsg7
I1146
sg8
(tsg9
(tsg3
(tsssg13
S'quotedblleft'
p16
s."
LayerCount: 2
Fore
SplineSet
228 927 m 2
 354 927 l 1
 386 928 419 936 427 983 c 2
 499 1390 l 2
 501 1402 503 1433 475 1433 c 2
 411 1433 l 2
 382 1433 367 1422 355 1390 c 2
 194 983 l 2
 192.511785048 978.832998134 191.200752796 972.185438477 191.200752796 964.903122624 c 0
 191.200752796 947.718825496 198.501005597 927 228 927 c 2
636 927 m 2
 761 927 l 1
 793 928 826 936 834 983 c 2
 907 1390 l 2
 907.516397779 1393.09838668 908.032795559 1397.46344002 908.032795559 1402.23449707 c 0
 908.032795559 1415.9416645 903.770431087 1433 883 1433 c 2
 819 1433 l 2
 790 1433 774 1422 763 1390 c 1
 602 983 l 2
 600.2 978.8 598.76 972.08 598.76 964.73 c 0
 598.76 947.58 606.6 927 636 927 c 2
EndSplineSet
EndChar

StartChar: quotedblright
Encoding: 450 8221 326
Width: 1154
VWidth: 0
GlyphClass: 2
Flags: HW
PickledData: "(dp1
S'b'
(dp2
sS'anchors'
p3
(tsS'lib'
p4
(dp5
sS'unicodes'
p6
(tsS'width'
p7
I1161
sS'contours'
p8
(tsS'components'
p9
(tsS'com.typemytype.robofont.layerData'
p10
(dp11
S'b'
(dp12
S'name'
p13
S'quotedblright'
p14
sg4
(dp15
sg6
(tsg7
I1146
sg8
(tsg9
(tsg3
(tsssg13
S'quotedblright'
p16
s."
LayerCount: 2
Fore
SplineSet
250 927 m 2
 314 927 l 2
 315.104067954 926.961928691 316.187843965 926.942699902 317.251935029 926.942699902 c 0
 344.13779099 926.942699902 358.456855705 939.218281881 370 970 c 2
 531 1377 l 2
 532.488214952 1381.16700187 533.799247204 1387.63737882 533.799247204 1394.72354084 c 0
 533.799247204 1411.44496794 526.498994403 1431.59528598 497 1433 c 1
 371 1433 l 1
 339 1432 306 1424 298 1377 c 2
 226 970 l 2
 225.483602221 966.901613323 224.967204441 962.536559979 224.967204441 957.765502935 c 0
 224.967204441 944.058335502 229.229568913 927 250 927 c 2
651 927 m 2
 715 927 l 2
 716.104067954 926.961928691 717.187843965 926.942699902 718.251935029 926.942699902 c 0
 745.13779099 926.942699902 759.456855705 939.218281881 771 970 c 2
 932 1377 l 2
 933.488214952 1381.16700187 934.799247204 1387.63737882 934.799247204 1394.72354084 c 0
 934.799247204 1411.44496794 927.498994403 1431.59528598 898 1433 c 1
 772 1433 l 1
 740 1432 707 1424 699 1377 c 2
 627 970 l 2
 626.483602221 966.901613323 625.967204441 962.536559979 625.967204441 957.765502935 c 0
 625.967204441 944.058335502 630.229568913 927 651 927 c 2
EndSplineSet
EndChar

StartChar: quoteleft
Encoding: 446 8216 327
Width: 601
VWidth: 0
GlyphClass: 2
Flags: HW
PickledData: "(dp1
S'b'
(dp2
sS'anchors'
p3
(tsS'lib'
p4
(dp5
sS'unicodes'
p6
(tsS'width'
p7
I615
sS'contours'
p8
(tsS'components'
p9
(tsS'com.typemytype.robofont.layerData'
p10
(dp11
S'b'
(dp12
S'name'
p13
S'quoteleft'
p14
sg4
(dp15
sg6
(tsg7
I584
sg8
(tsg9
(tsg3
(tsssg13
S'quoteleft'
p16
s."
LayerCount: 2
Fore
SplineSet
161 927 m 2
 287 927 l 1
 319 928 352 936 360 983 c 2
 432 1390 l 2
 432.516397779 1393.09838668 433.032795559 1397.46344002 433.032795559 1402.23449707 c 0
 433.032795559 1415.9416645 428.770431087 1433 408 1433 c 2
 344 1433 l 2
 315 1433 300 1422 288 1390 c 2
 127 983 l 2
 125.511785048 978.832998134 124.200752796 972.185438477 124.200752796 964.903122624 c 0
 124.200752796 947.718825496 131.501005597 927 161 927 c 2
EndSplineSet
EndChar

StartChar: quoteright
Encoding: 447 8217 328
Width: 601
VWidth: 0
GlyphClass: 2
Flags: HW
PickledData: "(dp1
S'b'
(dp2
sS'anchors'
p3
(tsS'lib'
p4
(dp5
sS'unicodes'
p6
(tsS'width'
p7
I615
sS'contours'
p8
(tsS'components'
p9
(tsS'com.typemytype.robofont.layerData'
p10
(dp11
S'b'
(dp12
S'name'
p13
S'quoteright'
p14
sg4
(dp15
sg6
(tsg7
I584
sg8
(tsg9
(tsg3
(tsssg13
S'quoteright'
p16
s."
LayerCount: 2
Fore
SplineSet
176 927 m 2
 241 927 l 2
 270 927 285 938 297 970 c 2
 457 1377 l 2
 458.8 1381.2 460.24 1387.92 460.24 1395.27 c 0
 460.24 1412.42 452.4 1433 423 1433 c 2
 298 1433 l 1
 266 1432 233 1424 225 1377 c 2
 152 970 l 2
 151.483602221 966.901613323 150.967204441 962.536559979 150.967204441 957.765502935 c 0
 150.967204441 944.058335502 155.229568913 927 176 927 c 2
EndSplineSet
EndChar

StartChar: quotesinglbase
Encoding: 448 8218 329
Width: 601
VWidth: 0
GlyphClass: 2
Flags: HW
PickledData: "(dp1
S'com.typemytype.robofont.layerData'
p2
(dp3
S'b'
(dp4
S'name'
p5
S'quotesinglbase'
p6
sS'lib'
p7
(dp8
sS'unicodes'
p9
(tsS'width'
p10
I615
sS'contours'
p11
(tsS'components'
p12
(tsS'anchors'
p13
(tsss."
LayerCount: 2
Fore
SplineSet
176 -286 m 2
 241 -286 l 2
 270 -286 285 -275 297 -243 c 2
 457 165 l 2
 458.8 169.2 460.24 175.92 460.24 183.27 c 0
 460.24 200.42 452.4 221 423 221 c 2
 298 221 l 1
 266 220 233 212 225 165 c 2
 152 -243 l 2
 151.483602221 -246.098386677 150.967204441 -250.396773354 150.967204441 -255.086136843 c 0
 150.967204441 -268.558600051 155.229568913 -285.25819889 176 -286 c 2
EndSplineSet
EndChar

StartChar: quotesingle
Encoding: 7 39 330
Width: 601
VWidth: 0
GlyphClass: 2
Flags: HW
LayerCount: 2
Fore
SplineSet
299 976 m 0
 328 976 359 994 363 1042 c 2
 392 1404 l 1
 392 1454 347 1479 301 1479 c 0
 254 1479 207 1453 207 1404 c 0
 207 1402 220 1237 237 1042 c 0
 242 994 270 976 299 976 c 0
EndSplineSet
EndChar

StartChar: r
Encoding: 82 114 331
Width: 742
VWidth: 0
GlyphClass: 2
Flags: HW
PickledData: "(dp1
S'b'
(dp2
sS'anchors'
p3
(tsS'lib'
p4
(dp5
sS'unicodes'
p6
(tsS'width'
p7
I763
sS'contours'
p8
(tsS'components'
p9
(tsS'com.typemytype.robofont.layerData'
p10
(dp11
S'b'
(dp12
S'name'
p13
S'r'
sg4
(dp14
sg6
(tsg7
I715
sg8
(tsg9
(tsg3
(tsssg13
S'r'
s."
AnchorPoint: "top" 367 1001 basechar 0
AnchorPoint: "bot" 247 0 basechar 0
LayerCount: 2
Fore
SplineSet
247 0 m 0
 298 0 350 32 350 95 c 2
 350 584 l 2
 350 760 465 835 634 835 c 0
 680.275935793 835 703.298320463 875.100511631 703.298320463 916.234404334 c 0
 703.298320463 959.54439677 677.775603752 1004 627 1004 c 0
 488 1004 380 905 348 785 c 1
 350 908 l 2
 350.496887525 966.135840383 300.626743773 995.878501369 250.320387588 995.878501369 c 0
 199.383799062 995.878501369 148 965.385946945 148 903 c 2
 148 95 l 2
 148 30 197 0 247 0 c 0
EndSplineSet
EndChar

StartChar: radical
Encoding: 474 8730 333
Width: 1332
VWidth: 0
GlyphClass: 2
Flags: HW
LayerCount: 2
Fore
SplineSet
243.225717209 558.632226878 m 0
 179.721264516 558.632226878 124.737768033 510.437884921 124.737768033 453.097841351 c 0
 124.737768033 434.355496346 129.455992074 419.997726741 139 405 c 2
 339 55 l 1
 400 -56 439 -102 528 -102 c 0
 621 -102 680 -58 720 53 c 2
 1228 1435 l 2
 1233 1448 1235 1460 1235 1471 c 0
 1235 1529 1181 1569 1125 1569 c 0
 1091 1569 1041 1547 1019 1490 c 1
 529 153 l 1
 525 152 l 1
 337 502 l 2
 314.996731939 541.775138418 280.102060776 558.632226878 243.225717209 558.632226878 c 0
EndSplineSet
EndChar

StartChar: registered
Encoding: 109 174 336
Width: 1679
VWidth: 0
GlyphClass: 2
Flags: HW
LayerCount: 2
Fore
SplineSet
644 385 m 0
 675 385 707 405 707 443 c 2
 707 723 l 1
 845 723 l 1
 1041 412 l 2
 1052.55493536 393.630615576 1069.55235918 386.058425987 1086.73863387 386.058425987 c 0
 1118.44696779 386.058425987 1150.79814091 411.833791194 1150.79814091 443.130771471 c 0
 1150.79814091 452.124740453 1148.12643943 461.574708576 1142 471 c 2
 967 725 l 1
 1097 740 1193 786 1193 931 c 0
 1193 1071 1118 1140 910 1140 c 2
 661 1140 l 2
 607 1140 583 1101 583 1058 c 2
 583 443 l 2
 583 404 613 385 644 385 c 0
707 825 m 1
 707 1037 l 1
 894 1037 l 2
 987 1037 1063 1020 1063 937 c 0
 1063 833 985 825 894 825 c 0
 872.666666667 825 811.333333333 825.888888889 763.037037037 825.888888889 c 0
 738.888888889 825.888888889 718 825.666666667 707 825 c 1
844 200 m 0
 511 200 266 438 266 759 c 0
 266 1080 511 1317 844 1317 c 0
 1175 1317 1420 1080 1420 759 c 0
 1420 438 1175 200 844 200 c 0
844 81 m 0
 1235 81 1555 388 1555 759 c 0
 1555 1134 1235 1442 844 1442 c 0
 452 1442 131 1134 131 759 c 0
 131 388 452 81 844 81 c 0
EndSplineSet
EndChar

StartChar: ring
Encoding: 403 730 337
Width: 569
VWidth: 0
GlyphClass: 4
Flags: HW
AnchorPoint: "top" 285 1040 mark 0
LayerCount: 2
Fore
SplineSet
285 1274 m 0
 221 1274 178 1315 178 1378 c 0
 178 1440 221 1481 285 1481 c 0
 349 1481 392 1440 392 1378 c 0
 392 1315 349 1274 285 1274 c 0
285 1184 m 0
 404 1184 484 1262 484 1378 c 0
 484 1493 404 1570 285 1570 c 0
 166 1570 85 1493 85 1378 c 0
 85 1262 166 1184 285 1184 c 0
EndSplineSet
EndChar

StartChar: s
Encoding: 83 115 338
Width: 1004
VWidth: 0
GlyphClass: 2
Flags: HW
PickledData: "(dp1
S'b'
(dp2
sS'anchors'
p3
(tsS'lib'
p4
(dp5
sS'unicodes'
p6
(tsS'width'
p7
F1006.76
sS'contours'
p8
(tsS'components'
p9
(tsS'com.typemytype.robofont.layerData'
p10
(dp11
S'b'
(dp12
S'name'
p13
S's'
sg4
(dp14
sg6
(tsg7
I1007
sg8
(tsg9
(tsg3
(tsssg13
S's'
s."
AnchorPoint: "top" 495 1002 basechar 0
AnchorPoint: "bot" 508 0 basechar 0
LayerCount: 2
Fore
SplineSet
141 93 m 0
 216.701304597 38.7814980589 356.575627693 -18.0636368033 518.933095327 -18.0636368033 c 0
 744.047378841 -18.0636368033 916.256614858 80.7256461177 916.256614858 291.759571567 c 0
 916.256614858 436.566796417 833.681945903 526.817924549 627 579 c 1
 459 620 l 2
 328 652 295 672 295 750 c 0
 295 844.467380055 394.588587408 881.07853314 516.175057599 881.07853314 c 0
 632.94551609 881.07853314 727.895716927 838.408104614 775 821 c 0
 786.853389188 816.712603911 797.81631224 814.794483789 807.764450657 814.794483789 c 0
 847.032047071 814.794483789 870.488660118 844.680002629 870.488660118 876.704803565 c 0
 870.488660118 900.906502019 857.092383189 926.329963195 827 941 c 0
 765.843646295 972.632596744 646.133959189 1016.2147639 500.958600696 1016.2147639 c 0
 287.385863932 1016.2147639 107.98443349 934.138885008 107.98443349 741.121512492 c 0
 107.98443349 556.280906798 223.785178323 513.308426229 418 464 c 2
 588 421 l 2
 698.521425134 393.369643716 744.164001205 349.553070252 744.164001205 277.269820234 c 0
 744.164001205 164.966496861 638.235302433 116.985311036 509.898324803 116.985311036 c 0
 386.47664972 116.985311036 291.0755347 160.953777273 224 202 c 0
 207.070373128 211.860112354 191.075238609 216.078659757 176.716446729 216.078659757 c 0
 137.126844877 216.078659757 109.976679702 184.009365676 109.976679702 149.697116946 c 0
 109.976679702 129.561219951 119.326775812 108.652884135 141 93 c 0
EndSplineSet
EndChar

StartChar: section
Encoding: 102 167 344
Width: 1203
VWidth: 0
GlyphClass: 2
Flags: HW
LayerCount: 2
Fore
SplineSet
558 -33 m 0
 783 -33 968 69 968 279 c 0
 968 412 877 485 758 532 c 1
 874 580 977 670 977 793 c 0
 977 1071 474 1040 474 1231 c 0
 474 1339 590 1366 682 1366 c 0
 742 1366 820 1342 862 1334 c 0
 864.929489151 1333.39686988 867.962911427 1333.10553914 871.060608846 1333.10553914 c 0
 903.915156632 1333.10553914 944 1365.87726505 944 1407 c 0
 944 1435 929 1463 891 1473 c 0
 811 1494 728 1511 642 1511 c 0
 421 1511 248 1430 248 1226 c 0
 248 1108 330 1053 437 982 c 1
 323 941 214 846 214 729 c 0
 214 414 745 485 745 286 c 0
 745 160 624 113 514 113 c 0
 421 113 353 125 294 146 c 0
 285.351594567 148.882801811 277.036636979 150.200963736 269.170150284 150.200963736 c 0
 227.918879397 150.200963736 199 113.953151129 199 77 c 0
 199 50 214 25 252 12 c 0
 349 -19 454 -33 558 -33 c 0
611 588 m 1
 530 623 407 664 407 754 c 0
 407 843 483 881 563 931 c 1
 655 888 788 860 788 765 c 0
 788 677 692 633 611 588 c 1
EndSplineSet
EndChar

StartChar: semicolon
Encoding: 27 59 345
Width: 602
VWidth: 0
GlyphClass: 2
Flags: HW
LayerCount: 2
Fore
SplineSet
329 800 m 0
 407 800 454 855 454 918 c 0
 454 979 404 1032 329 1032 c 0
 252 1032 205 977 205 918 c 0
 205 853 254 800 329 800 c 0
EndSplineSet
Refer: 177 44 N 1 0 0 1 10 109 2
EndChar

StartChar: seven
Encoding: 23 55 346
Width: 1190
VWidth: 0
GlyphClass: 2
Flags: HW
PickledData: "(dp1
S'com.typemytype.robofont.layerData'
p2
(dp3
S'b'
(dp4
S'name'
p5
S'seven'
p6
sS'lib'
p7
(dp8
sS'unicodes'
p9
(tsS'width'
p10
I1160
sS'contours'
p11
(tsS'components'
p12
(tsS'anchors'
p13
(tsss."
LayerCount: 2
Fore
SplineSet
452 0 m 0
 491 0 530 18 550 63 c 2
 1054 1226 l 2
 1068 1258 1075 1295 1075 1323 c 0
 1075 1384 1034 1427 951 1427 c 2
 184 1427 l 2
 125 1427 96 1381 96 1337 c 0
 96 1293 125 1248 184 1248 c 2
 827 1248 l 1
 349 153 l 2
 341 135 336 119 337 104 c 0
 337 42 394 0 452 0 c 0
EndSplineSet
EndChar

StartChar: six
Encoding: 22 54 347
Width: 1190
VWidth: 0
GlyphClass: 2
Flags: HW
PickledData: "(dp1
S'com.typemytype.robofont.layerData'
p2
(dp3
S'b'
(dp4
S'name'
p5
S'nine'
p6
sS'lib'
p7
(dp8
sS'unicodes'
p9
(tsS'width'
p10
I1160
sS'contours'
p11
(tsS'components'
p12
(tsS'anchors'
p13
(tsss."
LayerCount: 2
Fore
SplineSet
622 -22 m 0
 927 -22 1117 178 1117 452 c 0
 1117 721 932 906 655 906 c 0
 654.03155183 906.005696754 653.064239516 906.008537643 652.098075443 906.008537643 c 0
 483.465186643 906.008537643 349.81200712 819.46450513 317 726 c 1
 317 1040 368 1281 676 1281 c 0
 750 1281 838 1261 929 1222 c 0
 937.772129854 1218.12394262 946.32576924 1216.35995977 954.522954991 1216.35995977 c 0
 999.984236334 1216.35995977 1034.48182534 1270.6160069 1034.48182534 1319.75026959 c 0
 1034.48182534 1348.61276525 1022.5779706 1375.70792065 994 1389 c 0
 901 1433 791 1462 682 1462 c 0
 178 1462 83 1036 83 634 c 0
 83 287 215 -22 622 -22 c 0
630.125347896 747.024823387 m 0
 816.663028293 747.024823387 898 616.405548577 898 447 c 0
 898 266 798 155 611 155 c 0
 432 155 331 280 331 443 c 0
 331 628.451738032 436.235527006 747.024823387 630.125347896 747.024823387 c 0
EndSplineSet
EndChar

StartChar: slash
Encoding: 15 47 348
Width: 755
VWidth: 0
GlyphClass: 2
Flags: HW
LayerCount: 2
Fore
SplineSet
137 -158 m 0
 168 -158 197 -141 210 -103 c 2
 691 1336 l 2
 695 1347 696 1357 696 1367 c 0
 696 1413 657 1441 617 1441 c 0
 585 1441 553 1425 541 1385 c 1
 63 -54 l 2
 60 -65 58 -76 58 -84 c 0
 58 -130 97 -158 137 -158 c 0
EndSplineSet
EndChar

StartChar: slashbar
Encoding: 65541 -1 349
Width: 600
VWidth: 0
GlyphClass: 2
Flags: HW
LayerCount: 2
Fore
SplineSet
78 615 m 2
 704 822 l 2
 740.928910822 834.182733467 756.551579236 862.453854057 756.551579236 891.086967715 c 0
 756.551579236 930.387327121 727.12016679 970.369642193 682.953552026 970.369642193 c 0
 674.776375462 970.369642193 666.094102086 968.999118773 657 966 c 2
 32 762 l 2
 -7.68843373613 749.032491948 -24.8325013538 718.30743524 -24.8325013538 687.846050718 c 0
 -24.8325013538 648.685840533 3.50128542746 609.961398081 48.6951483836 609.961398081 c 0
 57.8091266491 609.961398081 67.6087771764 611.536259059 78 615 c 2
EndSplineSet
EndChar

StartChar: sterling
Encoding: 98 163 351
Width: 1372
VWidth: 0
GlyphClass: 2
Flags: HW
PickledData: "(dp1
S'com.typemytype.robofont.layerData'
p2
(dp3
S'b'
(dp4
S'name'
p5
S'sterling'
p6
sS'lib'
p7
(dp8
sS'unicodes'
p9
(tsS'width'
p10
I1361
sS'contours'
p11
(tsS'components'
p12
(tsS'anchors'
p13
(tsss."
LayerCount: 2
Fore
SplineSet
229 -1 m 2
 1088 -1 l 2
 1120 -1 1136 42 1136 85 c 0
 1136 128 1120 171 1088 171 c 2
 526 171 l 1
 526 735 l 1
 873 735 l 2
 904.77851897 735 918.937560354 769.775284708 918.937560354 805.837761858 c 0
 918.937560354 844.672528791 902.517900858 885 874 885 c 2
 526 885 l 1
 526 993 l 2
 526 1211 549 1289 746 1289 c 0
 831 1289 913 1273 990 1259 c 0
 991.776456097 1258.6648196 993.516961506 1258.50265189 995.220800762 1258.50265189 c 0
 1028.47600835 1258.50265189 1047.76343408 1320.27960424 1047.76343408 1363.1989072 c 0
 1047.76343408 1383.68653914 1043.36849891 1399.87716703 1034 1403 c 0
 952 1427 830 1450 724 1450 c 0
 475 1450 317 1338 317 1075 c 2
 317 885 l 1
 194 885 l 2
 165.067359797 885 151.946564455 850.120930453 151.946564455 814.000910353 c 0
 151.946564455 775.215868531 167.074954843 735 194 735 c 2
 317 735 l 1
 317 169 l 1
 227 169 l 2
 197.371881777 169 182.618027098 127.547134389 182.618027098 85.5804165997 c 0
 182.618027098 42.5601956831 198.121920193 -1 229 -1 c 2
EndSplineSet
EndChar

StartChar: summation
Encoding: 470 8721 352
Width: 1191
VWidth: 0
GlyphClass: 2
Flags: HW
LayerCount: 2
Fore
SplineSet
113 -199 m 2
 1148 -199 l 2
 1203 -199 1231 -155 1231 -112 c 0
 1231 -67 1203 -24 1148 -24 c 2
 304 -24 l 1
 828 642 l 1
 346 1276 l 1
 1113 1276 l 2
 1165 1276 1191 1317 1191 1357 c 0
 1191 1397 1165 1438 1113 1438 c 2
 143 1438 l 2
 78 1438 55 1403 55 1367 c 0
 55 1344 63 1323 76 1308 c 1
 602 616 l 1
 51 -79 l 2
 39 -93 32 -112 32 -132 c 0
 32 -166 52 -199 113 -199 c 2
EndSplineSet
EndChar

StartChar: t
Encoding: 84 116 353
Width: 754
VWidth: 0
GlyphClass: 2
Flags: HW
PickledData: "(dp1
S'b'
(dp2
sS'anchors'
p3
(tsS'lib'
p4
(dp5
sS'unicodes'
p6
(tsS'width'
p7
I768
sS'contours'
p8
(tsS'components'
p9
(tsS'com.typemytype.robofont.layerData'
p10
(dp11
S'b'
(dp12
S'name'
p13
S't'
sg4
(dp14
sg6
(tsg7
I706
sg8
((dp15
S'points'
p16
((dp17
S'segmentType'
p18
S'curve'
p19
sS'x'
I317
sS'smooth'
p20
I1
sS'y'
I0
s(dp21
S'y'
I0
sS'x'
I358
sg20
I0
s(dp22
S'y'
I27
sS'x'
I398
sg20
I0
s(dp23
g18
S'curve'
p24
sS'x'
I398
sg20
I1
sS'y'
I79
s(dp25
g18
S'line'
p26
sS'x'
I398
sg20
I0
sS'y'
I876
s(dp27
g18
S'line'
p28
sS'x'
I578
sg20
I1
sS'y'
I876
s(dp29
S'y'
I876
sS'x'
I621
sg20
I0
s(dp30
S'y'
I897
sS'x'
I634
sg20
I0
s(dp31
g18
S'curve'
p32
sS'x'
I634
sg20
I1
sS'y'
I928
s(dp33
S'y'
I957
sS'x'
I634
sg20
I0
s(dp34
S'y'
I981
sS'x'
I621
sg20
I0
s(dp35
g18
S'curve'
p36
sS'x'
I578
sg20
I1
sS'y'
I981
s(dp37
g18
S'line'
p38
sS'x'
I398
sg20
I0
sS'y'
I981
s(dp39
g18
S'line'
p40
sS'x'
I398
sg20
I1
sS'y'
I1053
s(dp41
S'y'
I1285
sS'x'
I398
sg20
I0
s(dp42
S'y'
I1318
sS'x'
I432
sg20
I0
s(dp43
g18
S'curve'
p44
sS'x'
I544
sg20
I1
sS'y'
I1318
s(dp45
g18
S'line'
p46
sS'x'
I629
sg20
I1
sS'y'
I1318
s(dp47
S'y'
I1318
sS'x'
I706
sg20
I0
s(dp48
S'y'
I1438
sS'x'
I703
sg20
I0
s(dp49
g18
S'curve'
p50
sS'x'
I630
sg20
I1
sS'y'
I1438
s(dp51
g18
S'line'
p52
sS'x'
I510
sg20
I1
sS'y'
I1438
s(dp53
S'y'
I1438
sS'x'
I357
sg20
I0
s(dp54
S'y'
I1371
sS'x'
I238
sg20
I0
s(dp55
g18
S'curve'
p56
sS'x'
I238
sg20
I1
sS'y'
I1112
s(dp57
g18
S'line'
p58
sS'x'
I238
sg20
I0
sS'y'
I981
s(dp59
g18
S'line'
p60
sS'x'
I98
sg20
I1
sS'y'
I981
s(dp61
S'y'
I981
sS'x'
I55
sg20
I0
s(dp62
S'y'
I957
sS'x'
I39
sg20
I0
s(dp63
g18
S'curve'
p64
sS'x'
I39
sg20
I1
sS'y'
I928
s(dp65
S'y'
I899
sS'x'
I39
sg20
I0
s(dp66
S'y'
I876
sS'x'
I55
sg20
I0
s(dp67
g18
S'curve'
p68
sS'x'
I98
sg20
I1
sS'y'
I876
s(dp69
g18
S'line'
p70
sS'x'
I238
sg20
I0
sS'y'
I876
s(dp71
g18
S'line'
p72
sS'x'
I238
sg20
I1
sS'y'
I79
s(dp73
S'y'
I26
sS'x'
I238
sg20
I0
s(dp74
S'y'
I0
sS'x'
I278
sg20
I0
stp75
stp76
sg9
(tsg3
(tsssg13
S't'
s."
AnchorPoint: "caron.alt" 370 1125 basechar 0
AnchorPoint: "bot" 460 7 basechar 0
LayerCount: 2
Fore
SplineSet
484 -12 m 0
 500.042693548 -12 516.203876963 -12.1789603797 532.088789612 -12.1789603797 c 0
 622.348362915 -12.1789603797 703.688203898 -6.40101033589 703.688203898 70.8166049935 c 0
 703.688203898 109.859976223 676.134131529 149.18603548 624.253366201 149.18603548 c 0
 622.206703218 149.18603548 620.122181772 149.124834222 618 149 c 2
 547 145 l 2
 543.653506867 144.816126751 540.384099101 144.724214993 537.190632841 144.724214993 c 0
 453.545304558 144.724214993 422 207.780704476 422 333 c 2
 422 856 l 1
 601 856 l 2
 651 856 673 884 673 920 c 0
 673 956 651 987 601 987 c 2
 422 987 l 1
 422 1273 l 2
 422 1328 387 1352 346 1352 c 0
 294 1352 253 1314 247 1264 c 1
 220 987 l 1
 103 987 l 2
 53 987 30 958 30 922 c 0
 30 886 54 856 104 856 c 2
 220 856 l 1
 220 291 l 2
 220 87 327 -12 484 -12 c 0
EndSplineSet
EndChar

StartChar: thorn
Encoding: 189 254 358
Width: 1186
VWidth: 0
GlyphClass: 2
Flags: HW
LayerCount: 2
Fore
SplineSet
230 -342 m 0
 280 -342 329 -309 329 -244 c 2
 329 179 l 1
 415 40 543 -26 688 -26 c 0
 971 -26 1101 236 1101 503 c 0
 1101 787 965 1023 682 1023 c 0
 546 1023 404 958 334 830 c 1
 334 1338 l 2
 334 1401 284 1432 234 1432 c 0
 182 1432 132 1400 132 1338 c 2
 132 -244 l 2
 132 -310 180 -342 230 -342 c 0
633 117 m 0
 402 117 334 292 334 514 c 0
 334 710 411 878 619 878 c 0
 825 878 891 693 891 509 c 0
 891 335 842 117 633 117 c 0
EndSplineSet
EndChar

StartChar: three
Encoding: 19 51 359
Width: 1190
VWidth: 0
GlyphClass: 2
Flags: HW
PickledData: "(dp1
S'com.typemytype.robofont.layerData'
p2
(dp3
S'b'
(dp4
S'name'
p5
S'three'
p6
sS'lib'
p7
(dp8
sS'unicodes'
p9
(tsS'width'
p10
I1160
sS'contours'
p11
(tsS'components'
p12
(tsS'anchors'
p13
(tsss."
LayerCount: 2
Fore
SplineSet
567 -22 m 0
 829 -22 1062 101 1062 383 c 0
 1062 571 968 707 796 753 c 1
 932 806 1030 906 1030 1073 c 0
 1030 1331 816 1462 557 1462 c 0
 405 1462 249 1413 186 1373 c 0
 162.593832189 1358.37114512 152.969483026 1335.61016122 152.969483026 1311.67955744 c 0
 152.969483026 1263.11201016 192.611560101 1209.72687359 237.141568596 1209.72687359 c 0
 245.663229031 1209.72687359 254.363895635 1211.68194782 263 1216 c 0
 330 1251 438 1281 548 1281 c 0
 678 1281 804 1213 804 1062 c 0
 804 902 674 826 503 826 c 2
 432 826 l 2
 381 826 358 784 358 744 c 0
 358 704 380 663 432 663 c 2
 511 663 l 2
 694 663 837 556 837 386 c 0
 837 233 718 159 552 159 c 0
 434 159 342 197 280 226 c 0
 271.661170572 229.457563421 263.249950821 231.043319913 254.984033544 231.043319913 c 0
 209.268517109 231.043319913 167.99745205 182.538862703 167.99745205 133.920474475 c 0
 167.99745205 104.88527824 182.716987142 75.8094479282 220 57 c 0
 304 12 425 -22 567 -22 c 0
EndSplineSet
EndChar

StartChar: threequarters
Encoding: 125 190 360
Width: 1670
VWidth: 0
GlyphClass: 2
Flags: HW
PickledData: "(dp1
S'com.typemytype.robofont.layerData'
p2
(dp3
S'b'
(dp4
S'name'
p5
S'threequarters'
p6
sS'lib'
p7
(dp8
sS'unicodes'
p9
(tsS'width'
p10
I1603
sS'contours'
p11
(tsS'components'
p12
(tsS'anchors'
p13
(tsss."
LayerCount: 2
Fore
SplineSet
309 555 m 0
 463 555 590 632 590 785 c 0
 590 896 521 976 416 1000 c 1
 455 1063 573 1089 573 1190 c 0
 573 1343 447 1421 301 1421 c 0
 209 1421 65 1389 65 1331 c 0
 65 1306 84 1283 114 1283 c 0
 133 1283 222 1320 303 1320 c 0
 386 1320 459 1273 459 1189 c 0
 459 1093 378 1046 284 1044 c 2
 245 1043 l 2
 214 1042 199 1020 199 996 c 0
 199 972 214 950 245 950 c 2
 290 950 l 2
 391 950 473 888 473 788 c 0
 473 700 409 655 310 655 c 0
 235 655 163 686 130 694 c 0
 126.850856218 694.449877683 123.8069552 694.664983048 120.874852596 694.664983048 c 0
 91.2191795268 694.664983048 73 672.660636048 73 649 c 0
 73 590 229 555 309 555 c 0
1358 1 m 0
 1386 1 1415 20 1415 60 c 2
 1415 186 l 1
 1496 186 l 2
 1528 186 1542 206 1542 228 c 0
 1542 249 1527 269 1496 269 c 2
 1415 269 l 1
 1415 746 l 2
 1415 809 1380 839 1333 839 c 0
 1291 839 1257 823 1228 772 c 1
 912 283 l 2
 904 270 900 257 900 243 c 0
 900 211 924 186 965 186 c 2
 1301 186 l 1
 1301 60 l 2
 1301 20 1329 1 1358 1 c 0
581 -81 m 0
 607 -81 632 -67 643 -35 c 2
 1115 1355 l 2
 1118 1364 1120 1373 1120 1380 c 0
 1120 1420 1087 1443 1053 1443 c 0
 1026 1443 999 1428 988 1396 c 2
 519 7 l 2
 516 -3 514 -12 514 -19 c 0
 514 -57 548 -81 581 -81 c 0
1009 268 m 1
 1301 730 l 1
 1301 268 l 1
 1009 268 l 1
EndSplineSet
EndChar

StartChar: uni00B3
Encoding: 114 179 361
Width: 805
VWidth: 0
GlyphClass: 2
Flags: HW
PickledData: "(dp1
S'com.typemytype.robofont.layerData'
p2
(dp3
S'b'
(dp4
S'name'
p5
S'threesuperior'
p6
sS'lib'
p7
(dp8
sS'unicodes'
p9
(tsS'width'
p10
I818
sS'contours'
p11
(tsS'components'
p12
(tsS'anchors'
p13
(tsss."
LayerCount: 2
Fore
SplineSet
400 549 m 0
 555 549 681 627 681 779 c 0
 681 889 617 970 513 994 c 1
 608 1024 665 1082 665 1183 c 0
 665 1338 544 1415 399 1415 c 0
 307 1415 157 1383 157 1326 c 0
 157 1301 176 1277 205 1277 c 0
 224 1277 307 1317 396 1317 c 0
 480 1317 551 1268 551 1182 c 0
 551 1087 469 1039 375 1038 c 1
 334 1037 l 2
 304 1037 290 1012 290 988 c 0
 290 965 305 940 336 940 c 2
 382 940 l 2
 482 940 564 882 564 782 c 0
 564 694 500 649 401 649 c 0
 318 649 253 681 221 690 c 0
 217.615953708 690.740260126 214.310190994 691.089102357 211.103999693 691.089102357 c 0
 183.99201188 691.089102357 164 666.144710941 164 642 c 0
 164 583 320 549 400 549 c 0
EndSplineSet
EndChar

StartChar: tilde
Encoding: 405 732 362
Width: 569
VWidth: 0
GlyphClass: 4
Flags: HW
AnchorPoint: "top" 293 1040 mark 0
LayerCount: 2
Fore
SplineSet
20 1189 m 0
 42 1189 64 1198 81 1222 c 0
 102 1252 125 1269 155 1269 c 0
 225 1269 317 1189 407 1189 c 0
 493.326334127 1189 586.076031259 1254.70978034 586.076031259 1349.55598676 c 0
 586.076031259 1365.10208424 577.438536689 1375.15312636 567 1378 c 1
 565 1394 553 1405 536 1405 c 0
 485 1399 464 1324 416 1324 c 0
 349 1324 259 1401 157 1401 c 0
 57 1401 -1 1341 -25 1248 c 0
 -27 1243 -28 1238 -28 1233 c 0
 -28 1204 -6 1189 20 1189 c 0
EndSplineSet
EndChar

StartChar: trademark
Encoding: 463 8482 363
Width: 1951
VWidth: 0
GlyphClass: 2
Flags: HW
LayerCount: 2
Fore
SplineSet
897 651 m 0
 933 651 968 675 968 721 c 2
 968 1189 l 1
 1197 703 l 1
 1209 671 1234 656 1262 656 c 0
 1290 656 1317 673 1329 703 c 1
 1557 1189 l 1
 1557 721 l 2
 1557 674 1592 651 1628 651 c 0
 1664 651 1700 675 1700 721 c 2
 1700 1261 l 2
 1700 1347 1649 1385 1592 1385 c 0
 1549 1385 1503 1360 1476 1299 c 1
 1264 852 l 1
 1051 1299 l 1
 1023 1361 977 1386 935 1386 c 0
 877 1386 825 1347 825 1261 c 2
 825 721 l 2
 825 675 861 651 897 651 c 0
370 652 m 0
 406 652 444 675 444 722 c 2
 444 1278 l 1
 620 1278 l 2
 657 1278 674 1305 674 1331 c 0
 674 1359 656 1386 620 1386 c 2
 119 1386 l 2
 81 1386 64 1359 64 1332 c 0
 64 1305 82 1278 119 1278 c 2
 296 1278 l 1
 296 722 l 2
 296 675 333 652 370 652 c 0
EndSplineSet
EndChar

StartChar: two
Encoding: 18 50 364
Width: 1199
VWidth: 0
GlyphClass: 2
Flags: HW
PickledData: "(dp1
S'com.typemytype.robofont.layerData'
p2
(dp3
S'b'
(dp4
S'name'
p5
S'two'
p6
sS'lib'
p7
(dp8
sS'unicodes'
p9
(tsS'width'
p10
I1160
sS'contours'
p11
(tsS'components'
p12
(tsS'anchors'
p13
(tsss."
LayerCount: 2
Fore
SplineSet
1055 1036 m 0
 1055 1257.69121607 871.182900996 1442.01296195 611.981753776 1442.01296195 c 0
 420.958731587 1442.01296195 304.039665452 1385.42033861 194 1319 c 0
 163.488268215 1300.87421874 151.320240094 1275.90377194 151.320240094 1250.98115461 c 0
 151.320240094 1203.76209085 194.998733525 1156.71471633 240.355106392 1156.71471633 c 0
 250.303756479 1156.71471633 260.333132378 1158.97825059 270 1164 c 0
 350 1207 412 1268 592 1268 c 0
 729 1268 845 1171 845 1020 c 0
 845 930 799 846 697 743 c 2
 178 220 l 2
 143.841961933 185.486149037 128.294538015 147.680624823 128.294538015 113.295417715 c 0
 128.294538015 51.0421739867 179.255676548 7.1054273576e-15 263 0 c 2
 958 0 l 2
 1013 0 1040 43 1040 85 c 0
 1040 128 1012 169 958 169 c 2
 371 169 l 1
 818 596 l 1
 988 751 1055 886 1055 1036 c 0
EndSplineSet
EndChar

StartChar: uni00B2
Encoding: 113 178 365
Width: 750
VWidth: 0
GlyphClass: 2
Flags: HW
LayerCount: 2
Fore
SplineSet
162 582 m 2
 598 582 l 2
 631 582 648 607 648 632 c 0
 648 657 630 683 598 683 c 2
 237 683 l 1
 397 815 639 1036 639 1214 c 0
 639 1348 522 1419 380 1419 c 0
 284 1419 129 1365 129 1306 c 0
 129 1282 148 1261 175 1261 c 0
 186 1261 197 1264 207 1270 c 0
 248 1291 307 1316 366 1316 c 0
 440 1316 510 1278 510 1202 c 0
 510 1096 338 915 221 808 c 1
 148 733 85 693 85 643 c 0
 85 609 109 582 162 582 c 2
EndSplineSet
EndChar

StartChar: u
Encoding: 85 117 366
Width: 1170
VWidth: 0
GlyphClass: 2
Flags: HW
PickledData: "(dp1
S'b'
(dp2
sS'anchors'
p3
(tsS'lib'
p4
(dp5
sS'unicodes'
p6
(tsS'width'
p7
I1195
sS'contours'
p8
(tsS'components'
p9
(tsS'com.typemytype.robofont.layerData'
p10
(dp11
S'b'
(dp12
S'name'
p13
S'u'
sg4
(dp14
sg6
(tsg7
I1152
sg8
((dp15
S'points'
p16
((dp17
S'segmentType'
p18
S'curve'
p19
sS'x'
I915
sS'smooth'
p20
I1
sS'y'
I991
s(dp21
S'y'
I991
sS'x'
I875
sg20
I0
s(dp22
S'y'
I965
sS'x'
I834
sg20
I0
s(dp23
g18
S'curve'
p24
sS'x'
I834
sg20
I1
sS'y'
I916
s(dp25
g18
S'line'
p26
sS'x'
I834
sg20
I0
sS'y'
I395
s(dp27
S'y'
I198
sS'x'
I821
sg20
I0
s(dp28
S'y'
I90
sS'x'
I698
sg20
I0
s(dp29
g18
S'curve'
p30
sS'x'
I542
sg20
I1
sS'y'
I90
s(dp31
S'y'
I90
sS'x'
I385
sg20
I0
s(dp32
S'y'
I187
sS'x'
I306
sg20
I0
s(dp33
g18
S'curve'
p34
sS'x'
I306
sg20
I1
sS'y'
I367
s(dp35
g18
S'line'
p36
sS'x'
I306
sg20
I1
sS'y'
I916
s(dp37
S'y'
I967
sS'x'
I306
sg20
I0
s(dp38
S'y'
I991
sS'x'
I266
sg20
I0
s(dp39
g18
S'curve'
p40
sS'x'
I226
sg20
I1
sS'y'
I991
s(dp41
S'y'
I991
sS'x'
I186
sg20
I0
s(dp42
S'y'
I967
sS'x'
I146
sg20
I0
s(dp43
g18
S'curve'
p44
sS'x'
I146
sg20
I1
sS'y'
I916
s(dp45
g18
S'line'
p46
sS'x'
I146
sg20
I1
sS'y'
I369
s(dp47
S'y'
I96
sS'x'
I146
sg20
I0
s(dp48
S'y'
S'-20'
p49
sS'x'
I294
sg20
I0
s(dp50
g18
S'curve'
p51
sS'x'
I507
sg20
I1
sS'y'
S'-20'
p52
s(dp53
S'y'
S'-20'
p54
sS'x'
I656
sg20
I0
s(dp55
S'y'
I49
sS'x'
I786
sg20
I0
s(dp56
g18
S'curve'
p57
sS'x'
I834
sg20
I0
sS'y'
I179
s(dp58
g18
S'line'
p59
sS'x'
I834
sg20
I1
sS'y'
I73
s(dp60
S'y'
I24
sS'x'
I834
sg20
I0
s(dp61
S'y'
I0
sS'x'
I874
sg20
I0
s(dp62
g18
S'curve'
p63
sS'x'
I913
sg20
I1
sS'y'
I0
s(dp64
S'y'
I0
sS'x'
I953
sg20
I0
s(dp65
S'y'
I24
sS'x'
I994
sg20
I0
s(dp66
g18
S'curve'
p67
sS'x'
I994
sg20
I1
sS'y'
I75
s(dp68
g18
S'line'
p69
sS'x'
I994
sg20
I1
sS'y'
I916
s(dp70
S'y'
I967
sS'x'
I994
sg20
I0
s(dp71
S'y'
I991
sS'x'
I955
sg20
I0
stp72
stp73
sg9
(tsg3
(tsssg13
S'u'
s."
AnchorPoint: "top" 581 995 basechar 0
AnchorPoint: "ogonek" 913 21 basechar 0
LayerCount: 2
Fore
SplineSet
497 -16 m 0
 647 -16 769 47 823 163 c 1
 823 91 l 2
 823 30 873 0 923 0 c 0
 974 0 1025 31 1025 95 c 2
 1025 900 l 2
 1025 965 975 997 925 997 c 0
 873 997 823 964 823 900 c 2
 823 426 l 1
 818 234 693 121 550 121 c 0
 421 121 337 203 337 368 c 2
 337 900 l 2
 337 965 287 997 237 997 c 0
 186 997 136 965 136 900 c 2
 136 370 l 2
 136 99 298 -16 497 -16 c 0
EndSplineSet
EndChar

StartChar: underscore
Encoding: 63 95 374
Width: 1024
VWidth: 0
GlyphClass: 2
Flags: HW
LayerCount: 2
Fore
SplineSet
58 -255 m 2
 963 -255 l 2
 1003 -255 1023 -223 1023 -193 c 0
 1023 -161 1003 -131 963 -131 c 2
 58 -131 l 2
 19 -131 0 -161 0 -193 c 0
 0 -223 19 -255 58 -255 c 2
EndSplineSet
EndChar

StartChar: uni00AD
Encoding: 108 173 376
Width: 723
VWidth: 0
GlyphClass: 2
Flags: HW
LayerCount: 2
Fore
SplineSet
124 456 m 2
 594 456 l 2
 650 456 684 484 684 529 c 0
 684 575 650 604 594 604 c 2
 130 604 l 2
 74 604 39 575 39 529 c 0
 39 484 72 456 124 456 c 2
EndSplineSet
EndChar

StartChar: uni02C9
Encoding: 400 713 440
Width: 569
VWidth: 0
GlyphClass: 4
Flags: HW
AnchorPoint: "top" 288 1040 mark 0
LayerCount: 2
Fore
SplineSet
50 1300 m 2
 524 1300 l 2
 572 1300 594 1333 594 1371 c 0
 594 1407 572 1441 524 1441 c 2
 50 1441 l 2
 1 1441 -22 1407 -22 1371 c 0
 -22 1333 1 1300 50 1300 c 2
EndSplineSet
EndChar

StartChar: uni0307
Encoding: 407 775 441
Width: 600
VWidth: 0
GlyphClass: 2
Flags: HW
LayerCount: 2
Fore
SplineSet
323 400 m 0
 401 400 449 457 449 519 c 0
 449 582 399 637 323 637 c 0
 244 637 195 581 195 519 c 0
 195 456 244 400 323 400 c 0
EndSplineSet
EndChar

StartChar: uni03A9
Encoding: 415 937 442
Width: 1558
VWidth: 0
GlyphClass: 2
Flags: HW
LayerCount: 2
Fore
SplineSet
240 0 m 2
 726 0 l 1
 555 270 366 615 366 872 c 0
 366 1093 489 1248 822 1248 c 0
 1156 1248 1279 1093 1279 872 c 0
 1279 615 1090 271 918 0 c 1
 1404 0 l 2
 1447 0 1468 40 1468 80 c 0
 1468 120 1447 159 1404 159 c 2
 1142 159 l 1
 1350 404 1506 699 1506 934 c 0
 1506 1211 1371 1460 822 1460 c 0
 311 1460 138 1208 138 934 c 0
 138 699 289 418 503 159 c 1
 240 159 l 2
 198 159 177 120 177 80 c 0
 177 40 198 0 240 0 c 2
EndSplineSet
EndChar

StartChar: uni03BC
Encoding: 416 956 443
Width: 1174
VWidth: 0
GlyphClass: 2
Flags: HW
LayerCount: 2
Fore
SplineSet
236 -278 m 0
 298 -278 339 -231 339 -159 c 2
 339 502 l 1
 136 502 l 1
 136 -159 l 2
 136 -240 177 -278 236 -278 c 0
EndSplineSet
Refer: 366 117 N 1 0 0 1 0 0 2
EndChar

StartChar: afii61289
Encoding: 462 8467 462
Width: 756
VWidth: 0
GlyphClass: 2
Flags: HW
LayerCount: 2
Fore
SplineSet
502 1494 m 0
 369 1494 220 1407 219 1177 c 2
 218 846 l 1
 41 707 l 2
 26 695 19 681 19 668 c 0
 19 647 36 629 58 629 c 0
 68 629 77 631 90 641 c 2
 218 741 l 1
 218 289 l 2
 218 60 335 -17 485 -17 c 0
 554 -17 614 -15 641 -10 c 0
 674 -4 692 24 692 55 c 0
 692 92.8042957592 667.569832857 123.091617013 625.085195661 123.091617013 c 0
 623.741457871 123.091617013 622.379658739 123.061318166 621 123 c 2
 556 120 l 2
 552.405660424 119.843724366 548.880007929 119.763767713 545.423161785 119.763767713 c 0
 460.399262448 119.763767713 417 168.133818625 417 319 c 2
 417 876 l 1
 642 1042 721 1128 721 1262 c 0
 721 1375 658 1494 502 1494 c 0
502 1348 m 0
 543 1348 584 1316 584 1249 c 0
 584 1149 527 1067 417 981 c 1
 417 1199 l 2
 417 1314 460 1348 502 1348 c 0
EndSplineSet
EndChar

StartChar: v
Encoding: 86 118 471
Width: 1051
VWidth: 0
GlyphClass: 2
Flags: HW
PickledData: "(dp1
S'com.typemytype.robofont.layerData'
p2
(dp3
S'b'
(dp4
S'name'
p5
S'v'
sS'lib'
p6
(dp7
sS'unicodes'
p8
(tsS'width'
p9
I1027
sS'contours'
p10
((dp11
S'points'
p12
((dp13
S'segmentType'
p14
S'line'
p15
sS'x'
I518
sS'smooth'
p16
I0
sS'y'
I0
s(dp17
S'y'
I0
sS'x'
I589
sg16
I0
s(dp18
S'y'
I36
sS'x'
I618
sg16
I0
s(dp19
g14
S'curve'
p20
sS'x'
I654
sg16
I1
sS'y'
I121
s(dp21
g14
S'line'
p22
sS'x'
I979
sg16
I1
sS'y'
I890
s(dp23
S'y'
I940
sS'x'
I1000
sg16
I0
s(dp24
S'y'
I991
sS'x'
I968
sg16
I0
s(dp25
g14
S'curve'
p26
sS'x'
I907
sg16
I1
sS'y'
I991
s(dp27
S'y'
I991
sS'x'
I878
sg16
I0
s(dp28
S'y'
I975
sS'x'
I850
sg16
I0
s(dp29
g14
S'curve'
p30
sS'x'
I836
sg16
I1
sS'y'
I940
s(dp31
g14
S'line'
p32
sS'x'
I518
sg16
I0
sS'y'
I166
stp33
s(dp34
g12
((dp35
g14
S'curve'
p36
sS'x'
I518
sg16
I0
sS'y'
I0
s(dp37
g14
S'line'
p38
sS'x'
I518
sg16
I0
sS'y'
I166
s(dp39
g14
S'line'
p40
sS'x'
I200
sg16
I1
sS'y'
I940
s(dp41
S'y'
I975
sS'x'
I186
sg16
I0
s(dp42
S'y'
I991
sS'x'
I158
sg16
I0
s(dp43
g14
S'curve'
p44
sS'x'
I129
sg16
I1
sS'y'
I991
s(dp45
S'y'
I991
sS'x'
I68
sg16
I0
s(dp46
S'y'
I940
sS'x'
I36
sg16
I0
s(dp47
g14
S'curve'
p48
sS'x'
I57
sg16
I1
sS'y'
I890
s(dp49
g14
S'line'
p50
sS'x'
I382
sg16
I1
sS'y'
I121
s(dp51
S'y'
I36
sS'x'
I418
sg16
I0
s(dp52
S'y'
I0
sS'x'
I447
sg16
I0
stp53
stp54
sS'components'
p55
(tsS'anchors'
p56
(tsss."
LayerCount: 2
Fore
SplineSet
529 -2 m 0
 617 -2 658 44 700 147 c 2
 999 872 l 2
 1003.54699111 883.150954387 1005.60921625 894.090938078 1005.60921625 904.57505504 c 0
 1005.60921625 956.378578689 955.260202832 997.052163303 905.536445308 997.052163303 c 0
 872.37078208 997.052163303 839.483286929 978.957023531 822 934 c 2
 529 202 l 1
 236 934 l 2
 218.873514845 978.957023531 186.215513962 997.052163303 153.19746104 997.052163303 c 0
 103.69809305 997.052163303 53.3895142721 956.383646739 53.3895142721 904.584737523 c 0
 53.3895142721 894.097673811 55.4516090987 883.15438721 60 872 c 2
 358 147 l 2
 400 44 441 -2 529 -2 c 0
EndSplineSet
EndChar

StartChar: w
Encoding: 87 119 472
Width: 1701
VWidth: 0
GlyphClass: 2
Flags: HW
PickledData: "(dp1
S'b'
(dp2
sS'anchors'
p3
(tsS'lib'
p4
(dp5
sS'unicodes'
p6
(tsS'width'
p7
I1742
sS'contours'
p8
(tsS'components'
p9
(tsS'com.typemytype.robofont.layerData'
p10
(dp11
S'b'
(dp12
S'name'
p13
S'w'
sg4
(dp14
sg6
(tsg7
I1699
sg8
((dp15
S'points'
p16
((dp17
S'segmentType'
p18
S'curve'
p19
sS'x'
I477
sS'smooth'
p20
I1
sS'y'
I0
s(dp21
S'y'
I0
sS'x'
I524
sg20
I0
s(dp22
S'y'
I30
sS'x'
I564
sg20
I0
s(dp23
g18
S'curve'
p24
sS'x'
I588
sg20
I0
sS'y'
I96
s(dp25
g18
S'line'
p26
sS'x'
I859
sg20
I0
sS'y'
I839
s(dp27
g18
S'line'
p28
sS'x'
I859
sg20
I0
sS'y'
I991
s(dp29
S'y'
I991
sS'x'
I808
sg20
I0
s(dp30
S'y'
I959
sS'x'
I771
sg20
I0
s(dp31
g18
S'curve'
p32
sS'x'
I750
sg20
I1
sS'y'
I899
s(dp33
g18
S'line'
p34
sS'x'
I488
sg20
I0
sS'y'
I173
s(dp35
g18
S'line'
p36
sS'x'
I223
sg20
I1
sS'y'
I936
s(dp37
S'y'
I974
sS'x'
I210
sg20
I0
s(dp38
S'y'
I991
sS'x'
I183
sg20
I0
s(dp39
g18
S'curve'
p40
sS'x'
I152
sg20
I1
sS'y'
I991
s(dp41
S'y'
I991
sS'x'
I112
sg20
I0
s(dp42
S'y'
I962
sS'x'
I79
sg20
I0
s(dp43
g18
S'curve'
p44
sS'x'
I79
sg20
I1
sS'y'
I916
s(dp45
S'y'
I909
sS'x'
I79
sg20
I0
s(dp46
S'y'
I899
sS'x'
I81
sg20
I0
s(dp47
g18
S'curve'
p48
sS'x'
I84
sg20
I0
sS'y'
I888
s(dp49
g18
S'line'
p50
sS'x'
I372
sg20
I1
sS'y'
I88
s(dp51
S'y'
I26
sS'x'
I394
sg20
I0
s(dp52
S'y'
I0
sS'x'
I433
sg20
I0
stp53
s(dp54
g16
((dp55
g18
S'curve'
p56
sS'x'
I1241
sg20
I1
sS'y'
I0
s(dp57
S'y'
I0
sS'x'
I1285
sg20
I0
s(dp58
S'y'
I26
sS'x'
I1324
sg20
I0
s(dp59
g18
S'curve'
p60
sS'x'
I1346
sg20
I1
sS'y'
I88
s(dp61
g18
S'line'
p62
sS'x'
I1634
sg20
I0
sS'y'
I888
s(dp63
S'y'
I899
sS'x'
I1637
sg20
I0
s(dp64
S'y'
I909
sS'x'
I1639
sg20
I0
s(dp65
g18
S'curve'
p66
sS'x'
I1639
sg20
I1
sS'y'
I916
s(dp67
S'y'
I962
sS'x'
I1639
sg20
I0
s(dp68
S'y'
I991
sS'x'
I1606
sg20
I0
s(dp69
g18
S'curve'
p70
sS'x'
I1566
sg20
I1
sS'y'
I991
s(dp71
S'y'
I991
sS'x'
I1535
sg20
I0
s(dp72
S'y'
I974
sS'x'
I1508
sg20
I0
s(dp73
g18
S'curve'
p74
sS'x'
I1495
sg20
I1
sS'y'
I936
s(dp75
g18
S'line'
p76
sS'x'
I1230
sg20
I0
sS'y'
I173
s(dp77
g18
S'line'
p78
sS'x'
I968
sg20
I1
sS'y'
I899
s(dp79
S'y'
I959
sS'x'
I947
sg20
I0
s(dp80
S'y'
I991
sS'x'
I910
sg20
I0
s(dp81
g18
S'curve'
p82
sS'x'
I859
sg20
I0
sS'y'
I991
s(dp83
g18
S'line'
p84
sS'x'
I859
sg20
I0
sS'y'
I839
s(dp85
g18
S'line'
p86
sS'x'
I1130
sg20
I0
sS'y'
I96
s(dp87
S'y'
I30
sS'x'
I1154
sg20
I0
s(dp88
S'y'
I0
sS'x'
I1194
sg20
I0
stp89
stp90
sg9
(tsg3
(tsssg13
S'w'
s."
AnchorPoint: "top" 859 1008 basechar 0
LayerCount: 2
Fore
SplineSet
1241 0 m 0
 1296 0 1345 31 1372 112 c 2
 1630 875 l 2
 1633.98031594 886.940947811 1635.79213289 898.17886627 1635.79213289 908.624092216 c 0
 1635.79213289 962.010114374 1588.46243134 994.688801794 1541.42533232 994.688801794 c 0
 1505.1800453 994.688801794 1469.10849838 975.285008808 1455 931 c 2
 1224 211 l 1
 989 889 l 2
 964 962 918 997 858 997 c 0
 798 997 751 962 726 889 c 2
 491 211 l 1
 261 931 l 2
 246.499598886 975.285008808 210.343324742 994.688801794 174.139911611 994.688801794 c 0
 127.200077411 994.688801794 80.1809995881 962.069797292 80.1809995881 908.77036002 c 0
 80.1809995881 898.283800224 82.0010982679 886.996705196 86 875 c 2
 344 112 l 1
 370 31 420 0 475 0 c 0
 534 0 587 29 619 123 c 2
 858 805 l 1
 1096 123 l 2
 1129 29 1182 0 1241 0 c 0
EndSplineSet
EndChar

StartChar: x
Encoding: 88 120 477
Width: 1051
VWidth: 0
GlyphClass: 2
Flags: HW
PickledData: "(dp1
S'com.typemytype.robofont.layerData'
p2
(dp3
S'b'
(dp4
S'name'
p5
S'x'
sS'lib'
p6
(dp7
sS'unicodes'
p8
(tsS'width'
p9
I1039
sS'contours'
p10
(tsS'components'
p11
(tsS'anchors'
p12
(tsss."
LayerCount: 2
Fore
SplineSet
868 0 m 0
 921 0 969 44 969 93 c 0
 969 112 962 130 949 146 c 2
 647.482 515.588 l 1
 928 862 l 2
 941 879 947 895 947 912 c 0
 947 957 905 997 858 997 c 0
 832 997 809 985 788 959 c 2
 537.841 649.981 l 1
 289 955 l 2
 266 984 238 997 211 997 c 0
 158 997 111 953 111 902 c 0
 111 883 116 866 130 848 c 2
 406.227 510.25 l 1
 100 135 l 2
 88 121 82 105 82 88 c 0
 82 42 127 0 176 0 c 0
 201 0 224 12 244 37 c 2
 515.51 376.627 l 1
 790 41 l 1
 812 12 840 0 868 0 c 0
EndSplineSet
EndChar

StartChar: y
Encoding: 89 121 478
Width: 1055
VWidth: 0
GlyphClass: 2
Flags: HW
PickledData: "(dp1
S'com.typemytype.robofont.layerData'
p2
(dp3
S'b'
(dp4
S'name'
p5
S'y'
sS'lib'
p6
(dp7
sS'unicodes'
p8
(tsS'width'
p9
I1029
sS'contours'
p10
((dp11
S'points'
p12
((dp13
S'segmentType'
p14
S'line'
p15
sS'x'
I502
sS'smooth'
p16
I0
sS'y'
I10
s(dp17
g14
S'line'
p18
sS'x'
I585
sg16
I0
sS'y'
I181
s(dp19
g14
S'line'
p20
sS'x'
I241
sg16
I1
sS'y'
I931
s(dp21
S'y'
I966
sS'x'
I225
sg16
I0
s(dp22
S'y'
I984
sS'x'
I201
sg16
I0
s(dp23
g14
S'curve'
p24
sS'x'
I171
sg16
I1
sS'y'
I984
s(dp25
S'y'
I984
sS'x'
I117
sg16
I0
s(dp26
S'y'
I936
sS'x'
I64
sg16
I0
s(dp27
g14
S'curve'
p28
sS'x'
I91
sg16
I0
sS'y'
I887
stp29
s(dp30
g12
((dp31
g14
S'curve'
p32
sS'x'
I365
sg16
I1
sS'y'
S'-388'
p33
s(dp34
S'y'
S'-388'
p35
sS'x'
I396
sg16
I0
s(dp36
S'y'
S'-373'
p37
sS'x'
I424
sg16
I0
s(dp38
g14
S'curve'
p39
sS'x'
I442
sg16
I1
sS'y'
S'-334'
p40
s(dp41
g14
S'line'
p42
sS'x'
I1009
sg16
I1
sS'y'
I888
s(dp43
S'y'
I898
sS'x'
I1013
sg16
I0
s(dp44
S'y'
I908
sS'x'
I1016
sg16
I0
s(dp45
g14
S'curve'
p46
sS'x'
I1016
sg16
I1
sS'y'
I918
s(dp47
S'y'
I962
sS'x'
I1018
sg16
I0
s(dp48
S'y'
I990
sS'x'
I978
sg16
I0
s(dp49
g14
S'curve'
p50
sS'x'
I938
sg16
I1
sS'y'
I990
s(dp51
S'y'
I990
sS'x'
I910
sg16
I0
s(dp52
S'y'
I977
sS'x'
I883
sg16
I0
s(dp53
g14
S'curve'
p54
sS'x'
I866
sg16
I0
sS'y'
I941
s(dp55
g14
S'line'
p56
sS'x'
I299
sg16
I1
sS'y'
S'-286'
p57
s(dp58
S'y'
S'-344'
p59
sS'x'
I272
sg16
I0
s(dp60
S'y'
S'-388'
p61
sS'x'
I316
sg16
I0
stp62
stp63
sS'components'
p64
(tsS'anchors'
p65
(tsss."
AnchorPoint: "top" 570 1017 basechar 0
LayerCount: 2
Fore
SplineSet
434 -349 m 2
 1022 867 l 2
 1028.63317421 881.046721865 1031.59553604 894.73820382 1031.59553604 907.656416027 c 0
 1031.59553604 959.444278441 983.986515782 998.804686897 934.412745532 998.804686897 c 0
 901.275504063 998.804686897 867.26038068 981.217823022 846 938 c 2
 550.993 326.805 l 1
 260 930 l 2
 239.688036808 972.345279197 205.864540506 989.68236992 172.525184121 989.68236992 c 0
 122.209196796 989.68236992 72.9959376336 950.193582615 72.9959376336 897.585628493 c 0
 72.9959376336 883.799799296 76.3753803438 869.11308539 84 854 c 2
 450.438 118.476 l 1
 261 -274 l 2
 253.940657427 -288.385075432 250.80206394 -302.362109103 250.80206394 -315.505759602 c 0
 250.80206394 -367.222990879 299.395051144 -406.037443245 348.932337141 -406.037443245 c 0
 381.325605446 -406.037443245 414.122662814 -389.440099791 434 -349 c 2
EndSplineSet
EndChar

StartChar: yen
Encoding: 100 165 482
Width: 1222
VWidth: 0
GlyphClass: 2
Flags: HW
LayerCount: 2
Fore
SplineSet
205 296 m 2
 1080 296 l 2
 1121 296 1142 329 1142 361 c 0
 1142 392 1121 426 1080 426 c 2
 205 426 l 2
 163 426 143 393 143 363 c 0
 143 331 163 296 205 296 c 2
205 541 m 2
 1080 541 l 2
 1121 541 1142 573 1142 605 c 0
 1142 636 1121 670 1080 670 c 2
 205 670 l 2
 163 670 143 637 143 607 c 0
 143 575 163 541 205 541 c 2
EndSplineSet
Refer: 124 89 N 1 0 0 1 0 0 2
EndChar

StartChar: z
Encoding: 90 122 484
Width: 951
VWidth: 0
GlyphClass: 2
Flags: HW
AnchorPoint: "top" 495 1001 basechar 0
LayerCount: 2
Fore
SplineSet
177 0 m 2
 787 0 l 2
 840 0 866 39 866 77 c 0
 866 116 840 154 787 154 c 2
 320 154 l 1
 845 841 l 2
 863 866 872 892 872 914 c 0
 872 960 837 997 768 997 c 2
 173 997 l 2
 121 997 95 958 95 919 c 0
 95 880 120 842 173 842 c 2
 629 842 l 1
 104 156 l 2
 87 134 79 109 79 87 c 0
 79 39 116 0 177 0 c 2
EndSplineSet
EndChar

StartChar: zero
Encoding: 16 48 488
Width: 1203
VWidth: 0
GlyphClass: 2
Flags: HW
LayerCount: 2
Fore
SplineSet
601 159 m 0
 349 159 318 471 318 722 c 0
 318 981 351 1281 601 1281 c 0
 853 1281 886 980 886 722 c 0
 886 472 854 159 601 159 c 0
601 -22 m 0
 1003 -22 1115 342 1115 722 c 0
 1115 1111 1000 1462 601 1462 c 0
 202 1462 87 1112 87 722 c 0
 87 341 200 -22 601 -22 c 0
EndSplineSet
EndChar

StartChar: uni0358
Encoding: 412 856 491
Width: 600
VWidth: 0
Flags: HW
LayerCount: 2
Fore
SplineSet
323 400 m 0
 401 400 449 457 449 519 c 0
 449 582 399 637 323 637 c 0
 244 637 195 581 195 519 c 0
 195 456 244 400 323 400 c 0
EndSplineSet
EndChar

